<?xml version="1.0" encoding="UTF-8"?>
<svg id="Layer_1" data-name="Layer 1" xmlns="http://www.w3.org/2000/svg" viewBox="0 0 1920 1080">
  <defs>
    <style>
      .cls-1 {
        fill: #fff;
      }
    </style>
  </defs>
  <path class="cls-1" d="M212.07,466.43c0,6.46,0,12.93,3.28,19.28,1.59,4.87,4.77,11.34,6.46,16.1,1.59,1.7,1.59,3.28,1.59,4.87,0,3.18-1.59,4.87-4.87,6.46l-14.51,9.64h-4.77c-3.28,0-4.87-1.59-6.46-3.18-3.18-3.29-6.46-6.46-8.05-9.75-1.59-3.18-4.87-8.05-6.46-12.82-16.1,19.28-38.67,30.62-64.41,30.62-16.1,1.59-32.21-4.87-43.44-16.1-11.34-11.34-16.1-25.85-16.1-41.95,0-17.69,6.46-33.8,19.28-45.03,14.51-11.34,33.8-17.69,53.18-17.69,8.05,0,16.1,0,22.57,1.59,8.05,1.59,16.1,3.18,24.15,4.77v-16.1c1.59-12.82-1.7-25.74-9.75-35.38-9.64-8.05-22.46-11.23-35.38-9.64-8.05,0-16.1,1.59-24.15,3.18-8.05,1.59-16.1,4.87-24.15,8.05-3.18,1.59-4.87,1.59-8.05,3.28h-3.18c-3.28,0-4.87-1.7-4.87-6.46v-11.34c0-3.18,0-4.77,1.59-8.05,1.59-1.59,3.28-3.18,6.46-4.77,8.05-4.87,17.69-8.05,27.33-9.64,11.34-3.28,22.57-4.87,33.9-4.87,20.87-1.59,40.26,4.87,56.36,17.69,12.82,14.51,19.28,33.8,17.69,53.18l4.77,74.05Zm-88.57,32.21c8.05,0,14.51-1.59,22.57-3.18,8.05-3.29,14.51-8.05,20.98-14.51,3.18-3.28,6.46-8.05,8.05-14.51,1.59-6.46,1.59-12.93,1.59-19.28v-9.75c-6.46-1.59-12.93-3.18-19.28-3.18-6.46-1.59-12.93-1.59-20.98-1.59-11.23-1.59-22.57,1.59-32.21,8.05-12.93,12.82-14.51,33.8-3.18,48.31,6.36,8.05,14.41,11.23,22.46,9.64h0Zm175.55,24.15c-3.18,0-6.46,0-8.05-1.59-1.59-1.59-3.18-4.87-4.77-8.05l-51.59-169.08c-1.59-3.28-1.59-6.46-1.59-8.05,0-3.28,1.59-4.87,3.18-4.87h22.57c3.28,0,6.46,0,8.05,1.59,1.59,1.7,3.28,4.87,4.87,8.05l36.97,143.34,33.9-143.34c0-3.18,1.59-6.36,4.77-8.05,3.28-1.59,6.46-1.59,8.05-1.59h17.69c3.28,0,6.46,0,8.05,1.59,1.7,1.7,3.28,4.87,4.87,8.05l33.8,146.63,37.08-146.63c0-3.18,1.59-6.36,4.77-8.05,3.28-1.59,4.87-1.59,8.05-1.59h20.98c3.18,0,4.87,1.59,4.87,3.28v4.77c0,1.59-1.7,3.28-1.7,4.87l-51.49,167.5c0,3.18-1.59,6.36-4.87,8.05-1.59,3.18-4.77,3.18-8.05,3.18h-19.28c-3.18,0-6.46,0-8.05-1.59-1.59-3.28-3.18-4.87-4.87-8.05l-33.8-140.16-33.8,140.16c0,3.18-1.59,6.46-4.87,8.05-1.59,1.59-4.77,1.59-6.36,1.59h-19.39Zm280.22,6.46c-11.23,0-22.57-1.59-33.8-3.28-8.05-1.59-17.69-4.77-25.74-8.05-4.87-1.59-8.05-6.36-8.05-12.82v-11.34c0-4.77,1.59-6.36,4.77-6.36h3.28c1.59,0,3.18,1.59,4.77,1.59,8.05,3.18,16.1,6.46,24.15,8.05,8.05,1.59,17.69,3.18,25.74,3.18,11.34,0,22.57-1.59,32.21-8.05,6.46-4.77,11.34-12.82,11.34-20.87,0-6.46-1.59-11.34-6.46-14.51-6.46-4.87-14.51-9.64-22.57-11.34l-32.21-9.64c-12.82-3.18-25.74-11.23-35.38-22.57-6.46-9.64-11.34-20.87-11.34-32.21,0-8.05,1.7-16.1,6.46-24.15,3.28-6.36,9.64-12.82,16.1-17.69,6.46-4.77,14.51-9.64,22.57-11.23,9.64-3.28,17.69-3.28,27.33-3.28,4.87,0,9.75,0,14.51,1.7,4.87,0,9.64,1.59,14.51,3.18,4.87,1.59,8.05,1.59,12.93,3.18,3.18,1.7,6.36,1.7,9.64,3.28,3.18,1.59,4.77,3.18,6.46,4.77,1.59,1.7,1.59,4.87,1.59,8.05v9.75c0,4.77-1.59,6.36-4.87,6.36s-6.46-1.59-8.05-3.18c-12.82-6.46-27.33-8.05-41.85-8.05-9.64,0-19.28,1.59-29.03,6.46-6.36,3.18-11.23,11.23-9.64,19.28,0,6.46,1.59,11.34,6.46,16.1,6.46,6.46,14.51,9.64,24.15,11.34l30.62,9.64c12.82,3.18,24.15,11.23,33.8,20.87,6.46,8.05,9.64,19.39,9.64,30.62,0,8.05-1.59,17.69-6.46,25.74-3.18,8.05-9.64,14.51-16.1,19.39-6.36,4.77-16.1,9.64-24.15,12.82-6.36,1.7-17.69,3.28-27.33,3.28h0Zm0,0"/>
  <path class="cls-1" d="M619.52,633.93c-72.46,53.08-175.55,80.52-265.7,80.52-119.19,0-235.09-43.54-323.65-124.06-6.46-6.36,0-14.41,8.05-9.64,98.21,57.95,210.93,86.98,323.65,86.98,85.39,0,169.08-17.69,248.01-49.9,11.23-4.87,22.57,8.05,9.64,16.1h0Zm11.23,48.31c-3.18,6.46,3.28,9.64,9.75,4.77,38.56-32.21,48.31-99.8,40.26-109.44-8.05-9.64-75.75-17.69-116.01,11.23-6.46,4.87-4.77,11.34,1.59,9.64,22.57-3.18,74.16-9.64,83.8,3.28,9.64,12.82-11.34,59.54-19.39,80.52h0Zm0,0"/>
  <g>
    <path class="cls-1" d="M822.45,440.74v54.73h-31.09v-149.22h57.18c13.66-1.23,26.1,3.76,37.3,12.43,18.65,19.88,18.65,49.74,0,69.62-9.9,8.75-23.64,13.66-37.3,12.43h-26.1Zm0-23.64h22.42c6.22,0,12.43-1.23,16.12-6.22,7.44-9.9,7.44-24.87,0-34.77-4.99-3.76-9.9-6.22-16.12-6.22h-22.42v47.2Zm207.62,78.37l-9.9-33.54h-50.97l-9.98,33.54h-33.54l52.19-149.22h36.08l50.97,149.22h-34.85Zm-54.65-57.18h37.3l-18.65-62.17-18.65,62.17Zm134.24,57.18v-149.22h57.18c13.74-1.23,26.18,3.76,37.3,12.43,8.75,8.67,13.74,21.11,13.74,33.54,0,8.75-2.54,16.2-7.53,23.64-4.91,7.44-12.43,12.43-19.88,16.2l37.3,64.63h-33.54l-32.31-58.41h-21.19v57.18h-31.09Zm31.09-80.82h22.42c11.21,1.23,21.11-6.22,22.33-17.42v-6.22c1.31-11.21-6.22-21.11-16.12-22.33h-27.41v45.97h-1.23Zm162.88,80.82v-123.12h-45.97v-26.1h123.12v26.1h-46.06v123.12h-31.09Zm155.43-103.24v103.24h-28.55v-149.22h34.77l60.95,104.47v-104.47h28.63v149.22h-34.85l-60.95-103.24Zm152.98,103.24v-149.22h98.25v24.87h-65.94v34.85h53.5v24.87h-53.5v39.76h65.94v24.87h-98.25Zm155.43,0v-149.22h57.18c13.66-1.23,26.1,3.76,37.3,12.43,8.75,8.67,13.66,21.11,13.66,33.54,0,8.75-2.45,16.2-7.44,23.64-4.99,7.44-12.43,12.43-19.88,16.2l37.3,64.63h-33.54l-32.4-58.41h-21.11v57.18h-31.09Zm31.09-80.82h22.42c11.12,1.23,21.11-6.22,22.33-17.42v-6.22c1.23-11.21-6.22-21.11-16.12-22.33h-28.63v45.97Zm0,0"/>
    <path class="cls-1" d="M1139.4,632.25l-7.18-21.57h-33.04l-6.98,21.57h-15.75l31.28-86.26h16.51l31.29,86.26h-16.13Zm-36.72-32.64h26.05l-13.03-39.82-13.01,39.82Zm0,0"/>
    <path class="cls-1" d="M1209.49,632.25l-1.56-6.02c-5.7,4.99-12.24,7.38-19.63,7.38-7.89,0-14.31-2.92-19.03-8.74-4.79-5.9-7.2-13.99-7.2-24.09,0-6.61,1.04-12.43,3.32-17.49,2.19-5.06,5.31-9,9.32-11.85,3.95-2.85,8.8-4.28,14.37-4.28,6.68,0,12.83,2.14,18.27,6.42v-33.42h14.57v92.1h-12.43Zm-16.51-10.1c4.92,0,9.72-1.62,14.37-4.86v-34.2c-4.28-2.98-9-4.46-14.19-4.46s-9.52,1.87-12.24,5.44c-2.65,3.5-3.88,8.87-3.88,16.12,0,14.64,5.31,21.97,15.93,21.97h0Zm0,0"/>
    <path class="cls-1" d="M1256.37,632.25l-24.67-63.33h15.73l16.11,50.12,16.33-50.12h14.95l-24.29,63.33h-14.18Zm0,0"/>
    <path class="cls-1" d="M1341.61,632.25l-1.18-6.02c-3.03,2.45-6.22,4.39-9.72,5.82-3.5,1.43-7,2.14-10.49,2.14-5.82,0-10.54-1.74-14.18-5.24-3.5-3.5-5.24-8.04-5.24-13.61,0-6.08,2.19-10.94,6.6-14.56,4.34-3.76,10.36-5.64,17.87-5.64,4.34,0,9.2,.65,14.37,1.94v-7.38c0-4.28-.9-7.2-2.72-8.75-1.87-1.61-4.99-2.52-9.52-2.52-6.48,0-13.93,1.36-22.35,4.08v-10.3c3.12-1.56,6.86-2.78,11.27-3.7,4.34-.85,8.87-1.36,13.41-1.36,8.02,0,13.98,1.69,17.87,5.06,3.88,3.23,5.82,8.36,5.82,15.35v44.68h-11.84Zm-17.29-8.55c2.45,0,4.91-.45,7.58-1.54,2.72-1.04,5.31-2.54,7.76-4.48v-11.85c-4.39-.85-8.29-1.36-11.65-1.36-8.67,0-13.01,3.3-13.01,9.91,0,3.03,.85,5.37,2.52,7,1.62,1.56,3.96,2.32,6.81,2.32h0Zm0,0"/>
    <path class="cls-1" d="M1412.9,632.25v-41.96c0-3.96-.83-6.93-2.52-8.75-1.69-1.94-4.41-2.9-7.97-2.9-5.44,0-11.01,1.87-16.7,5.44v48.18h-14.77v-63.33h12.24l1.36,7c7.84-5.84,16-8.75,24.49-8.75,6.08,0,10.68,1.69,13.79,4.86,3.1,3.12,4.66,7.71,4.66,13.79v46.44h-14.57Zm0,0"/>
    <path class="cls-1" d="M1489.51,629.73c-4.92,2.59-10.74,3.88-17.47,3.88-9.72,0-17.23-2.79-22.55-8.36-5.17-5.7-7.76-13.66-7.76-24.09s2.72-18.85,8.16-24.67c5.44-5.97,13.01-8.94,22.73-8.94,5.89,0,11.46,1.29,16.51,3.68v10.5c-5.57-1.63-10.3-2.52-14.19-2.52-6.22,0-10.81,1.67-13.79,5.04-2.97,3.38-4.46,8.69-4.46,15.75v1.54c0,7,1.49,12.19,4.46,15.55,2.98,3.23,7.58,4.86,13.79,4.86,4.34,0,9.27-.85,14.57-2.52v10.3Zm0,0"/>
    <path class="cls-1" d="M1513.02,604.08c.27,6.35,2.01,11.01,5.26,13.99,3.37,2.83,8.42,4.26,15.15,4.26,6.22,0,12.88-1.03,20.01-3.3v10.3c-2.85,1.43-6.22,2.65-10.11,3.5-3.88,.91-7.89,1.36-12.04,1.36-10.36,0-18.27-2.79-23.71-8.36-5.44-5.69-8.16-13.98-8.16-24.87s2.59-18.9,7.97-24.87c5.31-5.95,12.68-8.94,22.13-8.94,8.04,0,14.26,2.2,18.65,6.62,4.34,4.39,6.62,10.68,6.62,18.83,0,4.28-.4,8.11-1.16,11.47h-40.62Zm15.75-26.23c-4.41,0-8.11,1.49-10.89,4.46-2.85,2.98-4.46,7-4.86,12.05h28.77v-.98c0-5.04-1.11-8.87-3.32-11.46-2.25-2.72-5.44-4.08-9.7-4.08h0Zm0,0"/>
    <path class="cls-1" d="M1613.15,632.25l-1.54-6.02c-5.7,4.99-12.25,7.38-19.63,7.38-7.91,0-14.31-2.92-19.03-8.74-4.79-5.9-7.2-13.99-7.2-24.09,0-6.61,1.04-12.43,3.3-17.49,2.21-5.06,5.32-9,9.33-11.85,3.95-2.85,8.8-4.28,14.37-4.28,6.66,0,12.82,2.14,18.27,6.42v-33.42h14.56v92.1h-12.43Zm-16.51-10.1c4.92,0,9.72-1.62,14.39-4.86v-34.2c-4.28-2.98-9-4.46-14.19-4.46s-9.52,1.87-12.24,5.44c-2.65,3.5-3.9,8.87-3.9,16.12,0,14.64,5.32,21.97,15.93,21.97h0Zm0,0"/>
    <path class="cls-1" d="M1695.93,632.25v-73.83h-27.01v-12.43h69.17v12.43h-27.01v73.83h-15.15Zm0,0"/>
    <path class="cls-1" d="M1749.28,632.25v-63.33h14.57v63.33h-14.57Zm7.2-73.83c-2.72,0-4.86-.71-6.42-2.14-1.56-1.56-2.32-3.63-2.32-6.22,0-2.72,.76-4.79,2.32-6.22,1.56-1.56,3.7-2.34,6.42-2.34s5.06,.78,6.6,2.34c1.56,1.43,2.34,3.5,2.34,6.22s-.78,4.66-2.34,6.22c-1.54,1.43-3.81,2.14-6.6,2.14h0Zm0,0"/>
    <path class="cls-1" d="M1792.62,604.08c.25,6.35,2.01,11.01,5.24,13.99,3.37,2.83,8.42,4.26,15.15,4.26,6.22,0,12.88-1.03,20.01-3.3v10.3c-2.85,1.43-6.22,2.65-10.1,3.5-3.9,.91-7.91,1.36-12.05,1.36-10.36,0-18.25-2.79-23.71-8.36-5.44-5.69-8.16-13.98-8.16-24.87s2.6-18.9,7.97-24.87c5.31-5.95,12.68-8.94,22.15-8.94,8.02,0,14.24,2.2,18.65,6.62,4.33,4.39,6.6,10.68,6.6,18.83,0,4.28-.38,8.11-1.16,11.47h-40.6Zm15.73-26.23c-4.41,0-8.09,1.49-10.88,4.46-2.85,2.98-4.48,7-4.86,12.05h28.75v-.98c0-5.04-1.09-8.87-3.3-11.46-2.27-2.72-5.44-4.08-9.72-4.08h0Zm0,0"/>
    <path class="cls-1" d="M1848.57,632.25v-63.33h12.24l1.94,9.52c3.37-3.63,6.48-6.08,9.33-7.58,2.84-1.56,6.02-2.34,9.52-2.34,1.56,0,3.17,.13,5.04,.4v13.4c-2.32-.38-4.73-.58-7.18-.58-6.08,0-11.46,1.56-16.13,4.66v45.86h-14.76Zm0,0"/>
    <path class="cls-1" d="M1459.79,716.95c-6.98-2.72-12.1-5.89-15.34-9.52-3.12-3.75-4.68-8.36-4.68-13.79,0-7.78,2.72-13.93,8.17-18.45,5.44-4.54,12.68-6.8,21.95-6.8,7.64,0,15.4,1.49,23.31,4.46v12.05c-8.09-2.47-15.49-3.7-22.15-3.7-11.01,0-16.51,3.7-16.51,11.08,0,2.85,.98,5.19,2.92,7,2.01,1.81,5.64,3.63,10.68,5.44l10.69,3.88c6.86,2.6,11.85,5.7,14.95,9.33,3.12,3.63,4.66,8.29,4.66,13.99,0,8.29-2.97,14.89-8.94,19.61-5.82,4.79-13.86,7.2-24.09,7.2-4.39,0-8.8-.51-13.21-1.36-4.39-.91-8.29-2.14-11.46-3.7v-12.04c3.95,1.29,8.22,2.32,12.63,3.1,4.53,.78,8.54,1.16,12.04,1.16,5.84,0,10.3-1.03,13.41-3.1,3.17-2.2,4.86-5.24,4.86-9.13,0-2.79-.98-5.11-2.92-7-1.87-1.81-5.12-3.56-9.91-5.44l-11.07-4.28Zm0,0"/>
    <path class="cls-1" d="M1523.98,728.43c.25,6.35,2.01,11.01,5.24,13.99,3.37,2.83,8.42,4.26,15.15,4.26,6.22,0,12.88-1.03,20.01-3.3v10.3c-2.85,1.43-6.22,2.65-10.1,3.5-3.9,.91-7.91,1.36-12.05,1.36-10.36,0-18.25-2.79-23.71-8.36-5.44-5.69-8.16-13.98-8.16-24.87s2.59-18.9,7.97-24.87c5.31-5.95,12.68-8.94,22.15-8.94,8.02,0,14.24,2.2,18.65,6.62,4.33,4.39,6.6,10.68,6.6,18.83,0,4.28-.38,8.11-1.16,11.47h-40.6Zm15.73-26.23c-4.41,0-8.11,1.49-10.89,4.46-2.84,2.98-4.46,7-4.84,12.05h28.75v-.98c0-5.04-1.11-8.87-3.3-11.46-2.27-2.72-5.44-4.08-9.72-4.08h0Zm0,0"/>
    <path class="cls-1" d="M1579.99,756.59v-63.33h12.25l1.94,9.52c3.37-3.63,6.47-6.08,9.32-7.58,2.85-1.56,6.04-2.34,9.53-2.34,1.54,0,3.17,.13,5.04,.4v13.4c-2.32-.38-4.73-.58-7.18-.58-6.1,0-11.47,1.56-16.13,4.66v45.86h-14.77Zm0,0"/>
    <path class="cls-1" d="M1644.5,756.59l-24.67-63.33h15.73l16.13,50.12,16.31-50.12h14.95l-24.29,63.33h-14.18Zm0,0"/>
    <path class="cls-1" d="M1693.32,756.59v-63.33h14.57v63.33h-14.57Zm7.2-73.83c-2.72,0-4.86-.71-6.42-2.14-1.56-1.56-2.32-3.63-2.32-6.22,0-2.72,.76-4.79,2.32-6.22,1.56-1.56,3.7-2.34,6.42-2.34s5.06,.78,6.6,2.34c1.56,1.43,2.34,3.5,2.34,6.22s-.78,4.66-2.34,6.22c-1.54,1.43-3.81,2.14-6.6,2.14h0Zm0,0"/>
    <path class="cls-1" d="M1770.85,754.07c-4.92,2.59-10.74,3.88-17.49,3.88-9.7,0-17.23-2.79-22.53-8.36-5.17-5.7-7.78-13.66-7.78-24.09s2.72-18.85,8.17-24.67c5.44-5.97,13.01-8.94,22.73-8.94,5.89,0,11.46,1.29,16.51,3.68v10.5c-5.57-1.63-10.3-2.52-14.19-2.52-6.22,0-10.81,1.67-13.79,5.04-2.97,3.38-4.46,8.69-4.46,15.75v1.54c0,7,1.49,12.19,4.46,15.55,2.98,3.23,7.58,4.86,13.79,4.86,4.34,0,9.27-.85,14.57-2.52v10.3Zm0,0"/>
    <path class="cls-1" d="M1794.29,728.43c.27,6.35,2.01,11.01,5.26,13.99,3.37,2.83,8.41,4.26,15.15,4.26,6.22,0,12.88-1.03,20.01-3.3v10.3c-2.85,1.43-6.22,2.65-10.11,3.5-3.88,.91-7.89,1.36-12.04,1.36-10.36,0-18.27-2.79-23.71-8.36-5.44-5.69-8.16-13.98-8.16-24.87s2.59-18.9,7.96-24.87c5.32-5.95,12.7-8.94,22.15-8.94,8.04,0,14.26,2.2,18.65,6.62,4.34,4.39,6.62,10.68,6.62,18.83,0,4.28-.4,8.11-1.18,11.47h-40.6Zm15.73-26.23c-4.39,0-8.09,1.49-10.88,4.46-2.85,2.98-4.46,7-4.86,12.05h28.77v-.98c0-5.04-1.11-8.87-3.32-11.46-2.25-2.72-5.44-4.08-9.72-4.08h0Zm0,0"/>
    <path class="cls-1" d="M1878.88,739.5c0-1.82-.58-3.3-1.76-4.48-1.16-1.16-3.3-2.32-6.4-3.5l-10.31-3.88c-9.32-3.63-13.98-9.45-13.98-17.49,0-5.82,2.14-10.36,6.4-13.6,4.41-3.37,10.18-5.06,17.29-5.06s13.21,1.29,18.65,3.9v10.3c-6.33-2.01-12.24-3.12-17.67-3.12-3.76,0-6.55,.58-8.36,1.76-1.87,1.16-2.72,2.9-2.72,5.24,0,1.87,.65,3.3,1.94,4.48,1.23,1.03,3.56,2.25,6.8,3.68l9.72,3.7c4.92,1.94,8.42,4.28,10.69,7,2.2,2.59,3.3,5.95,3.3,9.9,0,6.22-2.27,11.21-6.8,14.77-4.41,3.63-10.63,5.44-18.65,5.44-3.88,0-7.71-.45-11.46-1.36-3.63-.78-6.88-1.94-9.72-3.5v-10.3c7.89,2.65,14.95,3.9,21.17,3.9,4.15,0,7.06-.66,8.94-1.96,1.94-1.23,2.92-3.17,2.92-5.82h0Zm0,0"/>
  </g>
</svg>