<?xml version="1.0" encoding="UTF-8"?>
<svg id="Layer_1" data-name="Layer 1" xmlns="http://www.w3.org/2000/svg" viewBox="0 0 1920 1080">
  <defs>
    <style>
      .cls-1 {
        fill: #fff;
      }
    </style>
  </defs>
  <path class="cls-1" d="M219.11,466.45c0,6.56,0,13.12,3.33,19.57,1.61,4.95,4.84,11.51,6.56,16.35,1.61,1.72,1.61,3.33,1.61,4.95,0,3.23-1.61,4.95-4.95,6.56l-14.73,9.79h-4.84c-3.33,0-4.95-1.61-6.56-3.23-3.23-3.34-6.56-6.56-8.17-9.9-1.61-3.23-4.95-8.17-6.56-13.01-16.35,19.57-39.25,31.08-65.39,31.08-16.35,1.61-32.69-4.95-44.09-16.35-11.51-11.51-16.35-26.24-16.35-42.59,0-17.96,6.56-34.31,19.57-45.71,14.73-11.51,34.31-17.96,53.99-17.96,8.17,0,16.35,0,22.91,1.61,8.17,1.61,16.35,3.23,24.52,4.84v-16.35c1.61-13.01-1.72-26.13-9.9-35.92-9.79-8.17-22.8-11.4-35.92-9.79-8.17,0-16.35,1.61-24.52,3.23-8.17,1.61-16.35,4.95-24.52,8.17-3.23,1.61-4.95,1.61-8.17,3.33h-3.23c-3.33,0-4.95-1.72-4.95-6.56v-11.51c0-3.23,0-4.84,1.61-8.17,1.61-1.61,3.33-3.23,6.56-4.84,8.17-4.95,17.96-8.17,27.75-9.79,11.51-3.33,22.91-4.95,34.42-4.95,21.19-1.61,40.87,4.95,57.22,17.96,13.01,14.73,19.57,34.31,17.96,53.99l4.84,75.18Zm-89.91,32.69c8.17,0,14.73-1.61,22.91-3.23,8.17-3.34,14.73-8.17,21.29-14.73,3.23-3.33,6.56-8.17,8.17-14.73,1.61-6.56,1.61-13.12,1.61-19.57v-9.9c-6.56-1.61-13.12-3.23-19.57-3.23-6.56-1.61-13.12-1.61-21.29-1.61-11.4-1.61-22.91,1.61-32.69,8.17-13.12,13.01-14.73,34.31-3.23,49.04,6.45,8.17,14.63,11.4,22.8,9.79h0Zm178.21,24.52c-3.23,0-6.56,0-8.17-1.61-1.61-1.61-3.23-4.95-4.84-8.17l-52.38-171.65c-1.61-3.33-1.61-6.56-1.61-8.17,0-3.33,1.61-4.95,3.23-4.95h22.91c3.33,0,6.56,0,8.17,1.61,1.61,1.72,3.33,4.95,4.95,8.17l37.53,145.51,34.42-145.51c0-3.23,1.61-6.45,4.84-8.17,3.33-1.61,6.56-1.61,8.17-1.61h17.96c3.33,0,6.56,0,8.17,1.61,1.72,1.72,3.33,4.95,4.95,8.17l34.31,148.85,37.64-148.85c0-3.23,1.61-6.45,4.84-8.17,3.33-1.61,4.95-1.61,8.17-1.61h21.29c3.23,0,4.95,1.61,4.95,3.33v4.84c0,1.61-1.72,3.33-1.72,4.95l-52.27,170.03c0,3.23-1.61,6.45-4.95,8.17-1.61,3.23-4.84,3.23-8.17,3.23h-19.57c-3.23,0-6.56,0-8.17-1.61-1.61-3.33-3.23-4.95-4.95-8.17l-34.31-142.29-34.31,142.29c0,3.23-1.61,6.56-4.95,8.17-1.61,1.61-4.84,1.61-6.45,1.61h-19.68Zm284.46,6.56c-11.4,0-22.91-1.61-34.31-3.33-8.17-1.61-17.96-4.84-26.13-8.17-4.95-1.61-8.17-6.45-8.17-13.01v-11.51c0-4.84,1.61-6.45,4.84-6.45h3.33c1.61,0,3.23,1.61,4.84,1.61,8.17,3.23,16.35,6.56,24.52,8.17,8.17,1.61,17.96,3.23,26.13,3.23,11.51,0,22.91-1.61,32.69-8.17,6.56-4.84,11.51-13.01,11.51-21.19,0-6.56-1.61-11.51-6.56-14.73-6.56-4.95-14.73-9.79-22.91-11.51l-32.69-9.79c-13.01-3.23-26.13-11.4-35.92-22.91-6.56-9.79-11.51-21.19-11.51-32.69,0-8.17,1.72-16.35,6.56-24.52,3.33-6.45,9.79-13.01,16.35-17.96,6.56-4.84,14.73-9.79,22.91-11.4,9.79-3.33,17.96-3.33,27.75-3.33,4.95,0,9.9,0,14.73,1.72,4.95,0,9.79,1.61,14.73,3.23,4.95,1.61,8.17,1.61,13.12,3.23,3.23,1.72,6.45,1.72,9.79,3.33,3.23,1.61,4.84,3.23,6.56,4.84,1.61,1.72,1.61,4.95,1.61,8.17v9.9c0,4.84-1.61,6.45-4.95,6.45s-6.56-1.61-8.17-3.23c-13.01-6.56-27.75-8.17-42.48-8.17-9.79,0-19.57,1.61-29.47,6.56-6.45,3.23-11.4,11.4-9.79,19.57,0,6.56,1.61,11.51,6.56,16.35,6.56,6.56,14.73,9.79,24.52,11.51l31.08,9.79c13.01,3.23,24.52,11.4,34.31,21.19,6.56,8.17,9.79,19.68,9.79,31.08,0,8.17-1.61,17.96-6.56,26.13-3.23,8.17-9.79,14.73-16.35,19.68-6.45,4.84-16.35,9.79-24.52,13.01-6.45,1.72-17.96,3.33-27.75,3.33h0Zm0,0"/>
  <path class="cls-1" d="M632.74,636.48c-73.56,53.88-178.21,81.74-269.73,81.74-120.99,0-238.65-44.2-328.56-125.94-6.56-6.45,0-14.63,8.17-9.79,99.7,58.83,214.13,88.3,328.56,88.3,86.68,0,171.65-17.96,251.77-50.65,11.4-4.95,22.91,8.17,9.79,16.35h0Zm11.4,49.04c-3.23,6.56,3.33,9.79,9.9,4.84,39.15-32.69,49.04-101.31,40.87-111.1-8.17-9.79-76.9-17.96-117.76,11.4-6.56,4.95-4.84,11.51,1.61,9.79,22.91-3.23,75.28-9.79,85.07,3.33,9.79,13.01-11.51,60.44-19.68,81.74h0Zm0,0"/>
  <path class="cls-1" d="M820.95,419.79v54.42h-30.91v-148.37h56.86c13.58-1.22,25.95,3.74,37.09,12.36,18.55,19.77,18.55,49.46,0,69.23-9.84,8.7-23.51,13.58-37.09,12.36h-25.95Zm0-23.51h22.29c6.18,0,12.36-1.22,16.02-6.18,7.4-9.84,7.4-24.73,0-34.57-4.96-3.74-9.84-6.18-16.02-6.18h-22.29v46.94Zm206.46,77.93l-9.84-33.35h-50.68l-9.92,33.35h-33.35l51.9-148.37h35.87l50.68,148.37h-34.65Zm-54.34-56.86h37.09l-18.55-61.82-18.55,61.82Zm133.49,56.86v-148.37h56.86c13.67-1.22,26.03,3.74,37.09,12.36,8.7,8.62,13.67,20.99,13.67,33.35,0,8.7-2.52,16.11-7.48,23.51-4.88,7.4-12.36,12.36-19.77,16.11l37.09,64.26h-33.35l-32.13-58.08h-21.07v56.86h-30.91Zm30.91-80.37h22.29c11.14,1.22,20.99-6.18,22.21-17.33v-6.18c1.3-11.14-6.18-20.99-16.02-22.21h-27.25v45.72h-1.22Zm161.96,80.37v-122.43h-45.72v-25.95h122.43v25.95h-45.8v122.43h-30.91Zm154.56-102.66v102.66h-28.39v-148.37h34.57l60.6,103.88v-103.88h28.47v148.37h-34.65l-60.6-102.66Zm152.12,102.66v-148.37h97.7v24.73h-65.57v34.65h53.2v24.73h-53.2v39.53h65.57v24.73h-97.7Zm154.56,0v-148.37h56.86c13.58-1.22,25.95,3.74,37.09,12.36,8.7,8.62,13.58,20.99,13.58,33.35,0,8.7-2.44,16.11-7.4,23.51-4.96,7.4-12.36,12.36-19.77,16.11l37.09,64.26h-33.35l-32.21-58.08h-20.99v56.86h-30.91Zm30.91-80.37h22.29c11.06,1.22,20.99-6.18,22.21-17.33v-6.18c1.22-11.14-6.18-20.99-16.02-22.21h-28.47v45.72Zm0,0"/>
  <path class="cls-1" d="M1309.48,610.22v-64.15l-22.42,42.7h-13.52l-21.63-42.5v63.95h-13.72v-85.78h16.6l25.9,51.19,26.26-51.19h16.24v85.78h-13.72Zm0,0"/>
  <path class="cls-1" d="M1343.29,610.22v-85.78h15.25v73.41h39.42v12.36h-54.67Zm0,0"/>
  <path class="cls-1" d="M1458.05,570.8c-6.96-2.7-12.05-5.85-15.27-9.46-3.1-3.73-4.65-8.31-4.65-13.72,0-7.73,2.72-13.85,8.13-18.35,5.41-4.52,12.61-6.76,21.83-6.76,7.6,0,15.33,1.48,23.18,4.43v11.99c-8.05-2.46-15.38-3.68-22.03-3.68-10.95,0-16.42,3.68-16.42,11.01,0,2.84,.97,5.16,2.9,6.96,1.99,1.8,5.6,3.61,10.62,5.41l10.63,3.86c6.83,2.59,11.79,5.67,14.87,9.28,3.1,3.61,4.65,8.24,4.65,13.91,0,8.24-2.97,14.8-8.9,19.5-5.79,4.76-13.77,7.15-23.95,7.15-4.37,0-8.75-.51-13.14-1.35-4.37-.91-8.24-2.13-11.39-3.68v-11.97c3.92,1.29,8.18,2.31,12.56,3.08,4.5,.78,8.49,1.15,11.97,1.15,5.8,0,10.24-1.02,13.34-3.08,3.15-2.19,4.83-5.21,4.83-9.08,0-2.77-.97-5.08-2.9-6.96-1.86-1.8-5.08-3.54-9.84-5.41l-11.01-4.25Zm0,0"/>
  <path class="cls-1" d="M1521.87,582.21c.25,6.31,1.99,10.95,5.21,13.91,3.35,2.82,8.38,4.24,15.07,4.24,6.18,0,12.81-1.02,19.9-3.28v10.24c-2.84,1.42-6.18,2.64-10.04,3.48-3.87,.91-7.86,1.35-11.98,1.35-10.3,0-18.15-2.77-23.58-8.31-5.41-5.66-8.11-13.9-8.11-24.73s2.59-18.79,7.93-24.73c5.28-5.92,12.61-8.89,22.03-8.89,7.98,0,14.16,2.19,18.55,6.58,4.3,4.37,6.56,10.62,6.56,18.73,0,4.25-.38,8.06-1.15,11.41h-40.37Zm15.65-26.08c-4.39,0-8.05,1.48-10.81,4.43-2.84,2.97-4.45,6.96-4.83,11.99h28.59v-.97c0-5.01-1.09-8.82-3.28-11.39-2.26-2.7-5.41-4.06-9.66-4.06h0Zm0,0"/>
  <path class="cls-1" d="M1577.51,610.22v-62.98h12.17l1.93,9.46c3.35-3.61,6.45-6.05,9.28-7.53,2.82-1.55,5.98-2.32,9.46-2.32,1.55,0,3.15,.13,5.01,.4v13.32c-2.31-.38-4.7-.58-7.14-.58-6.05,0-11.39,1.55-16.04,4.63v45.6h-14.67Zm0,0"/>
  <path class="cls-1" d="M1641.64,610.22l-24.53-62.98h15.65l16.04,49.84,16.22-49.84h14.89l-24.15,62.98h-14.11Zm0,0"/>
  <path class="cls-1" d="M1690.26,610.22v-62.98h14.49v62.98h-14.49Zm7.15-73.41c-2.7,0-4.83-.71-6.38-2.13-1.53-1.55-2.31-3.61-2.31-6.18,0-2.7,.78-4.76,2.31-6.18,1.55-1.55,3.68-2.32,6.38-2.32s5.03,.77,6.58,2.32c1.53,1.42,2.31,3.48,2.31,6.18s-.77,4.63-2.31,6.18c-1.55,1.42-3.81,2.13-6.58,2.13h0Zm0,0"/>
  <path class="cls-1" d="M1767.28,607.71c-4.9,2.57-10.68,3.86-17.38,3.86-9.66,0-17.13-2.77-22.42-8.31-5.14-5.67-7.72-13.58-7.72-23.95s2.7-18.74,8.11-24.53c5.41-5.93,12.94-8.89,22.6-8.89,5.85,0,11.39,1.29,16.42,3.66v10.44c-5.54-1.62-10.24-2.51-14.11-2.51-6.18,0-10.75,1.67-13.72,5.01-2.95,3.36-4.43,8.64-4.43,15.66v1.53c0,6.96,1.48,12.12,4.43,15.46,2.97,3.21,7.53,4.83,13.72,4.83,4.32,0,9.22-.84,14.49-2.51v10.24Zm0,0"/>
  <path class="cls-1" d="M1790.66,582.21c.26,6.31,1.99,10.95,5.23,13.91,3.35,2.82,8.37,4.24,15.07,4.24,6.18,0,12.81-1.02,19.9-3.28v10.24c-2.84,1.42-6.18,2.64-10.06,3.48-3.86,.91-7.85,1.35-11.97,1.35-10.3,0-18.17-2.77-23.58-8.31-5.41-5.66-8.11-13.9-8.11-24.73s2.57-18.79,7.91-24.73c5.29-5.92,12.63-8.89,22.03-8.89,8,0,14.18,2.19,18.55,6.58,4.32,4.37,6.58,10.62,6.58,18.73,0,4.25-.4,8.06-1.15,11.41h-40.39Zm15.66-26.08c-4.38,0-8.06,1.48-10.83,4.43-2.84,2.97-4.43,6.96-4.83,11.99h28.6v-.97c0-5.01-1.1-8.82-3.3-11.39-2.24-2.7-5.41-4.06-9.64-4.06h0Zm0,0"/>
  <path class="cls-1" d="M1874.71,593.22c0-1.81-.58-3.28-1.73-4.45-1.17-1.15-3.3-2.31-6.38-3.48l-10.24-3.86c-9.28-3.61-13.91-9.4-13.91-17.39,0-5.79,2.13-10.3,6.38-13.52,4.37-3.35,10.11-5.03,17.19-5.03s13.12,1.29,18.55,3.87v10.24c-6.31-2-12.18-3.1-17.59-3.1-3.73,0-6.5,.58-8.31,1.75-1.86,1.15-2.7,2.88-2.7,5.21,0,1.86,.64,3.28,1.93,4.45,1.24,1.02,3.54,2.24,6.78,3.66l9.66,3.68c4.88,1.93,8.36,4.25,10.62,6.96,2.19,2.57,3.28,5.92,3.28,9.84,0,6.18-2.24,11.14-6.76,14.69-4.37,3.61-10.57,5.41-18.55,5.41-3.86,0-7.67-.45-11.39-1.35-3.61-.77-6.83-1.93-9.66-3.48v-10.24c7.85,2.64,14.87,3.87,21.05,3.87,4.12,0,7.02-.66,8.89-1.95,1.93-1.22,2.9-3.15,2.9-5.79h0Zm0,0"/>
  <path class="cls-1" d="M1247.79,731.54c-6.58,2.59-14.05,3.87-22.22,3.87-13.85,0-24.15-3.54-31.11-10.81-6.96-7.35-10.44-18.1-10.44-32.28s3.61-25.75,10.83-33.62c7.2-7.98,17.57-11.97,31.09-11.97,7.42,0,14.31,1.15,20.49,3.48v12.36c-8.13-1.81-14.49-2.7-19.14-2.7-9.27,0-16.16,2.44-20.66,7.34-4.58,4.9-6.78,12.5-6.78,22.6v2.9c0,10.04,2.19,17.51,6.58,22.4,4.5,4.76,11.39,7.15,20.67,7.15,5.08,0,12.03-1.04,20.67-3.1v12.36Zm0,0"/>
  <path class="cls-1" d="M1287.97,735.79c-9.53,0-17-2.95-22.4-8.89-5.41-5.85-8.11-14.1-8.11-24.53s2.7-18.55,8.11-24.35c5.41-5.92,12.88-8.89,22.4-8.89s16.88,2.97,22.22,8.89c5.41,5.8,8.11,13.91,8.11,24.35s-2.7,18.68-8.11,24.53c-5.34,5.93-12.69,8.89-22.22,8.89h0Zm0-11.59c10.44,0,15.65-7.27,15.65-21.83s-5.21-21.83-15.65-21.83-15.65,7.27-15.65,21.83,5.21,21.83,15.65,21.83h0Zm0,0"/>
  <path class="cls-1" d="M1412.59,733.86v-42.7c0-3.73-.77-6.43-2.32-8.11-1.48-1.68-3.79-2.51-7.14-2.51-2.59,0-5.36,.44-8.31,1.35-2.84,.89-5.36,2.06-7.35,3.28v48.68h-14.67v-42.7c0-3.73-.77-6.43-2.32-8.11-1.48-1.68-3.79-2.51-7.15-2.51-2.44,0-5.14,.38-7.91,1.15-2.7,.77-5.34,1.93-7.73,3.48v48.68h-14.67v-62.98h12.17l1.35,6.36c4.12-2.82,7.98-4.88,11.59-6.18,3.74-1.29,7.4-1.93,11.21-1.93,7.6,0,12.81,2.84,15.84,8.51,8.18-5.67,16.09-8.51,23.56-8.51,5.87,0,10.5,1.68,13.72,4.83,3.23,3.1,4.83,7.67,4.83,13.72v46.18h-14.67Zm0,0"/>
  <path class="cls-1" d="M1444.65,759.37v-88.48h12.17l1.35,6.36c2.77-2.7,6-4.7,9.48-5.98,3.59-1.42,7.2-2.13,11.01-2.13,7.78,0,14.1,2.97,18.73,8.89,4.65,5.8,6.96,13.65,6.96,23.38,0,6.71-1.09,12.56-3.28,17.59-2.06,5.01-5.16,9.02-9.28,11.97-3.99,2.84-8.69,4.25-14.1,4.25-3.48,0-6.83-.58-10.04-1.73-3.23-1.24-6-2.97-8.31-5.03v30.91h-14.69Zm29.36-78.82c-5.34,0-10.17,1.53-14.67,4.63v33.81c4.5,3.21,9.33,4.83,14.67,4.83s9.15-1.81,11.59-5.42c2.59-3.53,3.87-9.07,3.87-16.42s-1.29-12.55-3.87-16.02c-2.44-3.54-6.3-5.41-11.59-5.41h0Zm0,0"/>
  <path class="cls-1" d="M1529.14,705.85c.26,6.31,1.99,10.95,5.21,13.91,3.36,2.82,8.37,4.24,15.07,4.24,6.2,0,12.83-1.02,19.92-3.28v10.24c-2.84,1.42-6.18,2.64-10.06,3.48-3.86,.91-7.85,1.35-11.97,1.35-10.3,0-18.17-2.77-23.57-8.31-5.41-5.66-8.11-13.9-8.11-24.73s2.57-18.79,7.91-24.73c5.28-5.92,12.63-8.89,22.03-8.89,7.98,0,14.18,2.19,18.55,6.58,4.32,4.37,6.58,10.62,6.58,18.73,0,4.25-.4,8.06-1.17,11.41h-40.37Zm15.65-26.08c-4.37,0-8.05,1.48-10.81,4.43-2.84,2.97-4.45,6.96-4.83,11.99h28.59v-.97c0-5.01-1.09-8.82-3.28-11.39-2.26-2.7-5.41-4.06-9.66-4.06h0Zm0,0"/>
  <path class="cls-1" d="M1621.17,732.31c-4.25,1.55-8.82,2.32-13.72,2.32-6.56,0-11.46-1.42-14.69-4.45-3.08-3.08-4.63-7.78-4.63-14.1v-34.01h-10.62v-9.27l11.19-1.55,2.13-17.57h11.99v17.19h17.97v11.19h-17.97v33.43c0,2.7,.64,4.76,1.93,5.98,1.42,1.15,3.74,1.73,6.96,1.73,3.48,0,6.63-.25,9.46-.96v10.04Zm0,0"/>
  <path class="cls-1" d="M1643.19,705.85c.26,6.31,1.99,10.95,5.21,13.91,3.36,2.82,8.38,4.24,15.07,4.24,6.18,0,12.83-1.02,19.92-3.28v10.24c-2.84,1.42-6.2,2.64-10.06,3.48-3.86,.91-7.85,1.35-11.97,1.35-10.3,0-18.17-2.77-23.58-8.31-5.41-5.66-8.11-13.9-8.11-24.73s2.57-18.79,7.91-24.73c5.28-5.92,12.63-8.89,22.03-8.89,7.98,0,14.16,2.19,18.55,6.58,4.32,4.37,6.58,10.62,6.58,18.73,0,4.25-.4,8.06-1.17,11.41h-40.37Zm15.65-26.08c-4.37,0-8.05,1.48-10.81,4.43-2.84,2.97-4.45,6.96-4.83,11.99h28.59v-.97c0-5.01-1.09-8.82-3.28-11.39-2.26-2.7-5.41-4.06-9.66-4.06h0Zm0,0"/>
  <path class="cls-1" d="M1740.56,733.86v-41.73c0-3.94-.84-6.89-2.51-8.7-1.68-1.93-4.39-2.88-7.93-2.88-5.41,0-10.95,1.86-16.6,5.41v47.91h-14.69v-62.98h12.17l1.35,6.96c7.8-5.8,15.91-8.7,24.35-8.7,6.05,0,10.62,1.68,13.72,4.83,3.08,3.1,4.63,7.67,4.63,13.72v46.18h-14.49Zm0,0"/>
  <path class="cls-1" d="M1816.74,731.36c-4.9,2.57-10.68,3.86-17.38,3.86-9.66,0-17.13-2.77-22.42-8.31-5.14-5.67-7.72-13.58-7.72-23.95s2.7-18.74,8.11-24.53c5.41-5.93,12.94-8.89,22.6-8.89,5.85,0,11.39,1.29,16.42,3.66v10.44c-5.54-1.62-10.24-2.51-14.11-2.51-6.18,0-10.75,1.66-13.72,5.01-2.95,3.36-4.43,8.64-4.43,15.66v1.53c0,6.96,1.48,12.12,4.43,15.46,2.97,3.21,7.53,4.83,13.72,4.83,4.32,0,9.22-.84,14.49-2.51v10.24Zm0,0"/>
  <path class="cls-1" d="M1846.5,734.64l-24.73-63.75h15.65l16.04,49.84,16.22-49.84h14.89l-28.21,73.02c-2.32,6.07-5.16,10.37-8.31,12.96-3.1,2.7-7.16,4.06-12.17,4.06-3.61,0-7.09-.71-10.25-1.95v-10.24c1.95,.53,3.94,.77,6.18,.77,3.54,0,6.25-.64,7.93-1.93,1.8-1.29,3.54-4.19,5.21-8.69l1.55-4.25Zm0,0"/>
</svg>