<?xml version="1.0" encoding="UTF-8"?>
<svg id="Layer_1" data-name="Layer 1" xmlns="http://www.w3.org/2000/svg" viewBox="0 0 399.02 120">
  <defs>
    <style>
      .cls-1 {
        fill: #fff;
        stroke-width: 0px;
      }
    </style>
  </defs>
  <g>
    <path class="cls-1" d="m171.34,36.92v11.35h-6.45v-30.95h11.86c2.83-.25,5.41.78,7.74,2.58,3.87,4.12,3.87,10.32,0,14.44-2.05,1.82-4.9,2.83-7.74,2.58h-5.41Zm0-4.9h4.65c1.29,0,2.58-.25,3.34-1.29,1.54-2.05,1.54-5.16,0-7.21-1.03-.78-2.05-1.29-3.34-1.29h-4.65v9.79Zm43.06,16.25l-2.05-6.96h-10.57l-2.07,6.96h-6.96l10.82-30.95h7.48l10.57,30.95h-7.23Zm-11.33-11.86h7.74l-3.87-12.89-3.87,12.89Zm27.84,11.86v-30.95h11.86c2.85-.25,5.43.78,7.74,2.58,1.82,1.8,2.85,4.38,2.85,6.96,0,1.82-.53,3.36-1.56,4.9-1.02,1.54-2.58,2.58-4.12,3.36l7.74,13.4h-6.96l-6.7-12.11h-4.39v11.86h-6.45Zm6.45-16.76h4.65c2.32.25,4.38-1.29,4.63-3.61v-1.29c.27-2.32-1.29-4.38-3.34-4.63h-1.03s-4.65,0-4.65,0v9.53h-.25Zm33.78,16.76v-25.53h-9.53v-5.41h25.53v5.41h-9.55v25.53h-6.45Zm32.23-21.41v21.41h-5.92v-30.95h7.21l12.64,21.67v-21.67h5.94v30.95h-7.23l-12.64-21.41Zm31.73,21.41v-30.95h20.38v5.16h-13.67v7.23h11.1v5.16h-11.1v8.25h13.67v5.16h-20.38Zm32.23,0v-30.95h11.86c2.83-.25,5.41.78,7.74,2.58,1.82,1.8,2.83,4.38,2.83,6.96,0,1.82-.51,3.36-1.54,4.9s-2.58,2.58-4.12,3.36l7.74,13.4h-6.96l-6.72-12.11h-4.38v11.86h-6.45Zm6.45-16.76h4.65c2.31.25,4.38-1.29,4.63-3.61v-1.29c.25-2.32-1.29-4.38-3.34-4.63h-1.03s-4.9,0-4.9,0v9.53Zm0,0"/>
    <path class="cls-1" d="m220.31,76.64l-1.49-4.47h-6.85l-1.45,4.47h-3.27l6.49-17.89h3.42l6.49,17.89h-3.35Zm-7.62-6.77h5.4s-2.7-8.26-2.7-8.26l-2.7,8.26Zm0,0"/>
    <path class="cls-1" d="m242.29,76.64v-8.91c0-.78-.16-1.34-.48-1.69-.31-.35-.79-.52-1.49-.52-.54,0-1.12.09-1.73.28-.59.19-1.12.43-1.53.68v10.15s-3.06,0-3.06,0v-8.91c0-.78-.16-1.34-.48-1.69-.31-.35-.79-.52-1.49-.52-.51,0-1.07.08-1.65.24-.56.16-1.11.4-1.61.73v10.15h-3.06s0-13.13,0-13.13h2.54s.28,1.33.28,1.33c.86-.59,1.66-1.02,2.42-1.29.78-.27,1.54-.4,2.34-.4,1.59,0,2.67.59,3.3,1.77,1.71-1.18,3.36-1.77,4.91-1.77,1.22,0,2.19.35,2.86,1.01.67.65,1.01,1.6,1.01,2.86v9.63h-3.06Zm0,0"/>
    <path class="cls-1" d="m256.64,76.64l-.24-1.25c-.63.51-1.29.91-2.01,1.21s-1.45.44-2.17.44c-1.21,0-2.19-.36-2.94-1.09-.73-.73-1.09-1.67-1.09-2.82s.45-2.27,1.37-3.02c.9-.78,2.15-1.17,3.71-1.17.9,0,1.91.13,2.98.4v-1.53c0-.89-.19-1.49-.56-1.82-.39-.33-1.03-.52-1.97-.52-1.34,0-2.89.28-4.63.85v-2.14c.65-.32,1.43-.58,2.34-.77.9-.18,1.84-.28,2.78-.28,1.66,0,2.9.35,3.71,1.05.8.67,1.21,1.73,1.21,3.18v9.27h-2.45Zm-3.59-1.77c.51,0,1.02-.09,1.57-.32.56-.22,1.1-.53,1.61-.93v-2.46c-.91-.18-1.72-.28-2.42-.28-1.8,0-2.7.68-2.7,2.06,0,.63.18,1.11.52,1.45.34.32.82.48,1.41.48h0Zm0,0"/>
    <path class="cls-1" d="m261.77,76.64v-2.26l7.33-8.54h-7.09s0-2.33,0-2.33h10.36s0,2.26,0,2.26l-7.33,8.54h7.41v2.34s-10.68,0-10.68,0Zm0,0"/>
    <path class="cls-1" d="m280.84,77.04c-1.99,0-3.55-.62-4.68-1.85-1.13-1.22-1.69-2.94-1.69-5.12,0-2.18.56-3.87,1.69-5.08,1.13-1.23,2.69-1.85,4.68-1.85s3.52.62,4.63,1.85c1.13,1.21,1.69,2.9,1.69,5.08s-.56,3.9-1.69,5.12c-1.11,1.24-2.64,1.85-4.63,1.85h0Zm0-2.42c2.17,0,3.26-1.52,3.26-4.55s-1.09-4.55-3.26-4.55-3.27,1.52-3.27,4.55,1.09,4.55,3.27,4.55h0Zm0,0"/>
    <path class="cls-1" d="m298.92,76.64v-8.7c0-.82-.17-1.44-.52-1.82-.35-.4-.91-.6-1.65-.6-1.13,0-2.28.39-3.47,1.13v9.99h-3.06v-13.13h2.54l.28,1.45c1.62-1.21,3.31-1.82,5.08-1.82,1.26,0,2.22.35,2.86,1.01.65.65.97,1.6.97,2.86v9.63h-3.02Zm0,0"/>
    <path class="cls-1" d="m312.59,76.64v-17.89h3.18v7.9l6.97-7.9h3.63s-7.62,8.46-7.62,8.46l8.38,9.43h-3.91s-7.45-8.5-7.45-8.5v8.5s-3.18,0-3.18,0Zm0,0"/>
    <path class="cls-1" d="m329.1,76.64v-13.13h3.02v13.13h-3.02Zm1.49-15.31c-.56,0-1.01-.15-1.33-.44-.32-.32-.48-.75-.48-1.29,0-.56.16-.99.48-1.29.32-.32.76-.48,1.33-.48s1.05.16,1.37.48c.32.3.48.73.48,1.29s-.16.97-.48,1.29c-.32.3-.79.44-1.37.44h0Zm0,0"/>
    <path class="cls-1" d="m344.64,76.64v-8.7c0-.82-.17-1.44-.52-1.82-.35-.4-.91-.6-1.65-.6-1.13,0-2.29.39-3.47,1.13v9.99h-3.06s0-13.13,0-13.13h2.54s.28,1.45.28,1.45c1.63-1.21,3.32-1.82,5.08-1.82,1.26,0,2.22.35,2.86,1.01.64.65.97,1.6.97,2.86v9.63s-3.02,0-3.02,0Zm0,0"/>
    <path class="cls-1" d="m353.45,70.8c.05,1.32.42,2.28,1.09,2.9.7.59,1.75.88,3.14.88,1.29,0,2.68-.21,4.15-.68v2.14c-.59.3-1.29.55-2.09.73-.8.19-1.64.28-2.5.28-2.15,0-3.79-.58-4.91-1.73-1.13-1.18-1.69-2.9-1.69-5.16s.54-3.92,1.65-5.16c1.1-1.23,2.63-1.85,4.59-1.85,1.66,0,2.95.46,3.87,1.37.9.91,1.37,2.21,1.37,3.91,0,.89-.08,1.68-.24,2.38h-8.42Zm3.26-5.44c-.91,0-1.68.31-2.26.92-.59.62-.93,1.45-1.01,2.5h5.96v-.2c0-1.05-.23-1.84-.68-2.38-.47-.56-1.13-.85-2.01-.85h0Zm0,0"/>
    <path class="cls-1" d="m370.98,73.09c0-.38-.12-.68-.36-.93-.24-.24-.68-.48-1.33-.73l-2.14-.8c-1.93-.75-2.9-1.96-2.9-3.63s.44-2.15,1.33-2.82c.91-.7,2.11-1.05,3.59-1.05,1.45,0,2.74.27,3.87.81v2.14c-1.32-.42-2.54-.65-3.67-.65-.78,0-1.36.12-1.73.36-.39.24-.56.6-.56,1.09,0,.39.13.68.4.93.25.21.74.47,1.41.76l2.01.77c1.02.4,1.75.89,2.22,1.45.45.54.68,1.23.68,2.05,0,1.29-.47,2.32-1.41,3.06-.91.75-2.2,1.13-3.87,1.13-.81,0-1.6-.09-2.38-.28-.75-.16-1.42-.4-2.01-.73v-2.14c1.64.55,3.1.81,4.39.81.86,0,1.46-.14,1.85-.41.4-.25.61-.66.61-1.21h0Zm0,0"/>
    <path class="cls-1" d="m376.44,76.64v-13.13h3.02v13.13h-3.02Zm1.49-15.31c-.56,0-1.01-.15-1.33-.44-.32-.32-.48-.75-.48-1.29,0-.56.16-.99.48-1.29.32-.32.77-.48,1.33-.48s1.05.16,1.37.48c.32.3.48.73.48,1.29s-.16.97-.48,1.29c-.32.3-.79.44-1.37.44h0Zm0,0"/>
    <path class="cls-1" d="m389.21,73.09c0-.38-.12-.68-.36-.93-.24-.24-.68-.48-1.33-.73l-2.14-.8c-1.94-.75-2.9-1.96-2.9-3.63,0-1.21.44-2.15,1.33-2.82.91-.7,2.11-1.05,3.59-1.05s2.74.27,3.87.81v2.14c-1.32-.42-2.54-.65-3.67-.65-.78,0-1.35.12-1.73.36-.39.24-.57.6-.57,1.09,0,.39.14.68.41.93.25.21.74.47,1.41.76l2.01.77c1.02.4,1.75.89,2.21,1.45.46.54.68,1.23.68,2.05,0,1.29-.47,2.32-1.41,3.06-.91.75-2.2,1.13-3.87,1.13-.8,0-1.6-.09-2.38-.28-.75-.16-1.42-.4-2.01-.73v-2.14c1.64.55,3.1.81,4.39.81.86,0,1.46-.14,1.85-.41.41-.25.61-.66.61-1.21h0Zm0,0"/>
    <path class="cls-1" d="m299.43,102.43v-17.89h6.12c2.66,0,4.69.77,6.09,2.3,1.4,1.53,2.09,3.73,2.09,6.61s-.71,5.13-2.14,6.69c-1.44,1.53-3.45,2.3-6.04,2.3h-6.12Zm3.18-15.39v12.94h2.58c3.57,0,5.36-2.07,5.36-6.21v-.56c0-4.11-1.78-6.16-5.36-6.16h-2.58Zm0,0"/>
    <path class="cls-1" d="m319.06,96.58c.05,1.32.42,2.28,1.09,2.9.7.59,1.75.88,3.14.88,1.29,0,2.67-.21,4.15-.68v2.14c-.59.3-1.29.55-2.09.73-.8.19-1.64.28-2.5.28-2.15,0-3.79-.58-4.91-1.73-1.13-1.18-1.69-2.9-1.69-5.16s.54-3.92,1.65-5.16c1.1-1.23,2.63-1.85,4.59-1.85,1.66,0,2.95.46,3.87,1.37.9.91,1.37,2.21,1.37,3.91,0,.89-.08,1.68-.24,2.38h-8.42Zm3.26-5.44c-.91,0-1.68.31-2.26.92-.59.62-.93,1.45-1.01,2.5h5.96v-.2c0-1.05-.23-1.84-.68-2.38-.47-.56-1.13-.85-2.01-.85h0Zm0,0"/>
    <path class="cls-1" d="m335.79,102.22c-.62.24-1.29.36-2.01.36-1.02,0-1.8-.28-2.33-.85-.51-.59-.77-1.42-.77-2.54v-15.87h3.06v15.63c0,.43.08.74.24.93.16.19.42.28.8.28.3,0,.63-.01,1.01-.08v2.14Zm0,0"/>
    <path class="cls-1" d="m338.55,102.43v-13.13h3.02s0,13.13,0,13.13h-3.02Zm1.49-15.31c-.56,0-1.01-.15-1.33-.44-.32-.32-.48-.75-.48-1.29,0-.56.16-.99.48-1.29.32-.32.76-.48,1.33-.48s1.05.16,1.37.48c.32.3.48.73.48,1.29s-.16.97-.48,1.29c-.32.3-.79.44-1.37.44h0Zm0,0"/>
    <path class="cls-1" d="m348.83,102.43l-5.12-13.13h3.26l3.35,10.39,3.38-10.39h3.1l-5.03,13.13h-2.94Zm0,0"/>
    <path class="cls-1" d="m360.97,96.58c.05,1.32.42,2.28,1.09,2.9.7.59,1.75.88,3.14.88,1.29,0,2.67-.21,4.15-.68v2.14c-.59.3-1.29.55-2.1.73-.8.19-1.64.28-2.5.28-2.15,0-3.79-.58-4.92-1.73-1.13-1.18-1.69-2.9-1.69-5.16s.54-3.92,1.65-5.16c1.1-1.23,2.63-1.85,4.59-1.85,1.67,0,2.96.46,3.87,1.37.9.91,1.37,2.21,1.37,3.91,0,.89-.08,1.68-.24,2.38h-8.42Zm3.27-5.44c-.91,0-1.68.31-2.26.92-.59.62-.92,1.45-1.01,2.5h5.97s0-.2,0-.2c0-1.05-.23-1.84-.69-2.38-.47-.56-1.13-.85-2.01-.85h0Zm0,0"/>
    <path class="cls-1" d="m372.57,102.43v-13.13h2.54l.4,1.97c.7-.75,1.34-1.26,1.93-1.57.59-.32,1.25-.48,1.98-.48.32,0,.66.03,1.05.08v2.78c-.48-.08-.98-.12-1.49-.12-1.27,0-2.38.32-3.35.97v9.51h-3.06Zm0,0"/>
    <path class="cls-1" d="m385.99,102.59l-5.16-13.3h3.26l3.35,10.39,3.38-10.39h3.1l-5.88,15.23c-.48,1.27-1.07,2.16-1.73,2.7-.64.56-1.49.85-2.54.85-.75,0-1.48-.15-2.14-.41v-2.14c.4.11.82.16,1.29.16.74,0,1.3-.13,1.65-.4.37-.27.74-.87,1.09-1.81l.32-.89Zm0,0"/>
  </g>
  <g>
    <path class="cls-1" d="m46.47,47.57c0,1.35,0,2.69.68,4.02.33,1.02.99,2.36,1.35,3.35.33.35.33.68.33,1.02,0,.66-.33,1.02-1.02,1.35l-3.02,2.01h-.99c-.68,0-1.02-.33-1.35-.66-.66-.68-1.35-1.35-1.68-2.03-.33-.66-1.02-1.68-1.35-2.67-3.35,4.02-8.05,6.38-13.42,6.38-3.35.33-6.71-1.02-9.05-3.35-2.36-2.36-3.35-5.38-3.35-8.74,0-3.69,1.35-7.04,4.02-9.38,3.02-2.36,7.04-3.68,11.08-3.68,1.68,0,3.35,0,4.7.33l5.03.99v-3.35c.33-2.67-.35-5.36-2.03-7.37-2.01-1.68-4.68-2.34-7.37-2.01-1.68,0-3.35.33-5.03.66s-3.35,1.02-5.03,1.68c-.66.33-1.02.33-1.68.68h-.66c-.68,0-1.02-.35-1.02-1.35v-2.36c0-.66,0-.99.33-1.68.33-.33.68-.66,1.35-.99,1.68-1.02,3.69-1.68,5.69-2.01,2.36-.68,4.7-1.02,7.06-1.02,4.35-.33,8.39,1.02,11.74,3.69,2.67,3.02,4.02,7.04,3.69,11.08l.99,15.42Zm-18.45,6.71c1.68,0,3.02-.33,4.7-.66,1.68-.68,3.02-1.68,4.37-3.02.66-.68,1.35-1.68,1.68-3.02s.33-2.69.33-4.02v-2.03c-1.35-.33-2.69-.66-4.02-.66-1.35-.33-2.69-.33-4.37-.33-2.34-.33-4.7.33-6.71,1.68-2.69,2.67-3.02,7.04-.66,10.06,1.32,1.68,3,2.34,4.68,2.01h0Zm36.56,5.03c-.66,0-1.35,0-1.68-.33-.33-.33-.66-1.02-.99-1.68l-10.75-35.22c-.33-.68-.33-1.35-.33-1.68,0-.68.33-1.02.66-1.02h4.7c.68,0,1.35,0,1.68.33.33.35.68,1.02,1.02,1.68l7.7,29.86,7.06-29.86c0-.66.33-1.32.99-1.68.68-.33,1.35-.33,1.68-.33h3.69c.68,0,1.35,0,1.68.33.35.35.68,1.02,1.02,1.68l7.04,30.54,7.72-30.54c0-.66.33-1.32.99-1.68.68-.33,1.02-.33,1.68-.33h4.37c.66,0,1.02.33,1.02.68v.99c0,.33-.35.68-.35,1.02l-10.72,34.89c0,.66-.33,1.32-1.02,1.68-.33.66-.99.66-1.68.66h-4.02c-.66,0-1.35,0-1.68-.33-.33-.68-.66-1.02-1.02-1.68l-7.04-29.19-7.04,29.19c0,.66-.33,1.35-1.02,1.68-.33.33-.99.33-1.32.33h-4.04Zm58.37,1.35c-2.34,0-4.7-.33-7.04-.68-1.68-.33-3.69-.99-5.36-1.68-1.02-.33-1.68-1.32-1.68-2.67v-2.36c0-.99.33-1.32.99-1.32h.68c.33,0,.66.33.99.33,1.68.66,3.35,1.35,5.03,1.68,1.68.33,3.69.66,5.36.66,2.36,0,4.7-.33,6.71-1.68,1.35-.99,2.36-2.67,2.36-4.35,0-1.35-.33-2.36-1.35-3.02-1.35-1.02-3.02-2.01-4.7-2.36l-6.71-2.01c-2.67-.66-5.36-2.34-7.37-4.7-1.35-2.01-2.36-4.35-2.36-6.71,0-1.68.35-3.35,1.35-5.03.68-1.32,2.01-2.67,3.35-3.69,1.35-.99,3.02-2.01,4.7-2.34,2.01-.68,3.69-.68,5.69-.68,1.02,0,2.03,0,3.02.35,1.02,0,2.01.33,3.02.66s1.68.33,2.69.66c.66.35,1.32.35,2.01.68.66.33.99.66,1.35.99.33.35.33,1.02.33,1.68v2.03c0,.99-.33,1.32-1.02,1.32s-1.35-.33-1.68-.66c-2.67-1.35-5.69-1.68-8.72-1.68-2.01,0-4.02.33-6.05,1.35-1.32.66-2.34,2.34-2.01,4.02,0,1.35.33,2.36,1.35,3.35,1.35,1.35,3.02,2.01,5.03,2.36l6.38,2.01c2.67.66,5.03,2.34,7.04,4.35,1.35,1.68,2.01,4.04,2.01,6.38,0,1.68-.33,3.69-1.35,5.36-.66,1.68-2.01,3.02-3.35,4.04-1.32.99-3.35,2.01-5.03,2.67-1.32.35-3.69.68-5.69.68h0Zm0,0"/>
    <path class="cls-1" d="m131.34,82.45c-15.09,11.06-36.56,16.77-55.34,16.77-24.83,0-48.97-9.07-67.41-25.84-1.35-1.32,0-3,1.68-2.01,20.46,12.07,43.94,18.12,67.41,18.12,17.79,0,35.22-3.69,51.66-10.39,2.34-1.02,4.7,1.68,2.01,3.35h0Zm2.34,10.06c-.66,1.35.68,2.01,2.03.99,8.03-6.71,10.06-20.79,8.39-22.79-1.68-2.01-15.78-3.68-24.16,2.34-1.35,1.02-.99,2.36.33,2.01,4.7-.66,15.45-2.01,17.45.68,2.01,2.67-2.36,12.4-4.04,16.77h0Zm0,0"/>
  </g>
</svg>