<?xml version="1.0" encoding="UTF-8"?>
<svg id="Layer_1" data-name="Layer 1" xmlns="http://www.w3.org/2000/svg" viewBox="0 0 399.02 120">
  <defs>
    <style>
      .cls-1 {
        fill: #fff;
        stroke-width: 0px;
      }
    </style>
  </defs>
  <g>
    <path class="cls-1" d="m46.86,45.97c0,1.35,0,2.69.68,4.02.33,1.02.99,2.36,1.35,3.35.33.35.33.68.33,1.02,0,.66-.33,1.02-1.02,1.35l-3.02,2.01h-.99c-.68,0-1.02-.33-1.35-.66-.66-.68-1.35-1.35-1.68-2.03-.33-.66-1.02-1.68-1.35-2.67-3.35,4.02-8.05,6.38-13.42,6.38-3.35.33-6.71-1.02-9.05-3.35-2.36-2.36-3.35-5.38-3.35-8.74,0-3.69,1.35-7.04,4.02-9.38,3.02-2.36,7.04-3.68,11.08-3.68,1.68,0,3.35,0,4.7.33l5.03.99v-3.35c.33-2.67-.35-5.36-2.03-7.37-2.01-1.68-4.68-2.34-7.37-2.01-1.68,0-3.35.33-5.03.66s-3.35,1.02-5.03,1.68c-.66.33-1.02.33-1.68.68h-.66c-.68,0-1.02-.35-1.02-1.35v-2.36c0-.66,0-.99.33-1.68.33-.33.68-.66,1.35-.99,1.68-1.02,3.69-1.68,5.69-2.01,2.36-.68,4.7-1.02,7.06-1.02,4.35-.33,8.39,1.02,11.74,3.69,2.67,3.02,4.02,7.04,3.69,11.08l.99,15.42Zm-18.45,6.71c1.68,0,3.02-.33,4.7-.66,1.68-.68,3.02-1.68,4.37-3.02.66-.68,1.35-1.68,1.68-3.02s.33-2.69.33-4.02v-2.03c-1.35-.33-2.69-.66-4.02-.66-1.35-.33-2.69-.33-4.37-.33-2.34-.33-4.7.33-6.71,1.68-2.69,2.67-3.02,7.04-.66,10.06,1.32,1.68,3,2.34,4.68,2.01h0Zm36.56,5.03c-.66,0-1.35,0-1.68-.33-.33-.33-.66-1.02-.99-1.68l-10.75-35.22c-.33-.68-.33-1.35-.33-1.68,0-.68.33-1.02.66-1.02h4.7c.68,0,1.35,0,1.68.33.33.35.68,1.02,1.02,1.68l7.7,29.86,7.06-29.86c0-.66.33-1.32.99-1.68.68-.33,1.35-.33,1.68-.33h3.69c.68,0,1.35,0,1.68.33.35.35.68,1.02,1.02,1.68l7.04,30.54,7.72-30.54c0-.66.33-1.32.99-1.68.68-.33,1.02-.33,1.68-.33h4.37c.66,0,1.02.33,1.02.68v.99c0,.33-.35.68-.35,1.02l-10.72,34.89c0,.66-.33,1.32-1.02,1.68-.33.66-.99.66-1.68.66h-4.02c-.66,0-1.35,0-1.68-.33-.33-.68-.66-1.02-1.02-1.68l-7.04-29.19-7.04,29.19c0,.66-.33,1.35-1.02,1.68-.33.33-.99.33-1.32.33h-4.04Zm58.37,1.35c-2.34,0-4.7-.33-7.04-.68-1.68-.33-3.69-.99-5.36-1.68-1.02-.33-1.68-1.32-1.68-2.67v-2.36c0-.99.33-1.32.99-1.32h.68c.33,0,.66.33.99.33,1.68.66,3.35,1.35,5.03,1.68,1.68.33,3.69.66,5.36.66,2.36,0,4.7-.33,6.71-1.68,1.35-.99,2.36-2.67,2.36-4.35,0-1.35-.33-2.36-1.35-3.02-1.35-1.02-3.02-2.01-4.7-2.36l-6.71-2.01c-2.67-.66-5.36-2.34-7.37-4.7-1.35-2.01-2.36-4.35-2.36-6.71,0-1.68.35-3.35,1.35-5.03.68-1.32,2.01-2.67,3.35-3.69,1.35-.99,3.02-2.01,4.7-2.34,2.01-.68,3.69-.68,5.69-.68,1.02,0,2.03,0,3.02.35,1.02,0,2.01.33,3.02.66s1.68.33,2.69.66c.66.35,1.32.35,2.01.68.66.33.99.66,1.35.99.33.35.33,1.02.33,1.68v2.03c0,.99-.33,1.32-1.02,1.32s-1.35-.33-1.68-.66c-2.67-1.35-5.69-1.68-8.72-1.68-2.01,0-4.02.33-6.05,1.35-1.32.66-2.34,2.34-2.01,4.02,0,1.35.33,2.36,1.35,3.35,1.35,1.35,3.02,2.01,5.03,2.36l6.38,2.01c2.67.66,5.03,2.34,7.04,4.35,1.35,1.68,2.01,4.04,2.01,6.38,0,1.68-.33,3.69-1.35,5.36-.66,1.68-2.01,3.02-3.35,4.04-1.32.99-3.35,2.01-5.03,2.67-1.32.35-3.69.68-5.69.68h0Zm0,0"/>
    <path class="cls-1" d="m131.73,80.85c-15.09,11.06-36.56,16.77-55.34,16.77-24.83,0-48.97-9.07-67.41-25.84-1.35-1.32,0-3,1.68-2.01,20.46,12.07,43.94,18.12,67.41,18.12,17.79,0,35.22-3.69,51.66-10.39,2.34-1.02,4.7,1.68,2.01,3.35h0Zm2.34,10.06c-.66,1.35.68,2.01,2.03.99,8.03-6.71,10.06-20.79,8.39-22.79-1.68-2.01-15.78-3.68-24.16,2.34-1.35,1.02-.99,2.36.33,2.01,4.7-.66,15.45-2.01,17.45.68,2.01,2.67-2.36,12.4-4.04,16.77h0Zm0,0"/>
  </g>
  <g>
    <path class="cls-1" d="m171.73,36.34v11.35h-6.45v-30.95h11.86c2.83-.25,5.41.78,7.74,2.58,3.87,4.12,3.87,10.32,0,14.44-2.05,1.82-4.9,2.83-7.74,2.58h-5.41Zm0-4.9h4.65c1.29,0,2.58-.25,3.34-1.29,1.54-2.05,1.54-5.16,0-7.21-1.03-.78-2.05-1.29-3.34-1.29h-4.65v9.79Zm43.06,16.25l-2.05-6.96h-10.57l-2.07,6.96h-6.96l10.82-30.95h7.48l10.57,30.95h-7.23Zm-11.33-11.86h7.74l-3.87-12.89-3.87,12.89Zm27.84,11.86v-30.95h11.86c2.85-.25,5.43.78,7.74,2.58,1.82,1.8,2.85,4.38,2.85,6.96,0,1.82-.53,3.36-1.56,4.9-1.02,1.54-2.58,2.58-4.12,3.36l7.74,13.4h-6.96l-6.7-12.11h-4.39v11.86h-6.45Zm6.45-16.76h4.65c2.32.25,4.38-1.29,4.63-3.61v-1.29c.27-2.32-1.29-4.38-3.34-4.63h-5.68v9.53h-.25Zm33.78,16.76v-25.53h-9.53v-5.41h25.53v5.41h-9.55v25.53h-6.45Zm32.23-21.41v21.41h-5.92v-30.95h7.21l12.64,21.67v-21.67h5.94v30.95h-7.23l-12.64-21.41Zm31.73,21.41v-30.95h20.38v5.16h-13.67v7.23h11.1v5.16h-11.1v8.25h13.67v5.16h-20.38Zm32.23,0v-30.95h11.86c2.83-.25,5.41.78,7.74,2.58,1.82,1.8,2.83,4.38,2.83,6.96,0,1.82-.51,3.36-1.54,4.9s-2.58,2.58-4.12,3.36l7.74,13.4h-6.96l-6.72-12.11h-4.38v11.86h-6.45Zm6.45-16.76h4.65c2.31.25,4.38-1.29,4.63-3.61v-1.29c.25-2.32-1.29-4.38-3.34-4.63h-5.94v9.53Zm0,0"/>
    <path class="cls-1" d="m202.92,76.06v-17.89h6.12c2.66,0,4.69.77,6.09,2.3,1.4,1.53,2.09,3.73,2.09,6.61s-.71,5.13-2.14,6.69c-1.44,1.53-3.45,2.3-6.04,2.3h-6.12Zm3.18-15.39v12.94h2.58c3.57,0,5.36-2.07,5.36-6.21v-.56c0-4.11-1.79-6.16-5.36-6.16h-2.58Zm0,0"/>
    <path class="cls-1" d="m222.56,70.22c.05,1.32.42,2.28,1.09,2.9.7.59,1.74.88,3.14.88,1.29,0,2.67-.21,4.15-.68v2.14c-.59.3-1.29.55-2.1.73-.8.19-1.64.28-2.5.28-2.15,0-3.79-.58-4.92-1.73-1.13-1.18-1.69-2.9-1.69-5.16s.54-3.92,1.65-5.16c1.1-1.23,2.63-1.85,4.59-1.85,1.67,0,2.96.46,3.87,1.37.9.91,1.37,2.21,1.37,3.91,0,.89-.08,1.68-.24,2.38h-8.42Zm3.26-5.44c-.91,0-1.68.31-2.26.92-.59.62-.92,1.45-1.01,2.5h5.97v-.2c0-1.05-.23-1.84-.69-2.38-.47-.56-1.13-.85-2.01-.85h0Zm0,0"/>
    <path class="cls-1" d="m237.6,76.06l-5.12-13.13h3.26l3.35,10.39,3.38-10.39h3.1l-5.03,13.13h-2.94Zm0,0"/>
    <path class="cls-1" d="m250.31,67.15c0,2.18.44,3.84,1.33,5,.9,1.16,2.25,1.73,3.99,1.73s3.08-.58,3.99-1.73c.9-1.16,1.37-2.82,1.37-5s-.47-3.87-1.37-5c-.91-1.16-2.25-1.73-3.99-1.73s-3.09.58-3.99,1.73c-.89,1.13-1.33,2.8-1.33,5h0Zm-3.22,0c0-1.91.34-3.56,1.01-4.95.66-1.42,1.65-2.51,2.94-3.26,1.29-.78,2.82-1.17,4.59-1.17s3.2.39,4.47,1.13c1.29.73,2.27,1.8,2.98,3.22.73,1.4,1.09,3.08,1.09,5.04s-.35,3.53-1.01,4.96c-.67,1.4-1.65,2.48-2.94,3.26-1.29.74-2.82,1.13-4.59,1.13s-3.22-.36-4.51-1.09c-1.26-.74-2.26-1.83-2.98-3.22-.7-1.42-1.05-3.1-1.05-5.04h0Zm0,0"/>
    <path class="cls-1" d="m267.37,81.38v-18.45h2.54l.28,1.33c.58-.56,1.25-.98,1.97-1.25.75-.3,1.5-.44,2.3-.44,1.63,0,2.94.62,3.91,1.85.97,1.21,1.45,2.85,1.45,4.88,0,1.4-.23,2.62-.68,3.67-.43,1.05-1.07,1.88-1.93,2.5-.83.59-1.82.89-2.94.89-.73,0-1.42-.12-2.09-.36-.67-.26-1.25-.62-1.73-1.05v6.45h-3.06Zm6.13-16.44c-1.12,0-2.12.32-3.06.97v7.05c.94.67,1.95,1.01,3.06,1.01s1.9-.38,2.42-1.13c.54-.74.8-1.89.8-3.42s-.27-2.62-.8-3.34c-.51-.74-1.32-1.13-2.42-1.13h0Zm0,0"/>
    <path class="cls-1" d="m288.79,72.51c0-.38-.12-.68-.36-.93-.24-.24-.68-.48-1.33-.73l-2.14-.8c-1.94-.75-2.9-1.96-2.9-3.63,0-1.21.44-2.15,1.33-2.82.91-.7,2.11-1.05,3.59-1.05s2.74.27,3.87.81v2.14c-1.32-.42-2.54-.65-3.67-.65-.78,0-1.35.12-1.73.36-.39.24-.56.6-.56,1.09,0,.39.13.68.4.93.26.21.74.47,1.41.76l2.01.77c1.02.4,1.75.89,2.22,1.45.46.54.68,1.23.68,2.05,0,1.29-.47,2.32-1.41,3.06-.91.75-2.2,1.13-3.87,1.13-.8,0-1.6-.09-2.38-.28-.75-.16-1.42-.4-2.01-.73v-2.14c1.64.55,3.1.81,4.39.81.86,0,1.46-.14,1.85-.41.4-.25.61-.66.61-1.21h0Zm0,0"/>
    <path class="cls-1" d="m304.6,67.84c-1.45-.56-2.51-1.22-3.18-1.97-.65-.78-.97-1.73-.97-2.86,0-1.61.57-2.89,1.7-3.83,1.13-.94,2.63-1.41,4.55-1.41,1.59,0,3.2.31,4.83.92v2.5c-1.68-.51-3.21-.77-4.59-.77-2.28,0-3.42.77-3.42,2.3,0,.59.2,1.08.61,1.45.42.37,1.17.75,2.21,1.13l2.22.8c1.42.54,2.46,1.18,3.1,1.94.65.75.97,1.72.97,2.9,0,1.72-.62,3.09-1.86,4.07-1.21.99-2.87,1.49-5,1.49-.91,0-1.83-.11-2.74-.28-.91-.19-1.72-.44-2.38-.77v-2.5c.82.27,1.71.48,2.62.64.94.16,1.77.24,2.5.24,1.21,0,2.14-.21,2.78-.64.66-.46,1.01-1.09,1.01-1.89,0-.58-.2-1.06-.61-1.45-.39-.37-1.06-.74-2.05-1.13l-2.3-.89Zm0,0"/>
    <path class="cls-1" d="m317.91,70.22c.05,1.32.42,2.28,1.09,2.9.7.59,1.75.88,3.14.88,1.29,0,2.67-.21,4.15-.68v2.14c-.59.3-1.29.55-2.09.73-.81.19-1.64.28-2.5.28-2.15,0-3.79-.58-4.92-1.73-1.13-1.18-1.69-2.9-1.69-5.16s.54-3.92,1.65-5.16c1.1-1.23,2.63-1.85,4.59-1.85,1.66,0,2.95.46,3.87,1.37.9.91,1.37,2.21,1.37,3.91,0,.89-.08,1.68-.24,2.38h-8.42Zm3.26-5.44c-.91,0-1.68.31-2.26.92-.59.62-.93,1.45-1.01,2.5h5.96v-.2c0-1.05-.23-1.84-.68-2.38-.47-.56-1.13-.85-2.01-.85h0Zm0,0"/>
    <path class="cls-1" d="m329.51,76.06v-13.13h2.54l.4,1.97c.7-.75,1.34-1.26,1.94-1.57.59-.32,1.25-.48,1.97-.48.32,0,.66.03,1.05.08v2.78c-.48-.08-.98-.12-1.49-.12-1.26,0-2.38.32-3.35.97v9.51h-3.06Zm0,0"/>
    <path class="cls-1" d="m342.89,76.06l-5.12-13.13h3.26l3.35,10.39,3.38-10.39h3.1l-5.04,13.13h-2.94Zm0,0"/>
    <path class="cls-1" d="m353.02,76.06v-13.13h3.02v13.13h-3.02Zm1.49-15.31c-.56,0-1.01-.15-1.33-.44-.32-.32-.48-.75-.48-1.29,0-.56.16-.99.48-1.29.32-.32.77-.48,1.33-.48s1.05.16,1.37.48c.32.3.48.73.48,1.29s-.16.97-.48,1.29c-.32.3-.79.44-1.37.44h0Zm0,0"/>
    <path class="cls-1" d="m369.09,75.54c-1.02.54-2.23.8-3.62.8-2.01,0-3.57-.58-4.68-1.73-1.07-1.18-1.61-2.83-1.61-5s.56-3.91,1.69-5.12c1.13-1.24,2.7-1.85,4.71-1.85,1.22,0,2.38.27,3.42.76v2.18c-1.16-.34-2.14-.52-2.94-.52-1.29,0-2.24.35-2.86,1.05-.62.7-.92,1.8-.92,3.27v.32c0,1.45.31,2.53.92,3.23.62.67,1.57,1.01,2.86,1.01.9,0,1.92-.18,3.02-.52v2.14Zm0,0"/>
    <path class="cls-1" d="m373.97,70.22c.06,1.32.42,2.28,1.09,2.9.7.59,1.75.88,3.14.88,1.29,0,2.67-.21,4.15-.68v2.14c-.59.3-1.29.55-2.1.73-.8.19-1.64.28-2.5.28-2.15,0-3.79-.58-4.92-1.73-1.13-1.18-1.69-2.9-1.69-5.16s.54-3.92,1.65-5.16c1.1-1.23,2.63-1.85,4.59-1.85,1.67,0,2.96.46,3.87,1.37.9.91,1.37,2.21,1.37,3.91,0,.89-.08,1.68-.24,2.38h-8.42Zm3.27-5.44c-.91,0-1.68.31-2.26.92-.59.62-.92,1.45-1.01,2.5h5.97v-.2c0-1.05-.23-1.84-.69-2.38-.47-.56-1.13-.85-2.01-.85h0Zm0,0"/>
    <path class="cls-1" d="m391.5,72.51c0-.38-.12-.68-.36-.93-.24-.24-.69-.48-1.33-.73l-2.14-.8c-1.94-.75-2.9-1.96-2.9-3.63,0-1.21.44-2.15,1.33-2.82.91-.7,2.11-1.05,3.59-1.05s2.74.27,3.87.81v2.14c-1.32-.42-2.54-.65-3.67-.65-.78,0-1.35.12-1.73.36-.39.24-.56.6-.56,1.09,0,.39.13.68.4.93.26.21.74.47,1.41.76l2.01.77c1.02.4,1.74.89,2.21,1.45.46.54.68,1.23.68,2.05,0,1.29-.47,2.32-1.41,3.06-.91.75-2.2,1.13-3.87,1.13-.8,0-1.6-.09-2.38-.28-.75-.16-1.42-.4-2.01-.73v-2.14c1.64.55,3.1.81,4.39.81.86,0,1.46-.14,1.85-.41.4-.25.61-.66.61-1.21h0Zm0,0"/>
    <path class="cls-1" d="m260.75,101.36c-1.37.54-2.93.81-4.63.81-2.89,0-5.04-.74-6.49-2.26-1.45-1.53-2.18-3.78-2.18-6.73s.75-5.37,2.26-7.01c1.5-1.66,3.67-2.5,6.48-2.5,1.55,0,2.98.24,4.27.73v2.58c-1.7-.38-3.02-.56-3.99-.56-1.93,0-3.37.51-4.31,1.53-.96,1.02-1.41,2.61-1.41,4.71v.61c0,2.09.46,3.65,1.37,4.67.94.99,2.38,1.49,4.31,1.49,1.06,0,2.51-.22,4.31-.65v2.58Zm0,0"/>
    <path class="cls-1" d="m269.13,102.25c-1.99,0-3.54-.62-4.67-1.85-1.13-1.22-1.69-2.94-1.69-5.12s.56-3.87,1.69-5.08c1.13-1.23,2.69-1.85,4.67-1.85s3.52.62,4.63,1.85c1.13,1.21,1.69,2.9,1.69,5.08s-.56,3.9-1.69,5.12c-1.11,1.24-2.65,1.85-4.63,1.85h0Zm0-2.42c2.18,0,3.26-1.52,3.26-4.55s-1.09-4.55-3.26-4.55-3.26,1.52-3.26,4.55,1.09,4.55,3.26,4.55h0Zm0,0"/>
    <path class="cls-1" d="m295.12,101.85v-8.91c0-.78-.16-1.34-.48-1.69-.31-.35-.79-.52-1.49-.52-.54,0-1.12.09-1.73.28-.59.19-1.12.43-1.53.68v10.15h-3.06v-8.91c0-.78-.16-1.34-.48-1.69-.31-.35-.79-.52-1.49-.52-.51,0-1.07.08-1.65.24-.56.16-1.11.4-1.61.73v10.15h-3.06v-13.13h2.54l.28,1.33c.86-.59,1.66-1.02,2.42-1.29.78-.27,1.54-.4,2.34-.4,1.59,0,2.67.59,3.3,1.77,1.71-1.18,3.36-1.77,4.91-1.77,1.22,0,2.19.35,2.86,1.01.67.65,1.01,1.6,1.01,2.86v9.63h-3.06Zm0,0"/>
    <path class="cls-1" d="m301.8,107.17v-18.45h2.54l.28,1.33c.58-.56,1.25-.98,1.98-1.25.75-.3,1.5-.44,2.3-.44,1.62,0,2.94.62,3.91,1.85.97,1.21,1.45,2.85,1.45,4.88,0,1.4-.23,2.62-.68,3.67-.43,1.05-1.08,1.88-1.94,2.5-.83.59-1.81.89-2.94.89-.73,0-1.42-.12-2.09-.36-.67-.26-1.25-.62-1.73-1.05v6.45h-3.06Zm6.12-16.44c-1.11,0-2.12.32-3.06.97v7.05c.94.67,1.95,1.01,3.06,1.01s1.91-.38,2.42-1.13c.54-.74.81-1.89.81-3.42s-.27-2.62-.81-3.34c-.51-.74-1.31-1.13-2.42-1.13h0Zm0,0"/>
    <path class="cls-1" d="m319.43,96c.05,1.32.42,2.28,1.09,2.9.7.59,1.75.88,3.14.88,1.29,0,2.67-.21,4.15-.68v2.14c-.59.3-1.29.55-2.1.73-.8.19-1.64.28-2.5.28-2.15,0-3.79-.58-4.92-1.73-1.13-1.18-1.69-2.9-1.69-5.16s.54-3.92,1.65-5.16c1.1-1.23,2.63-1.85,4.59-1.85,1.66,0,2.96.46,3.87,1.37.9.91,1.37,2.21,1.37,3.91,0,.89-.08,1.68-.24,2.38h-8.42Zm3.26-5.44c-.91,0-1.68.31-2.26.92-.59.62-.93,1.45-1.01,2.5h5.96v-.2c0-1.05-.23-1.84-.68-2.38-.47-.56-1.13-.85-2.01-.85h0Zm0,0"/>
    <path class="cls-1" d="m338.62,101.52c-.89.32-1.84.48-2.86.48-1.37,0-2.39-.3-3.06-.93-.64-.64-.97-1.62-.97-2.94v-7.09h-2.21v-1.93l2.33-.32.44-3.67h2.5v3.59h3.75v2.33h-3.75v6.97c0,.56.13.99.4,1.25.3.24.78.36,1.45.36.73,0,1.38-.05,1.97-.2v2.09Zm0,0"/>
    <path class="cls-1" d="m343.21,96c.06,1.32.42,2.28,1.09,2.9.7.59,1.75.88,3.14.88,1.29,0,2.68-.21,4.15-.68v2.14c-.59.3-1.29.55-2.1.73-.8.19-1.64.28-2.5.28-2.15,0-3.79-.58-4.92-1.73-1.13-1.18-1.69-2.9-1.69-5.16s.54-3.92,1.65-5.16c1.1-1.23,2.63-1.85,4.59-1.85,1.66,0,2.95.46,3.87,1.37.9.91,1.37,2.21,1.37,3.91,0,.89-.08,1.68-.24,2.38h-8.42Zm3.26-5.44c-.91,0-1.68.31-2.26.92-.59.62-.93,1.45-1.01,2.5h5.96v-.2c0-1.05-.23-1.84-.68-2.38-.47-.56-1.13-.85-2.01-.85h0Zm0,0"/>
    <path class="cls-1" d="m363.52,101.85v-8.7c0-.82-.18-1.44-.52-1.82-.35-.4-.91-.6-1.65-.6-1.13,0-2.28.39-3.46,1.13v9.99h-3.06v-13.13h2.54l.28,1.45c1.63-1.21,3.32-1.82,5.08-1.82,1.26,0,2.21.35,2.86,1.01.64.65.97,1.6.97,2.86v9.63h-3.02Zm0,0"/>
    <path class="cls-1" d="m379.41,101.32c-1.02.54-2.23.8-3.62.8-2.01,0-3.57-.58-4.68-1.73-1.07-1.18-1.61-2.83-1.61-5s.56-3.91,1.69-5.12c1.13-1.24,2.7-1.85,4.71-1.85,1.22,0,2.38.27,3.42.76v2.18c-1.16-.34-2.14-.52-2.94-.52-1.29,0-2.24.35-2.86,1.05-.62.7-.92,1.8-.92,3.27v.32c0,1.45.31,2.53.92,3.23.62.67,1.57,1.01,2.86,1.01.9,0,1.92-.18,3.02-.52v2.14Zm0,0"/>
    <path class="cls-1" d="m385.61,102.01l-5.16-13.3h3.26l3.35,10.39,3.38-10.39h3.1l-5.88,15.23c-.48,1.27-1.08,2.16-1.73,2.7-.65.56-1.49.85-2.54.85-.75,0-1.48-.15-2.14-.41v-2.14c.41.11.82.16,1.29.16.74,0,1.3-.13,1.65-.4.37-.27.74-.87,1.09-1.81l.32-.89Zm0,0"/>
  </g>
</svg>