<?xml version="1.0" encoding="UTF-8"?>
<svg id="Layer_1" data-name="Layer 1" xmlns="http://www.w3.org/2000/svg" viewBox="0 0 50 50">
  <defs>
    <style>
      .cls-1 {
        stroke: #1450a8;
      }

      .cls-1, .cls-2 {
        fill: none;
        stroke-linecap: round;
        stroke-linejoin: round;
      }

      .cls-3 {
        fill: #22b573;
      }

      .cls-3, .cls-4, .cls-5 {
        stroke-width: 0px;
      }

      .cls-4 {
        fill: #1860d3;
      }

      .cls-5 {
        fill: #ffb62d;
      }

      .cls-2 {
        stroke: #fff;
        stroke-width: .73px;
      }
    </style>
  </defs>
  <g>
    <polygon class="cls-4" points="20.42 26.28 16.04 31.71 20.71 40.66 31.31 41.5 35.59 40.58 31.87 47.27 35.95 47.27 42.76 35.68 41.08 27.33 33.08 25.9 20.42 26.28"/>
    <polyline class="cls-2" points="21.46 28.09 24.03 32.59 21.46 38.9 24.03 32.59 32.45 32.09 32.92 27.66 32.45 32.09 31.14 39.39 32.45 32.09 37.66 31.66 39.28 29.09 37.66 31.66 36.59 35.03"/>
  </g>
  <path class="cls-1" d="M44.7,30.06v17.65H6.41V3.77h15.41"/>
  <polyline class="cls-1" points="6.41 3.77 1.29 12.06 6.41 12.06"/>
  <g>
    <circle class="cls-1" cx="34.65" cy="11.49" r="9.65"/>
    <line class="cls-1" x1="40.57" y1="19.1" x2="47.12" y2="27.03"/>
  </g>
  <g>
    <rect class="cls-3" x="9.06" y="16.49" width="5.47" height="6.09"/>
    <rect class="cls-4" x="9.06" y="27.88" width="5.47" height="6.09"/>
    <rect class="cls-4" x="9.06" y="6.12" width="5.47" height="6.09"/>
    <rect class="cls-5" x="9.06" y="39.28" width="5.47" height="6.09"/>
  </g>
  <g>
    <rect class="cls-3" x="18.06" y="16.49" width="5.47" height="6.09"/>
    <rect class="cls-4" x="18.06" y="6.12" width="5.47" height="6.09"/>
  </g>
  <line class="cls-1" x1="2.79" y1="47.71" x2="47.97" y2="47.71"/>
</svg>