<?xml version="1.0" encoding="UTF-8" standalone="no"?>
<!DOCTYPE svg PUBLIC "-//W3C//DTD SVG 1.1//EN" "http://www.w3.org/Graphics/SVG/1.1/DTD/svg11.dtd">
<svg width="100%" height="100%" viewBox="0 0 165 54" version="1.1" xmlns="http://www.w3.org/2000/svg" xmlns:xlink="http://www.w3.org/1999/xlink" xml:space="preserve" xmlns:serif="http://www.serif.com/" style="fill-rule:evenodd;clip-rule:evenodd;stroke-linejoin:round;stroke-miterlimit:2;">
    <g transform="matrix(1,0,0,1,-407.638,-254.396)">
        <g transform="matrix(0.67968,0,0,0.749671,1520.42,48.975)">
            <g transform="matrix(2.3417,0,0,2.12308,-3081.12,-1161.95)">
                <g transform="matrix(1,0,0,1,610.609,-264.464)">
                    <path d="M69.751,956.909L69.751,963.523C69.751,964.107 69.751,964.107 69.188,964.107L66.188,964.107C65.907,964.107 65.824,964.037 65.824,963.749L65.824,951.037C65.824,950.783 65.873,950.688 66.154,950.691C67.354,950.706 68.561,950.709 69.763,950.691C69.98,950.681 70.177,950.816 70.246,951.021C71.469,953.281 72.693,955.535 73.953,957.821C74.075,957.68 74.02,957.534 74.02,957.408L74.02,951.114C74.02,950.765 74.12,950.686 74.451,950.695C75.494,950.716 76.54,950.71 77.583,950.695C77.849,950.695 77.953,950.741 77.953,951.044C77.941,955.283 77.941,959.52 77.953,963.757C77.953,964.044 77.873,964.118 77.592,964.115C76.492,964.115 75.392,964.097 74.286,964.115C74.044,964.142 73.812,964.007 73.717,963.782C72.494,961.599 71.27,959.42 70.047,957.247L69.836,956.88L69.751,956.909Z" style="fill:white;fill-rule:nonzero;"/>
                </g>
                <g transform="matrix(1,0,0,1,610.609,-263.983)">
                    <path d="M93.254,954.901C93.254,956.173 93.275,957.445 93.254,958.718C93.199,961.776 91.783,963.406 88.771,963.856C87.221,964.121 85.63,964.009 84.132,963.529C82.388,962.992 81.165,961.422 81.074,959.599C80.881,957.868 81.016,956.131 80.991,954.399C80.973,953.157 80.991,951.913 80.991,950.668C80.991,950.344 81.049,950.222 81.41,950.231C82.526,950.259 83.642,950.252 84.756,950.231C85.083,950.231 85.169,950.307 85.166,950.631L85.166,958.313C85.171,958.518 85.188,958.722 85.218,958.925C85.418,960.454 86.502,960.809 87.787,960.546C88.595,960.336 89.136,959.578 89.071,958.746C89.117,958.055 89.12,957.358 89.123,956.663L89.123,950.676C89.123,950.37 89.175,950.226 89.539,950.236C90.655,950.264 91.771,950.257 92.885,950.236C93.191,950.236 93.276,950.303 93.273,950.612C93.255,952.043 93.273,953.478 93.273,954.893L93.254,954.901Z" style="fill:white;fill-rule:nonzero;"/>
                </g>
                <g transform="matrix(1,0,0,1,610.609,-264.452)">
                    <path d="M95.529,950.695L97.908,950.695C98.575,950.695 99.241,950.713 99.908,950.695C100.172,950.658 100.427,950.809 100.52,951.059C101.104,952.139 101.713,953.2 102.355,954.337L103.279,952.618L104.196,950.948C104.266,950.82 104.321,950.703 104.502,950.703L108.848,950.703C108.818,950.868 108.74,951.02 108.622,951.14C107.359,952.993 106.099,954.847 104.822,956.685C104.653,956.88 104.659,957.171 104.837,957.358C106.295,959.499 107.746,961.639 109.189,963.78C109.244,963.86 109.296,963.942 109.351,964.028C109.226,964.153 109.091,964.101 108.972,964.101L104.798,964.101C104.554,964.129 104.32,963.995 104.22,963.771C103.547,962.571 102.853,961.371 102.125,960.101L101.513,961.138C100.98,962.035 100.45,962.93 99.923,963.823C99.831,963.973 99.758,964.101 99.535,964.098L95.11,964.098C95.058,963.918 95.19,963.838 95.257,963.74C96.704,961.599 98.147,959.48 99.606,957.364C99.815,957.147 99.815,956.804 99.606,956.587C98.297,954.752 97.013,952.917 95.725,951.087C95.61,950.988 95.539,950.847 95.529,950.695Z" style="fill:white;fill-rule:nonzero;"/>
                </g>
                <g transform="matrix(1,0,0,1,610.609,-264.477)">
                    <path d="M45.766,957.4L45.766,951.152C45.766,950.779 45.866,950.702 46.222,950.709C47.293,950.734 48.365,950.734 49.439,950.709C49.815,950.709 49.947,950.776 49.939,951.192C49.921,954.201 49.939,957.207 49.918,960.214C49.918,960.621 50.031,960.714 50.418,960.706C52.097,960.685 53.782,960.706 55.458,960.706C55.764,960.706 55.886,960.749 55.877,961.097C55.849,962.014 55.859,962.932 55.877,963.828C55.877,964.079 55.804,964.134 55.571,964.134L46.096,964.134C45.79,964.134 45.79,964.018 45.79,963.779C45.769,961.651 45.766,959.529 45.766,957.4Z" style="fill:white;fill-rule:nonzero;"/>
                </g>
                <g transform="matrix(1,0,0,1,610.609,-264.457)">
                    <path d="M62.73,957.428L62.73,963.722C62.73,964.009 62.678,964.122 62.357,964.113C61.213,964.092 60.066,964.113 58.923,964.113C58.666,964.113 58.571,964.061 58.571,963.78L58.571,951.021C58.571,950.779 58.632,950.694 58.877,950.697L62.397,950.697C62.703,950.697 62.703,950.816 62.703,951.055C62.73,953.174 62.73,955.299 62.73,957.428Z" style="fill:white;fill-rule:nonzero;"/>
                </g>
                <g transform="matrix(1,0,0,1,610.609,-237.589)">
                    <path d="M67.152,941.35L67.152,947.292C67.152,947.665 67.045,947.76 66.693,947.732C66.476,947.714 66.43,947.64 66.433,947.448L66.433,940.503C66.433,940.387 66.381,940.197 66.589,940.219C66.855,940.237 67.158,940.087 67.372,940.419C67.858,941.153 68.372,941.872 68.872,942.596L71.319,946.131C71.399,946.244 71.487,946.354 71.582,946.483C71.654,946.35 71.675,946.196 71.64,946.049L71.64,940.665C71.64,940.42 71.585,940.194 71.992,940.194C72.399,940.194 72.359,940.381 72.359,940.647L72.359,947.283C72.359,947.427 72.487,947.693 72.224,947.705C71.961,947.717 71.667,947.861 71.462,947.567L70.893,946.747L67.419,941.707C67.36,941.619 67.296,941.527 67.152,941.35Z" style="fill:white;fill-rule:nonzero;"/>
                </g>
                <g transform="matrix(1,0,0,1,610.609,-237.635)">
                    <path d="M103.719,941.527L103.719,947.371C103.719,947.662 103.661,947.771 103.343,947.771C103.025,947.771 102.988,947.664 102.988,947.395L102.988,940.713C102.988,940.56 102.875,940.3 103.104,940.27C103.333,940.24 103.716,940.114 103.93,940.447C104.43,941.187 104.945,941.921 105.459,942.658L108.132,946.517C108.264,946.404 108.202,946.266 108.202,946.15L108.202,940.65C108.202,940.372 108.236,940.243 108.566,940.243C108.896,940.243 108.921,940.399 108.921,940.662L108.921,947.255C108.921,947.426 109.062,947.717 108.771,947.755C108.48,947.793 108.193,947.88 107.964,947.535C107.187,946.367 106.38,945.223 105.582,944.067L103.811,941.507L103.719,941.527Z" style="fill:white;fill-rule:nonzero;"/>
                </g>
                <g transform="matrix(1,0,0,1,610.609,-237.616)">
                    <path d="M79.776,942.63C79.527,941.331 78.432,940.365 77.112,940.281C76.158,940.171 75.201,940.25 74.246,940.214C73.94,940.214 73.852,940.287 73.858,940.596C73.876,941.724 73.858,942.85 73.858,943.978L73.858,947.404C73.858,947.581 73.824,947.753 74.106,947.743C75.134,947.706 76.164,947.804 77.189,947.667C78.442,947.557 79.479,946.647 79.752,945.419C79.988,944.505 79.996,943.548 79.776,942.63ZM79.076,945.159C78.915,946.183 78.075,946.965 77.042,947.052C76.307,947.123 75.569,947.15 74.831,947.132C74.565,947.132 74.568,946.988 74.568,946.802L74.568,941.214C74.568,940.908 74.663,940.814 74.963,940.829C75.611,940.853 76.263,940.829 76.911,940.89C78.013,940.925 78.931,941.747 79.088,942.838C79.254,943.603 79.251,944.395 79.078,945.159L79.076,945.159Z" style="fill:white;fill-rule:nonzero;"/>
                </g>
                <g transform="matrix(1,0,0,1,610.609,-237.618)">
                    <path d="M58.017,942.957C57.725,941.35 56.359,940.159 54.726,940.09C53.094,940.022 51.632,941.093 51.206,942.67C51.088,943.103 51.031,943.549 51.038,943.997C51.035,944.373 51.074,944.749 51.154,945.116C51.482,946.679 52.828,947.82 54.423,947.888C56.019,947.956 57.457,946.933 57.916,945.403C58.148,944.608 58.182,943.769 58.017,942.957ZM57.161,945.404C56.794,946.51 55.765,947.26 54.601,947.271C53.436,947.282 52.393,946.552 52.005,945.453C51.641,944.482 51.647,943.411 52.023,942.444C52.438,941.359 53.495,940.655 54.656,940.69C55.818,940.725 56.83,941.492 57.179,942.6C57.493,943.513 57.487,944.506 57.161,945.414L57.161,945.404Z" style="fill:white;fill-rule:nonzero;"/>
                </g>
                <g transform="matrix(1,0,0,1,610.609,-237.606)">
                    <path d="M101.882,943.964C101.887,943.588 101.849,943.213 101.769,942.845C101.429,941.293 100.086,940.165 98.499,940.098C96.911,940.03 95.477,941.041 95.007,942.558C94.768,943.366 94.735,944.221 94.912,945.044C95.216,946.662 96.608,947.848 98.254,947.892C99.899,947.935 101.352,946.824 101.741,945.224C101.846,944.813 101.893,944.389 101.882,943.964ZM101.035,945.086C100.793,946.413 99.597,947.348 98.251,947.264C96.894,947.227 95.769,946.2 95.609,944.851C95.478,944.183 95.501,943.494 95.676,942.836C95.918,941.528 97.1,940.608 98.428,940.695C99.742,940.695 100.861,941.653 101.061,942.952C101.143,943.29 101.177,943.639 101.161,943.986C101.18,944.358 101.139,944.73 101.04,945.089L101.035,945.086Z" style="fill:white;fill-rule:nonzero;"/>
                </g>
                <g transform="matrix(1,0,0,1,610.609,-289.878)">
                    <path d="M58.347,970.151L58.347,973.534C58.347,973.84 58.252,973.895 57.977,973.892C57.702,973.889 57.595,973.846 57.604,973.54C57.622,972.558 57.604,971.574 57.604,970.592C57.604,970.305 57.524,970.231 57.243,970.234C55.983,970.25 54.723,970.25 53.463,970.234C53.188,970.234 53.124,970.307 53.13,970.57L53.13,973.518C53.13,973.781 53.09,973.894 52.784,973.894C52.478,973.894 52.408,973.799 52.408,973.503C52.451,971.248 52.462,968.989 52.442,966.726C52.442,966.457 52.497,966.347 52.794,966.356C53.091,966.365 53.17,966.411 53.161,966.711C53.14,967.576 53.161,968.445 53.161,969.311C53.161,969.559 53.231,969.617 53.467,969.617C54.739,969.605 56.013,969.605 57.29,969.617C57.556,969.617 57.633,969.55 57.626,969.281C57.608,968.443 57.626,967.605 57.626,966.767C57.626,966.498 57.644,966.342 57.987,966.345C58.33,966.348 58.369,966.461 58.366,966.752C58.338,967.894 58.347,969.026 58.347,970.151Z" style="fill:white;fill-rule:nonzero;"/>
                </g>
                <g transform="matrix(1,0,0,1,610.609,-289.779)">
                    <path d="M59.855,970.033L59.855,966.652C59.855,966.398 59.883,966.27 60.197,966.273C61.697,966.291 63.209,966.273 64.714,966.273C64.962,966.273 65.078,966.313 65.075,966.6C65.072,966.887 64.937,966.906 64.723,966.906L60.989,966.906C60.683,966.906 60.549,966.958 60.564,967.306C60.595,967.957 60.588,968.606 60.564,969.257C60.564,969.563 60.664,969.639 60.964,969.636C62.108,969.621 63.252,969.636 64.395,969.636C64.595,969.636 64.786,969.59 64.79,969.923C64.794,970.256 64.625,970.25 64.39,970.25L60.959,970.25C60.653,970.25 60.559,970.323 60.571,970.632C60.595,971.381 60.592,972.132 60.571,972.886C60.571,973.161 60.654,973.222 60.914,973.219L64.74,973.219C64.94,973.219 65.125,973.182 65.119,973.525C65.113,973.868 65.019,973.852 64.764,973.849L60.204,973.849C59.898,973.849 59.855,973.739 59.858,973.476C59.861,972.291 59.855,971.163 59.855,970.033Z" style="fill:white;fill-rule:nonzero;"/>
                </g>
                <g transform="matrix(1,0,0,1,610.609,-237.51)">
                    <path d="M86.878,947.226C86,944.972 85.101,942.726 84.227,940.461C84.181,940.229 83.96,940.075 83.727,940.112C83.452,940.112 83.265,940.136 83.137,940.461C82.492,942.131 81.81,943.782 81.137,945.44L80.259,947.605C81.002,947.672 81.002,947.669 81.238,947.058C81.421,946.587 81.614,946.122 81.779,945.645C81.819,945.412 82.038,945.255 82.271,945.29C83.188,945.311 84.106,945.308 85.023,945.29C85.237,945.251 85.444,945.385 85.497,945.596C85.714,946.208 85.968,946.819 86.197,947.41C86.347,947.795 86.683,947.633 86.903,947.593C87.123,947.553 86.926,947.345 86.878,947.226ZM84.857,944.691L82.426,944.691C82.083,944.691 82.226,944.52 82.279,944.367C82.726,943.226 83.172,942.086 83.655,940.841C84.135,942.11 84.572,943.288 85.034,944.477C85.11,944.677 85.016,944.691 84.857,944.691Z" style="fill:white;fill-rule:nonzero;"/>
                </g>
                <g transform="matrix(1,0,0,1,610.609,-237.509)">
                    <path d="M65.011,942.9L65.011,944.937C64.955,946.523 63.643,947.773 62.056,947.753C60.47,947.733 59.19,946.45 59.173,944.864L59.173,940.529C59.173,940.272 59.173,940.104 59.525,940.11C59.877,940.116 59.898,940.232 59.895,940.517L59.895,944.493C59.893,944.739 59.906,944.985 59.935,945.23C60.015,946.029 60.516,946.724 61.249,947.052C61.981,947.38 62.833,947.292 63.483,946.82C64.052,946.389 64.359,945.696 64.296,944.985C64.317,943.499 64.296,942.009 64.296,940.52C64.296,940.26 64.296,940.095 64.648,940.101C65,940.107 65.024,940.226 65.018,940.508C65.003,941.308 65.018,942.098 65.018,942.893L65.011,942.9Z" style="fill:white;fill-rule:nonzero;"/>
                </g>
                <g transform="matrix(1,0,0,1,610.609,-237.596)">
                    <path d="M48.142,940.204L50.225,940.204C50.46,940.204 50.555,940.259 50.552,940.51C50.549,940.761 50.479,940.816 50.246,940.816L46.858,940.816C46.58,940.816 46.476,940.88 46.485,941.174C46.506,941.853 46.503,942.532 46.485,943.211C46.485,943.486 46.577,943.55 46.834,943.547L49.745,943.547C49.971,943.547 50.121,943.547 50.118,943.853C50.115,944.159 49.959,944.159 49.736,944.159L46.827,944.159C46.564,944.159 46.478,944.229 46.484,944.498L46.484,947.403C46.484,947.709 46.343,947.733 46.096,947.742C45.849,947.751 45.753,947.669 45.757,947.403L45.757,940.553C45.757,940.287 45.83,940.207 46.096,940.214C46.781,940.216 47.46,940.204 48.142,940.204Z" style="fill:white;fill-rule:nonzero;"/>
                </g>
                <g transform="matrix(1,0,0,1,610.609,-289.797)">
                    <path d="M48.383,970.344L48.383,967.267C48.383,966.983 48.307,966.897 48.022,966.906C47.371,966.924 46.716,966.906 46.068,966.906C45.82,966.906 45.762,966.836 45.747,966.6C45.732,966.364 45.847,966.294 46.077,966.294L51.377,966.294C51.622,966.294 51.747,966.328 51.741,966.618C51.735,966.908 51.606,966.924 51.392,966.924L49.481,966.924C49.175,966.924 49.096,967.013 49.099,967.312L49.099,973.379C49.099,973.685 49.081,973.862 48.699,973.832C48.43,973.811 48.36,973.743 48.366,973.483C48.392,972.426 48.383,971.383 48.383,970.344Z" style="fill:white;fill-rule:nonzero;"/>
                </g>
                <g transform="matrix(1,0,0,1,610.609,-237.604)">
                    <path d="M88.819,944.26L88.819,941.227C88.819,940.921 88.761,940.796 88.419,940.814C87.783,940.842 87.144,940.814 86.508,940.814C86.266,940.814 86.187,940.756 86.187,940.508C86.187,940.26 86.273,940.202 86.511,940.202L91.811,940.202C92.065,940.202 92.169,940.257 92.169,940.535C92.169,940.813 92.022,940.822 91.814,940.819L89.903,940.819C89.597,940.819 89.518,940.919 89.521,941.214L89.521,947.33C89.521,947.636 89.463,947.761 89.121,947.749C88.837,947.749 88.791,947.642 88.794,947.394C88.825,946.343 88.819,945.302 88.819,944.26Z" style="fill:white;fill-rule:nonzero;"/>
                </g>
                <g transform="matrix(1,0,0,1,610.609,-237.625)">
                    <path d="M92.914,944.03L92.914,940.605C92.914,940.339 92.954,940.22 93.263,940.22C93.572,940.22 93.648,940.32 93.645,940.62L93.645,947.379C93.645,947.645 93.602,947.764 93.293,947.761C92.984,947.758 92.905,947.666 92.911,947.366C92.927,946.254 92.914,945.141 92.914,944.03Z" style="fill:white;fill-rule:nonzero;"/>
                </g>
                <g transform="matrix(1,0,0,1,610.609,-250.212)">
                    <path d="M12.872,953.611L26.309,953.611L26.309,960.486L6,960.486L6,940.085L12.872,940.085L12.872,953.611Z" style="fill:white;fill-rule:nonzero;"/>
                </g>
                <g transform="matrix(1,0,0,1,610.609,-263.725)">
                    <path d="M39.915,940.084L39.915,974L29.704,974L29.704,967.125L33.04,967.125L33.04,946.956L12.872,946.956L12.872,950.204L6,950.204L6,940.084L39.915,940.084Z" style="fill:white;fill-rule:nonzero;"/>
                </g>
            </g>
        </g>
    </g>
</svg>
