<svg id="Layer_1" data-name="Layer 1" xmlns="http://www.w3.org/2000/svg" xmlns:xlink="http://www.w3.org/1999/xlink" viewBox="0 0 60 60"><defs><style>.cls-1{fill:url(#linear-gradient);}.cls-2{fill:#fff;}</style><linearGradient id="linear-gradient" x1="30" y1="0.46" x2="30" y2="57.06" gradientUnits="userSpaceOnUse"><stop offset="0" stop-color="#05a1e8"/><stop offset="1" stop-color="#0562e8"/></linearGradient></defs><circle class="cls-1" cx="30" cy="29.86" r="29.3"/><path class="cls-2" d="M24.17,58.87c0-1.57,0-7.73,0-9.29V33.91h-.57c-1.93,0-3.86,0-5.79,0-.39,0-.52-.11-.52-.52,0-2.32,0-4.65,0-7,0-.47.15-.55.57-.55,1.93,0,3.86,0,5.79,0,.44,0,.54-.13.53-.54,0-1.85,0-3.69,0-5.53A11.06,11.06,0,0,1,26,13.44a9.06,9.06,0,0,1,6.52-3.77,36.24,36.24,0,0,1,6.83,0,1.46,1.46,0,0,1,.22,0c1,.1,1,.1,1,1.15,0,1.89,0,3.77,0,5.66,0,.39-.11.5-.49.5-1.48,0-3,0-4.43,0a3.91,3.91,0,0,0-.91.12,2.64,2.64,0,0,0-2.23,2.71c-.08,1.89,0,3.78-.06,5.66,0,.34.21.32.44.32h6.8c.61,0,.61,0,.53.6q-.45,3.5-.89,7c0,.34-.18.43-.51.43H33c-.34,0-.45.1-.45.44,0,6.64,0,18.35,0,25A30.86,30.86,0,0,1,24.17,58.87Z"/></svg>