<?xml version="1.0" encoding="UTF-8" standalone="no"?>
<!DOCTYPE svg PUBLIC "-//W3C//DTD SVG 1.1//EN" "http://www.w3.org/Graphics/SVG/1.1/DTD/svg11.dtd">
<svg width="100%" height="100%" viewBox="0 0 359 83" version="1.1" xmlns="http://www.w3.org/2000/svg" xmlns:xlink="http://www.w3.org/1999/xlink" xml:space="preserve" xmlns:serif="http://www.serif.com/" style="fill-rule:evenodd;clip-rule:evenodd;stroke-linejoin:round;stroke-miterlimit:2;">
    <g transform="matrix(1,0,0,1,385.675,-122.785)">
        <g transform="matrix(1,0,0,1,-355.206,-311.115)">
            <g transform="matrix(0.739753,0,0,0.739753,6.83488,122.558)">
                <g transform="matrix(1,0,0,1,-1066.55,-44.7243)">
                    <path d="M1170.23,486.154L1170.23,487.983C1170.23,494.024 1170.24,500.066 1170.19,506.102C1170.19,506.646 1169.78,507.19 1169.56,507.734C1169.07,507.538 1168.45,507.462 1168.1,507.114C1161.62,500.718 1150.97,500.42 1144.03,506.658C1137.59,512.447 1135.81,519.823 1137.73,528.029C1139.35,534.944 1143.55,539.942 1150.49,542.029C1157.13,544.029 1163.18,542.776 1168.17,537.639C1168.48,537.316 1169.24,536.994 1169.48,537.145C1169.86,537.392 1170.14,538.025 1170.19,538.518C1170.3,539.594 1170.22,540.682 1170.22,541.802L1178.25,541.802L1178.25,486.154L1170.23,486.154ZM1158.01,535.564C1150.95,535.589 1145.31,529.864 1145.29,522.632C1145.27,515.275 1150.86,509.48 1157.96,509.505C1165.04,509.53 1170.58,515.231 1170.59,522.506C1170.61,529.775 1165.06,535.532 1158.01,535.564Z" style="fill:white;fill-rule:nonzero;"/>
                </g>
                <g transform="matrix(1,0,0,1,-1066.55,-44.2181)">
                    <path d="M1341.16,506.766C1333.99,500.022 1322.96,499.952 1316.5,506.576C1316.08,507.012 1315.41,507.209 1314.85,507.519C1314.61,506.88 1314.14,506.241 1314.13,505.595C1314.08,499.452 1314.1,493.316 1314.1,487.173L1314.1,485.635L1306.12,485.635L1306.12,541.276L1314.1,541.276C1314.1,540.144 1314.03,539.195 1314.13,538.265C1314.2,537.759 1314.47,537.031 1314.85,536.88C1315.2,536.74 1315.95,537.088 1316.28,537.449C1321.65,543.389 1332.24,544.041 1339.26,538.815C1349.11,531.47 1350.11,515.18 1341.16,506.766ZM1326.35,535.058C1319.32,535.032 1313.72,529.243 1313.73,522.012C1313.75,514.762 1319.33,509.024 1326.38,508.999C1333.5,508.974 1339.05,514.731 1339.03,522.126C1339.02,529.376 1333.43,535.083 1326.35,535.058Z" style="fill:white;fill-rule:nonzero;"/>
                </g>
                <g transform="matrix(1,0,0,1,-1066.55,-30.2873)">
                    <path d="M1290.72,488.786C1290.72,489.874 1290.79,490.867 1290.69,491.842C1290.64,492.348 1290.38,493.088 1290.02,493.234C1289.67,493.373 1288.93,493.006 1288.6,492.645C1283.35,486.774 1272.76,485.945 1265.78,491.241C1259.14,496.289 1256.73,503.198 1257.83,511.258C1258.86,518.824 1262.8,524.568 1270.13,527.251C1277.09,529.8 1283.49,528.598 1288.77,523.05C1289.05,522.765 1289.71,522.487 1289.96,522.626C1290.33,522.822 1290.64,523.391 1290.68,523.822C1290.78,524.954 1290.71,526.106 1290.71,527.333L1298.68,527.333L1298.68,488.786L1290.72,488.786ZM1278.48,521.127C1271.34,521.127 1265.81,515.382 1265.84,507.993C1265.86,500.794 1271.37,495.112 1278.38,495.068C1285.49,495.03 1291.16,500.825 1291.14,508.12C1291.12,515.351 1285.5,521.133 1278.48,521.127Z" style="fill:white;fill-rule:nonzero;"/>
                </g>
                <g transform="matrix(1,0,0,1,-1066.55,-26.9154)">
                    <path d="M1216.85,485.37C1216.85,486.496 1216.93,487.495 1216.82,488.47C1216.76,488.982 1216.5,489.71 1216.12,489.868C1215.79,490.013 1215.03,489.64 1214.71,489.273C1210.13,484.085 1201.3,482.997 1194.85,486.097C1185.95,490.38 1181.59,501.002 1184.61,511.144C1188.74,525.093 1204.05,529.376 1214.91,519.634C1215.21,519.368 1215.81,519.153 1216.14,519.273C1216.46,519.393 1216.79,519.95 1216.81,520.336C1216.9,521.519 1216.85,522.715 1216.85,523.974L1224.8,523.974L1224.8,485.37L1216.85,485.37ZM1204.49,517.755C1197.4,517.685 1191.96,511.998 1191.97,504.672C1191.99,497.371 1197.51,491.702 1204.61,491.696C1211.62,491.69 1217.26,497.472 1217.28,504.71C1217.29,511.985 1211.58,517.818 1204.49,517.755Z" style="fill:white;fill-rule:nonzero;"/>
                </g>
                <g transform="matrix(1,0,0,1,-1066.55,-46.8365)">
                    <path d="M1471.15,543.97C1467.85,543.97 1464.9,544.022 1461.96,543.924C1461.41,543.905 1460.75,543.391 1460.37,542.922C1456.3,537.965 1452.31,532.954 1448.23,528.007C1447.73,527.396 1446.59,526.527 1446.24,526.711C1445.16,527.289 1443.91,527.973 1443.92,529.579C1443.94,533.883 1443.92,538.187 1443.92,542.49C1443.92,542.902 1443.92,543.313 1443.92,543.847L1435.88,543.847L1435.88,488.272L1443.98,488.272C1443.98,488.831 1443.98,489.39 1443.98,489.948C1443.96,499.185 1443.93,508.421 1443.95,517.658C1443.95,518.323 1444.32,518.987 1444.51,519.652C1445.17,519.335 1445.97,519.163 1446.46,518.678C1450.66,514.549 1454.77,510.338 1458.99,506.224C1459.54,505.68 1460.5,505.305 1461.28,505.27C1463.95,505.154 1466.62,505.226 1469.71,505.226C1469.08,505.891 1468.71,506.293 1468.33,506.676C1463.72,511.28 1459.1,515.881 1454.48,520.483C1453.48,521.483 1453.44,522.546 1454.38,523.672C1459.67,530.063 1464.97,536.454 1470.27,542.846C1470.49,543.119 1470.7,543.404 1471.15,543.97Z" style="fill:white;fill-rule:nonzero;"/>
                </g>
                <g transform="matrix(1,0,0,1,-1066.55,-26.855)">
                    <path d="M1425.84,514.32C1427.28,515.835 1428.74,517.384 1430.21,518.936C1419.49,528.436 1405,525.935 1398.55,517.579C1393.57,511.123 1392.81,501.358 1397.09,494.112C1401.55,486.564 1408.58,483.877 1417.07,484.406C1421.62,484.689 1425.64,486.378 1429.27,489.082C1429.72,489.421 1430.15,489.788 1430.74,490.254C1428.95,491.934 1427.29,493.5 1425.65,495.043C1417.04,489.307 1409.44,491.933 1405.84,496.054C1401.9,500.55 1401.59,507.705 1405.24,512.525C1407.68,515.743 1411.01,517.327 1415,517.597C1417.81,517.788 1419.27,517.327 1425.84,514.32Z" style="fill:white;fill-rule:nonzero;"/>
                </g>
                <g transform="matrix(1,0,0,1,-1066.55,-30.2228)">
                    <path d="M1493.36,499.186C1491.99,497.813 1490.94,496.467 1489.61,495.497C1487.51,493.958 1485.11,493.824 1482.74,494.966C1479.95,496.31 1479.45,499.567 1481.79,501.557C1482.77,502.381 1484.01,502.949 1485.22,503.416C1487.67,504.362 1490.23,505.018 1492.64,506.049C1496.54,507.721 1499.58,510.264 1500.06,514.846C1500.49,518.819 1499.26,522.208 1496.23,524.853C1489.68,530.57 1476.28,529.661 1471.64,519.873C1471.55,519.686 1471.49,519.485 1471.34,519.07C1473.45,517.968 1475.56,516.866 1477.74,515.727C1478.34,516.606 1478.85,517.457 1479.46,518.22C1481.83,521.15 1485.59,522.271 1488.94,521.095C1490.85,520.425 1492.05,519.18 1492.2,517.095C1492.34,515.062 1491.38,513.604 1489.58,512.843C1487.55,511.988 1485.42,511.387 1483.36,510.607C1481.55,509.92 1479.68,509.292 1477.99,508.374C1470.49,504.317 1471.44,494.602 1476.85,490.502C1483.96,485.111 1495.6,487.734 1499.47,495.883C1497.39,497.009 1495.29,498.144 1493.36,499.186Z" style="fill:white;fill-rule:nonzero;"/>
                </g>
                <g transform="matrix(1,0,0,1,-1066.55,-40.8638)">
                    <path d="M1255.63,531.307L1255.63,538.198C1251.85,538.629 1248.1,539.039 1244.38,538.023C1240.59,536.989 1238.51,534.266 1237.62,530.619C1237.23,529.004 1237.03,527.305 1237.01,525.64C1236.93,519.762 1236.98,513.882 1236.98,508.003C1236.98,505.894 1236.89,505.812 1234.72,505.808C1233.25,505.805 1231.79,505.807 1230.23,505.807L1230.23,499.253C1231.99,499.253 1233.66,499.201 1235.33,499.27C1236.58,499.321 1237.01,498.79 1236.99,497.594C1236.95,494.193 1236.98,490.792 1236.98,487.284L1245.08,487.284C1245.08,490.596 1245.08,493.836 1245.08,497.077C1245.09,499.226 1245.11,499.251 1247.31,499.253C1249.56,499.255 1251.82,499.253 1254.19,499.253L1254.19,505.807C1251.88,505.807 1249.54,505.803 1247.19,505.809C1245.23,505.813 1245.08,505.943 1245.08,507.84C1245.09,513.404 1245.11,518.967 1245.14,524.53C1245.14,525.104 1245.22,525.683 1245.32,526.249C1246.02,530.216 1247.57,531.513 1251.64,531.493C1252.9,531.487 1254.16,531.379 1255.63,531.307Z" style="fill:white;fill-rule:nonzero;"/>
                </g>
                <g transform="matrix(1,0,0,1,-1066.55,-31.1126)">
                    <path d="M1360.65,528.163L1352.77,528.163L1352.77,489.612L1360.78,489.612C1360.78,490.819 1360.71,492.058 1360.81,493.282C1360.87,493.881 1361.25,494.452 1361.48,495.036C1362,494.698 1362.67,494.472 1363.02,494.005C1365.75,490.312 1369.84,488.407 1374.35,488.886L1374.35,497.104C1373.27,497.104 1372.21,496.99 1371.19,497.123C1365.71,497.838 1362.01,501.604 1361.2,507.513C1360.86,509.943 1360.88,512.43 1360.85,514.892C1360.79,519.197 1360.82,523.504 1360.8,527.81C1360.8,527.901 1360.73,527.993 1360.65,528.163Z" style="fill:white;fill-rule:nonzero;"/>
                </g>
                <g transform="matrix(0,1,-1,0,825.794,-906.883)">
                    <rect x="1365.38" y="503.633" width="38.541" height="8.118" style="fill:white;"/>
                </g>
                <g transform="matrix(-0.0045616,0.99999,-0.99999,-0.0045616,863.414,-935.718)">
                    <path d="M1384.58,534.047C1387.36,534.039 1389.55,536.214 1389.59,539.018C1389.62,541.898 1387.41,544.157 1384.58,544.153C1381.81,544.149 1379.56,541.933 1379.52,539.177C1379.47,536.358 1381.74,534.056 1384.58,534.047Z" style="fill:white;fill-rule:nonzero;"/>
                </g>
            </g>
            <g transform="matrix(1.18624,0,0,1.18624,-1277.75,-133.336)">
                <path d="M1054.47,510.41C1054.47,512.867 1054.45,515.1 1054.51,517.331C1054.52,517.626 1054.95,518 1055.28,518.184C1064.63,523.445 1073.98,528.704 1083.37,533.885C1083.88,534.169 1084.89,533.995 1085.47,533.675C1094.99,528.4 1104.47,523.067 1113.97,517.747C1114.34,517.541 1114.69,517.317 1115.07,517.139C1116.11,516.659 1116.9,517.053 1116.92,518.161C1116.96,521.836 1116.97,525.513 1116.9,529.188C1116.89,529.627 1116.43,530.231 1116.02,530.466C1105.72,536.283 1095.4,542.07 1085.06,547.814C1084.62,548.058 1083.81,548.059 1083.37,547.815C1073.03,542.071 1062.72,536.265 1052.39,530.512C1051.33,529.921 1051.3,529.026 1051.66,528.252C1052.11,527.258 1052.98,527.559 1053.8,528.022C1063.38,533.414 1072.98,538.76 1082.53,544.196C1083.79,544.915 1084.7,544.872 1085.94,544.168C1094.85,539.101 1103.8,534.1 1112.77,529.119C1113.66,528.622 1114.03,528.082 1113.98,527.041C1113.88,525.123 1113.95,523.196 1113.95,521.009C1112.92,521.581 1112.1,522.025 1111.29,522.48C1102.67,527.314 1094.04,532.137 1085.44,537.006C1084.55,537.509 1083.89,537.521 1083,537.014C1072.97,531.347 1062.93,525.711 1052.87,520.116C1051.86,519.555 1051.47,518.939 1051.5,517.784C1051.57,514.636 1051.52,511.483 1051.52,508.333C1051.53,506.034 1052.04,505.726 1054.01,506.831C1063.65,512.223 1073.29,517.605 1082.9,523.034C1083.84,523.562 1084.52,523.612 1085.48,523.067C1094.54,517.939 1103.63,512.857 1112.73,507.796C1113.6,507.312 1114.04,506.817 1113.98,505.741C1113.87,503.815 1113.95,501.879 1113.95,499.689C1112.66,500.392 1111.57,500.973 1110.49,501.58C1102.14,506.26 1093.79,510.934 1085.46,515.644C1084.61,516.127 1083.97,516.231 1083.04,515.704C1072.98,510.001 1062.88,504.368 1052.82,498.671C1052.27,498.363 1051.62,497.663 1051.62,497.139C1051.61,496.612 1052.24,495.88 1052.78,495.575C1062.84,489.875 1072.94,484.239 1083.01,478.546C1083.91,478.036 1084.57,478.069 1085.45,478.567C1092.85,482.769 1100.29,486.929 1107.72,491.084C1108.49,491.517 1109.4,492.007 1108.81,492.95C1108.29,493.779 1107.41,494.201 1106.25,493.541C1099.3,489.589 1092.33,485.682 1085.33,481.829C1084.77,481.52 1083.77,481.45 1083.23,481.746C1074.35,486.654 1065.51,491.638 1056.67,496.607C1056.45,496.73 1056.24,496.882 1055.89,497.115C1056.38,497.428 1056.75,497.685 1057.13,497.902C1065.75,502.739 1074.38,507.558 1082.98,512.425C1083.87,512.927 1084.52,512.95 1085.42,512.44C1094.99,507.031 1104.61,501.725 1114.13,496.247C1115.88,495.242 1117.13,495.826 1116.99,497.992C1116.79,501.077 1116.91,504.185 1116.96,507.283C1116.98,508.224 1116.72,508.801 1115.85,509.286C1105.65,514.964 1095.47,520.671 1085.31,526.415C1084.45,526.902 1083.85,526.821 1083.03,526.36C1074.15,521.347 1065.25,516.373 1056.35,511.391C1055.81,511.091 1055.26,510.819 1054.47,510.41Z" style="fill:white;fill-rule:nonzero;"/>
            </g>
        </g>
    </g>
</svg>
