<svg id="Layer_1" data-name="Layer 1" xmlns="http://www.w3.org/2000/svg" xmlns:xlink="http://www.w3.org/1999/xlink" viewBox="0 0 60 60"><defs><style>.cls-1{fill:url(#linear-gradient);}.cls-2{fill:#fff;}</style><linearGradient id="linear-gradient" x1="0.7" y1="29.76" x2="59.3" y2="29.76" gradientUnits="userSpaceOnUse"><stop offset="0" stop-color="#05a1e8"/><stop offset="1" stop-color="#0562e8"/></linearGradient></defs><circle class="cls-1" cx="30" cy="29.76" r="29.3"/><path class="cls-2" d="M32,46.29H25.67c-.61,0-.61,0-.61-.63V24.89c0-.71,0-.71.72-.71,1.8,0,3.6,0,5.4,0,.4,0,.56.09.54.52,0,.79,0,1.59,0,2.5.23-.32.38-.54.54-.75a7.13,7.13,0,0,1,5.57-2.77,12.43,12.43,0,0,1,3.27.31A6.35,6.35,0,0,1,46,29.08a21,21,0,0,1,.54,5.3c0,3.78,0,7.55,0,11.33,0,.45-.1.6-.57.59-2,0-3.93,0-5.9,0-.45,0-.55-.16-.55-.57,0-3.57,0-7.13,0-10.7a12.9,12.9,0,0,0-.3-2.91,2.87,2.87,0,0,0-3.06-2.35c-1.59,0-2.92.43-3.58,2a6.06,6.06,0,0,0-.52,2.13C32,37.8,32,41.71,32,45.63Z"/><path class="cls-2" d="M14,46.29V24.78c0-.59,0-.6.58-.6h5.62c.72,0,.73,0,.73.71V45.56c0,.73,0,.73-.7.73H14Z"/><path class="cls-2" d="M13.42,17.25a4,4,0,0,1,4-4,4,4,0,1,1,0,8.08A4,4,0,0,1,13.42,17.25Z"/></svg>