<?xml version="1.0" encoding="UTF-8"?>
<svg width="42px" height="42px" viewBox="0 0 42 42" version="1.1" xmlns="http://www.w3.org/2000/svg" xmlns:xlink="http://www.w3.org/1999/xlink">
    <title>Group 2</title>
    <g id="Page-1" stroke="none" stroke-width="1" fill="none" fill-rule="evenodd">
        <g id="Group-2" fill-rule="nonzero">
            <path d="M41.758,20.8790001 C41.758,32.4100232 32.4103564,41.7580001 20.8793333,41.7580001 C9.34831019,41.7580001 -7.10542736e-15,32.4106898 -7.10542736e-15,20.8796667 C-7.10542736e-15,9.34864362 9.34697689,0.000552374451 20.878,0 C26.4157096,-0.000530393192 31.726776,2.1990128 35.6426219,6.1146711 C39.5584677,10.0303294 41.758,15.3412904 41.758,20.8790001 Z" id="Path-Copy" fill="#FFFFFF"></path>
            <polygon id="Path-3" fill="#1860D3" points="9.27822581 12 9.27822581 12.4336735 11.6895161 15.0357143 11.6895161 25.4438776 9 28.6530612 9 29 15.8629032 29 15.8629032 28.6530612 13.1733871 25.4438776 13.1733871 16.8571429 19.108871 29 19.8508065 29 24.9516129 16.8571429 24.9516129 26.8316327 22.9112903 28.6530612 22.9112903 29 32 29 32 28.6530612 29.9596774 26.8316327 29.9596774 14.255102 32 12.4336735 32 12 25.6935484 12 21.1491935 22.5816327 15.8629032 12"></polygon>
        </g>
    </g>
</svg>