<svg id="Layer_1" data-name="Layer 1" xmlns="http://www.w3.org/2000/svg" xmlns:xlink="http://www.w3.org/1999/xlink" viewBox="0 0 60 60"><defs><style>.cls-1{fill:url(#linear-gradient);}.cls-2{fill:#fff;}</style><linearGradient id="linear-gradient" x1="0.7" y1="29.76" x2="59.3" y2="29.76" gradientUnits="userSpaceOnUse"><stop offset="0" stop-color="#05a1e8"/><stop offset="1" stop-color="#0562e8"/></linearGradient></defs><circle class="cls-1" cx="30" cy="29.76" r="29.3"/><path class="cls-2" d="M45.74,21.58V38.14a4.53,4.53,0,0,1-.07.74h0a3.3,3.3,0,0,1-3.4,2.88c-4.72-.07-9.44,0-14.16,0-3.52,0-7,0-10.58,0A2.85,2.85,0,0,1,16,41.36a3.53,3.53,0,0,1-1.7-3.2q0-8.35,0-16.71a4.48,4.48,0,0,1,.13-1.1,3.2,3.2,0,0,1,3.24-2.57c2.16.07,4.32,0,6.47,0,6.11,0,12.22,0,18.33,0a3.11,3.11,0,0,1,3,2c0,.07,0,.14.07.22A4.91,4.91,0,0,1,45.74,21.58Zm-2.46.65s0,0-.05,0l-.11.08L31.94,32.55a3,3,0,0,1-4.1,0L17,22l-.19-.17s0,0,0,0v3.87c0,4.08,0,8.16,0,12.24a3.11,3.11,0,0,0,.17.9.57.57,0,0,0,.6.38q12.49,0,25,0a.55.55,0,0,0,.59-.35,3.81,3.81,0,0,0,.19-1.05q0-6.63,0-13.26Zm-1.59-1.94h-23a0,0,0,0,0,0,.05,3,3,0,0,1,.3.25l10.42,10c.36.35.55.36.92,0L40,21.8Z"/></svg>