<?xml version="1.0" encoding="UTF-8" standalone="no"?>
<!DOCTYPE svg PUBLIC "-//W3C//DTD SVG 1.1//EN" "http://www.w3.org/Graphics/SVG/1.1/DTD/svg11.dtd">
<svg width="100%" height="100%" viewBox="0 0 426 126" version="1.1" xmlns="http://www.w3.org/2000/svg" xmlns:xlink="http://www.w3.org/1999/xlink" xml:space="preserve" xmlns:serif="http://www.serif.com/" style="fill-rule:evenodd;clip-rule:evenodd;stroke-miterlimit:10;">
    <g transform="matrix(1,0,0,1,50.5275,-426.464)">
        <g>
            <g transform="matrix(1.05583,0,0,1.05583,-126.989,-126.952)">
                <g transform="matrix(1,0,0,1,-750.75,283.319)">
                    <path d="M1041.23,285.33C1041.23,286.659 1040.76,287.702 1039.82,288.458C1038.88,289.214 1037.6,289.592 1035.98,289.592C1035.4,289.592 1034.73,289.497 1033.99,289.306C1033.26,289.108 1032.74,288.902 1032.43,288.689L1032.43,286.498C1032.88,286.901 1033.46,287.239 1034.19,287.511C1034.92,287.782 1035.61,287.918 1036.24,287.918C1038.26,287.918 1039.28,287.129 1039.28,285.551C1039.28,284.89 1039.06,284.324 1038.63,283.855C1038.19,283.377 1037.31,282.753 1035.96,281.982C1034.66,281.248 1033.75,280.551 1033.23,279.89C1032.71,279.229 1032.45,278.425 1032.45,277.478C1032.45,276.23 1032.91,275.217 1033.85,274.439C1034.78,273.653 1035.98,273.26 1037.46,273.26C1038.88,273.26 1039.91,273.448 1040.57,273.822L1040.57,275.892C1039.74,275.246 1038.67,274.923 1037.36,274.923C1036.49,274.923 1035.77,275.144 1035.21,275.584C1034.66,276.017 1034.39,276.593 1034.39,277.313C1034.39,277.834 1034.47,278.253 1034.63,278.568C1034.8,278.884 1035.08,279.196 1035.47,279.505C1035.86,279.813 1036.53,280.228 1037.46,280.749C1038.86,281.527 1039.83,282.261 1040.39,282.952C1040.95,283.642 1041.23,284.435 1041.23,285.33Z" style="fill:white;fill-rule:nonzero;"/>
                </g>
                <g transform="matrix(1,0,0,1,-750.75,282.615)">
                    <path d="M1046.25,274.703C1046.25,275.041 1046.13,275.323 1045.89,275.551C1045.66,275.771 1045.38,275.881 1045.06,275.881C1044.73,275.881 1044.45,275.775 1044.22,275.562C1043.99,275.342 1043.88,275.055 1043.88,274.703C1043.88,274.387 1043.99,274.116 1044.21,273.888C1044.44,273.653 1044.72,273.536 1045.06,273.536C1045.39,273.536 1045.68,273.65 1045.9,273.877C1046.13,274.105 1046.25,274.38 1046.25,274.703L1046.25,274.703ZM1045.94,290.022L1044.13,290.022L1044.13,278.745L1045.94,278.745L1045.94,290.022Z" style="fill:white;fill-rule:nonzero;"/>
                </g>
                <g transform="matrix(-1,0,0,-1,1350.24,846.172)">
                    <rect x="1049.59" y="273.536" width="1.806" height="16.695" style="fill:white;"/>
                </g>
                <g transform="matrix(1,0,0,1,-750.75,287.823)">
                    <path d="M1063.91,273.536L1059.42,284.813L1057.64,284.813L1053.37,273.536L1055.37,273.536L1058.23,281.718C1058.38,282.152 1058.51,282.68 1058.61,283.304L1058.66,283.304C1058.73,282.761 1058.84,282.251 1059.01,281.773L1062.02,273.536L1063.91,273.536Z" style="fill:white;fill-rule:nonzero;"/>
                </g>
                <g transform="matrix(1,0,0,1,-750.75,287.823)">
                    <path d="M1074.83,279.626L1066.86,279.626C1066.89,280.896 1067.23,281.869 1067.87,282.544C1068.51,283.212 1069.4,283.546 1070.54,283.546C1071.82,283.546 1072.98,283.135 1074.03,282.313L1074.03,283.998C1073.05,284.725 1071.74,285.088 1070.11,285.088C1068.51,285.088 1067.25,284.57 1066.35,283.535C1065.44,282.493 1064.99,281.054 1064.99,279.218C1064.99,278.102 1065.22,277.086 1065.66,276.168C1066.12,275.243 1066.74,274.527 1067.54,274.02C1068.33,273.514 1069.21,273.261 1070.18,273.261C1071.64,273.261 1072.78,273.738 1073.59,274.692C1074.41,275.639 1074.83,276.968 1074.83,278.679L1074.83,279.626ZM1072.98,278.095C1072.96,277.053 1072.71,276.245 1072.22,275.672C1071.73,275.092 1071.05,274.802 1070.16,274.802C1069.32,274.802 1068.6,275.103 1068.01,275.705C1067.41,276.307 1067.04,277.104 1066.89,278.095L1072.98,278.095Z" style="fill:white;fill-rule:nonzero;"/>
                </g>
                <g transform="matrix(1,0,0,1,-750.75,287.625)">
                    <path d="M1083.35,275.562C1083.02,275.32 1082.57,275.199 1081.97,275.199C1081.17,275.199 1080.52,275.577 1080.02,276.333C1079.52,277.082 1079.27,278.058 1079.27,279.262L1079.27,285.011L1077.47,285.011L1077.47,273.734L1079.27,273.734L1079.27,276.058L1079.32,276.058C1079.57,275.28 1079.95,274.666 1080.47,274.219C1080.99,273.763 1081.59,273.536 1082.27,273.536C1082.74,273.536 1083.1,273.587 1083.35,273.69L1083.35,275.562Z" style="fill:white;fill-rule:nonzero;"/>
                </g>
                <g transform="matrix(1,0,0,1,-750.75,283.308)">
                    <path d="M1103.49,281.234C1103.49,282.841 1103.13,284.262 1102.43,285.496C1101.73,286.722 1100.72,287.669 1099.42,288.337C1098.12,288.998 1096.64,289.328 1094.96,289.328L1090.79,289.328L1090.79,273.536L1095.15,273.536C1100.71,273.536 1103.49,276.102 1103.49,281.234ZM1101.55,281.278C1101.55,277.232 1099.4,275.21 1095.11,275.21L1092.64,275.21L1092.64,287.654L1094.99,287.654C1097.07,287.654 1098.69,287.1 1099.83,285.991C1100.98,284.875 1101.55,283.304 1101.55,281.278Z" style="fill:white;fill-rule:nonzero;"/>
                </g>
                <g transform="matrix(1,0,0,1,-750.75,287.823)">
                    <path d="M1114.34,284.813L1112.54,284.813L1112.54,283.051L1112.49,283.051C1111.71,284.409 1110.55,285.088 1109.02,285.088C1107.94,285.088 1107.07,284.794 1106.41,284.207C1105.76,283.612 1105.43,282.816 1105.43,281.817C1105.43,279.718 1106.67,278.491 1109.15,278.139L1112.54,277.666C1112.54,275.757 1111.76,274.802 1110.21,274.802C1108.85,274.802 1107.63,275.261 1106.53,276.179L1106.53,274.329C1106.87,274.079 1107.43,273.84 1108.23,273.613C1109.03,273.378 1109.74,273.261 1110.37,273.261C1113.02,273.261 1114.34,274.666 1114.34,277.478L1114.34,284.813ZM1112.54,279.108L1109.81,279.494C1108.87,279.626 1108.22,279.85 1107.85,280.165C1107.47,280.474 1107.28,280.977 1107.28,281.674C1107.28,282.239 1107.49,282.695 1107.89,283.04C1108.29,283.377 1108.81,283.546 1109.44,283.546C1110.34,283.546 1111.08,283.231 1111.65,282.599C1112.24,281.968 1112.54,281.179 1112.54,280.232L1112.54,279.108Z" style="fill:white;fill-rule:nonzero;"/>
                </g>
                <g transform="matrix(1,0,0,1,-750.75,284.74)">
                    <path d="M1122.96,287.786C1122.52,288.029 1121.96,288.15 1121.26,288.15C1119.29,288.15 1118.31,287.041 1118.31,284.824L1118.31,278.15L1116.37,278.15L1116.37,276.619L1118.31,276.619L1118.31,273.866L1120.12,273.282L1120.12,276.619L1122.96,276.619L1122.96,278.15L1120.12,278.15L1120.12,284.515C1120.12,285.272 1120.24,285.811 1120.5,286.134C1120.76,286.45 1121.19,286.608 1121.79,286.608C1122.24,286.608 1122.63,286.487 1122.96,286.244L1122.96,287.786Z" style="fill:white;fill-rule:nonzero;"/>
                </g>
                <g transform="matrix(1,0,0,1,-750.75,287.823)">
                    <path d="M1133.33,284.813L1131.53,284.813L1131.53,283.051L1131.48,283.051C1130.7,284.409 1129.54,285.088 1128.01,285.088C1126.93,285.088 1126.06,284.794 1125.4,284.207C1124.75,283.612 1124.42,282.816 1124.42,281.817C1124.42,279.718 1125.66,278.491 1128.14,278.139L1131.53,277.666C1131.53,275.757 1130.75,274.802 1129.2,274.802C1127.84,274.802 1126.62,275.261 1125.52,276.179L1125.52,274.329C1125.86,274.079 1126.42,273.84 1127.22,273.613C1128.02,273.378 1128.73,273.261 1129.36,273.261C1132.01,273.261 1133.33,274.666 1133.33,277.478L1133.33,284.813ZM1131.53,279.108L1128.8,279.494C1127.86,279.626 1127.21,279.85 1126.84,280.165C1126.46,280.474 1126.27,280.977 1126.27,281.674C1126.27,282.239 1126.48,282.695 1126.88,283.04C1127.28,283.377 1127.8,283.546 1128.43,283.546C1129.33,283.546 1130.07,283.231 1130.64,282.599C1131.23,281.968 1131.53,281.179 1131.53,280.232L1131.53,279.108Z" style="fill:white;fill-rule:nonzero;"/>
                </g>
                <g transform="matrix(1,0,0,1,-750.75,283.308)">
                    <path d="M1151.85,278.249C1151.85,279.776 1151.32,281.01 1150.26,281.949C1149.21,282.882 1147.83,283.348 1146.12,283.348L1144.04,283.348L1144.04,289.328L1142.19,289.328L1142.19,273.536L1146.53,273.536C1148.22,273.536 1149.53,273.951 1150.45,274.78C1151.38,275.602 1151.85,276.759 1151.85,278.249ZM1149.91,278.348C1149.91,276.256 1148.68,275.21 1146.21,275.21L1144.04,275.21L1144.04,281.685L1145.98,281.685C1147.25,281.685 1148.22,281.399 1148.9,280.826C1149.57,280.246 1149.91,279.42 1149.91,278.348Z" style="fill:white;fill-rule:nonzero;"/>
                </g>
                <g transform="matrix(-1,0,0,-1,1560.21,846.172)">
                    <rect x="1154.58" y="273.536" width="1.806" height="16.695" style="fill:white;"/>
                </g>
                <g transform="matrix(1,0,0,1,-750.75,287.823)">
                    <path d="M1168.02,284.813L1166.21,284.813L1166.21,283.051L1166.17,283.051C1165.38,284.409 1164.23,285.088 1162.7,285.088C1161.62,285.088 1160.75,284.794 1160.09,284.207C1159.44,283.612 1159.11,282.816 1159.11,281.817C1159.11,279.718 1160.35,278.491 1162.83,278.139L1166.21,277.666C1166.21,275.757 1165.44,274.802 1163.89,274.802C1162.53,274.802 1161.31,275.261 1160.21,276.179L1160.21,274.329C1160.54,274.079 1161.11,273.84 1161.91,273.613C1162.71,273.378 1163.42,273.261 1164.05,273.261C1166.69,273.261 1168.02,274.666 1168.02,277.478L1168.02,284.813ZM1166.21,279.108L1163.48,279.494C1162.55,279.626 1161.9,279.85 1161.52,280.165C1161.15,280.474 1160.96,280.977 1160.96,281.674C1160.96,282.239 1161.16,282.695 1161.57,283.04C1161.97,283.377 1162.49,283.546 1163.12,283.546C1164.02,283.546 1164.75,283.231 1165.33,282.599C1165.92,281.968 1166.21,281.179 1166.21,280.232L1166.21,279.108Z" style="fill:white;fill-rule:nonzero;"/>
                </g>
                <g transform="matrix(1,0,0,1,-750.75,284.74)">
                    <path d="M1176.63,287.786C1176.2,288.029 1175.64,288.15 1174.94,288.15C1172.97,288.15 1171.99,287.041 1171.99,284.824L1171.99,278.15L1170.05,278.15L1170.05,276.619L1171.99,276.619L1171.99,273.866L1173.79,273.282L1173.79,276.619L1176.63,276.619L1176.63,278.15L1173.79,278.15L1173.79,284.515C1173.79,285.272 1173.92,285.811 1174.18,286.134C1174.43,286.45 1174.87,286.608 1175.47,286.608C1175.91,286.608 1176.3,286.487 1176.63,286.244L1176.63,287.786Z" style="fill:white;fill-rule:nonzero;"/>
                </g>
                <g transform="matrix(1,0,0,1,-750.75,282.163)">
                    <path d="M1184.6,275.364C1184.25,275.166 1183.85,275.067 1183.4,275.067C1182.14,275.067 1181.5,275.863 1181.5,277.456L1181.5,279.196L1184.15,279.196L1184.15,280.727L1181.5,280.727L1181.5,290.473L1179.7,290.473L1179.7,280.727L1177.78,280.727L1177.78,279.196L1179.7,279.196L1179.7,277.368C1179.7,276.223 1180.04,275.298 1180.71,274.593C1181.39,273.888 1182.25,273.536 1183.29,273.536C1183.84,273.536 1184.28,273.602 1184.6,273.734L1184.6,275.364Z" style="fill:white;fill-rule:nonzero;"/>
                </g>
                <g transform="matrix(1,0,0,1,-750.75,287.823)">
                    <path d="M1196.31,279.13C1196.31,280.922 1195.8,282.364 1194.77,283.458C1193.76,284.545 1192.4,285.088 1190.69,285.088C1189.02,285.088 1187.69,284.559 1186.69,283.502C1185.7,282.438 1185.2,281.039 1185.2,279.306C1185.2,277.442 1185.71,275.97 1186.74,274.89C1187.76,273.804 1189.16,273.261 1190.95,273.261C1192.63,273.261 1193.94,273.785 1194.88,274.835C1195.83,275.878 1196.31,277.309 1196.31,279.13ZM1194.45,279.196C1194.45,277.779 1194.14,276.693 1193.51,275.937C1192.88,275.18 1191.99,274.802 1190.82,274.802C1189.66,274.802 1188.74,275.191 1188.07,275.97C1187.39,276.741 1187.05,277.831 1187.05,279.24C1187.05,280.591 1187.39,281.648 1188.07,282.412C1188.75,283.168 1189.67,283.546 1190.82,283.546C1192,283.546 1192.89,283.172 1193.52,282.423C1194.14,281.674 1194.45,280.599 1194.45,279.196Z" style="fill:white;fill-rule:nonzero;"/>
                </g>
                <g transform="matrix(1,0,0,1,-750.75,287.625)">
                    <path d="M1204.98,275.562C1204.66,275.32 1204.2,275.199 1203.6,275.199C1202.8,275.199 1202.15,275.577 1201.65,276.333C1201.15,277.082 1200.9,278.058 1200.9,279.262L1200.9,285.011L1199.1,285.011L1199.1,273.734L1200.9,273.734L1200.9,276.058L1200.95,276.058C1201.2,275.28 1201.58,274.666 1202.11,274.219C1202.63,273.763 1203.23,273.536 1203.9,273.536C1204.37,273.536 1204.73,273.587 1204.98,273.69L1204.98,275.562Z" style="fill:white;fill-rule:nonzero;"/>
                </g>
                <g transform="matrix(1,0,0,1,-750.75,287.548)">
                    <path d="M1222.96,285.088L1221.15,285.088L1221.15,278.613C1221.15,277.35 1220.96,276.447 1220.57,275.904C1220.19,275.353 1219.54,275.078 1218.63,275.078C1217.86,275.078 1217.2,275.43 1216.66,276.135C1216.12,276.84 1215.86,277.68 1215.86,278.657L1215.86,285.088L1214.05,285.088L1214.05,278.392C1214.05,276.183 1213.2,275.078 1211.49,275.078C1210.69,275.078 1210.04,275.412 1209.53,276.08C1209.01,276.741 1208.75,277.599 1208.75,278.657L1208.75,285.088L1206.95,285.088L1206.95,273.811L1208.75,273.811L1208.75,275.595L1208.8,275.595C1209.6,274.222 1210.76,273.536 1212.29,273.536C1213.02,273.536 1213.68,273.741 1214.27,274.153C1214.86,274.564 1215.27,275.14 1215.49,275.881C1216.33,274.318 1217.58,273.536 1219.24,273.536C1221.72,273.536 1222.96,275.07 1222.96,278.139L1222.96,285.088Z" style="fill:white;fill-rule:nonzero;"/>
                </g>
                <g transform="matrix(1,0,0,1,-750.75,348.161)">
                    <path d="M1041.23,252.909C1041.23,254.238 1040.76,255.281 1039.82,256.037C1038.88,256.793 1037.6,257.171 1035.98,257.171C1035.4,257.171 1034.73,257.076 1033.99,256.885C1033.26,256.687 1032.74,256.481 1032.43,256.268L1032.43,254.077C1032.88,254.48 1033.46,254.818 1034.19,255.09C1034.92,255.361 1035.61,255.497 1036.24,255.497C1038.26,255.497 1039.28,254.708 1039.28,253.129C1039.28,252.469 1039.06,251.903 1038.63,251.434C1038.19,250.956 1037.31,250.332 1035.96,249.562C1034.66,248.827 1033.75,248.13 1033.23,247.469C1032.71,246.808 1032.45,246.004 1032.45,245.057C1032.45,243.809 1032.91,242.796 1033.85,242.018C1034.78,241.232 1035.98,240.839 1037.46,240.839C1038.88,240.839 1039.91,241.027 1040.57,241.401L1040.57,243.472C1039.74,242.825 1038.67,242.502 1037.36,242.502C1036.49,242.502 1035.77,242.723 1035.21,243.163C1034.66,243.596 1034.39,244.173 1034.39,244.892C1034.39,245.413 1034.47,245.832 1034.63,246.147C1034.8,246.463 1035.08,246.775 1035.47,247.084C1035.86,247.392 1036.53,247.807 1037.46,248.328C1038.86,249.106 1039.83,249.84 1040.39,250.53C1040.95,251.221 1041.23,252.013 1041.23,252.909L1041.23,252.909Z" style="fill:white;fill-rule:nonzero;"/>
                </g>
                <g transform="matrix(1,0,0,1,-750.75,347.457)">
                    <path d="M1046.25,242.282C1046.25,242.62 1046.13,242.902 1045.89,243.13C1045.66,243.35 1045.38,243.46 1045.06,243.46C1044.73,243.46 1044.45,243.354 1044.22,243.141C1043.99,242.921 1043.88,242.634 1043.88,242.282C1043.88,241.966 1043.99,241.694 1044.21,241.467C1044.44,241.232 1044.72,241.115 1045.06,241.115C1045.39,241.115 1045.68,241.229 1045.9,241.456C1046.13,241.684 1046.25,241.959 1046.25,242.282ZM1045.94,257.601L1044.13,257.601L1044.13,246.323L1045.94,246.323L1045.94,257.601Z" style="fill:white;fill-rule:nonzero;"/>
                </g>
                <g transform="matrix(-1,0,0,-1,1350.24,846.172)">
                    <rect x="1049.59" y="241.115" width="1.806" height="16.695" style="fill:white;"/>
                </g>
                <g transform="matrix(1,0,0,1,-750.75,352.666)">
                    <path d="M1063.91,241.115L1059.42,252.392L1057.64,252.392L1053.37,241.115L1055.37,241.115L1058.23,249.297C1058.38,249.73 1058.51,250.259 1058.61,250.883L1058.66,250.883C1058.73,250.34 1058.84,249.829 1059.01,249.352L1062.02,241.115L1063.91,241.115Z" style="fill:white;fill-rule:nonzero;"/>
                </g>
                <g transform="matrix(1,0,0,1,-750.75,352.666)">
                    <path d="M1074.83,247.205L1066.86,247.205C1066.89,248.475 1067.23,249.448 1067.87,250.123C1068.51,250.791 1069.4,251.125 1070.54,251.125C1071.82,251.125 1072.98,250.714 1074.03,249.892L1074.03,251.577C1073.05,252.303 1071.74,252.667 1070.11,252.667C1068.51,252.667 1067.25,252.149 1066.35,251.114C1065.44,250.072 1064.99,248.633 1064.99,246.797C1064.99,245.681 1065.22,244.664 1065.66,243.747C1066.12,242.822 1066.74,242.106 1067.54,241.599C1068.33,241.093 1069.21,240.839 1070.18,240.839C1071.64,240.839 1072.78,241.317 1073.59,242.271C1074.41,243.218 1074.83,244.547 1074.83,246.258L1074.83,247.205ZM1072.98,245.674C1072.96,244.631 1072.71,243.824 1072.22,243.251C1071.73,242.671 1071.05,242.381 1070.16,242.381C1069.32,242.381 1068.6,242.682 1068.01,243.284C1067.41,243.886 1067.04,244.683 1066.89,245.674L1072.98,245.674Z" style="fill:white;fill-rule:nonzero;"/>
                </g>
                <g transform="matrix(1,0,0,1,-750.75,352.467)">
                    <path d="M1083.35,243.141C1083.02,242.899 1082.57,242.778 1081.97,242.778C1081.17,242.778 1080.52,243.156 1080.02,243.912C1079.52,244.661 1079.27,245.637 1079.27,246.841L1079.27,252.59L1077.47,252.59L1077.47,241.313L1079.27,241.313L1079.27,243.637L1079.32,243.637C1079.57,242.858 1079.95,242.245 1080.47,241.797C1080.99,241.342 1081.59,241.115 1082.27,241.115C1082.74,241.115 1083.1,241.166 1083.35,241.269L1083.35,243.141Z" style="fill:white;fill-rule:nonzero;"/>
                </g>
                <g transform="matrix(1,0,0,1,-750.75,348.15)">
                    <path d="M1103.49,248.813C1103.49,250.42 1103.13,251.841 1102.43,253.074C1101.73,254.301 1100.72,255.248 1099.42,255.916C1098.12,256.577 1096.64,256.907 1094.96,256.907L1090.79,256.907L1090.79,241.115L1095.15,241.115C1100.71,241.115 1103.49,243.681 1103.49,248.813ZM1101.55,248.857C1101.55,244.811 1099.4,242.789 1095.11,242.789L1092.64,242.789L1092.64,255.233L1094.99,255.233C1097.07,255.233 1098.69,254.679 1099.83,253.57C1100.98,252.454 1101.55,250.883 1101.55,248.857Z" style="fill:white;fill-rule:nonzero;"/>
                </g>
                <g transform="matrix(1,0,0,1,-750.75,352.666)">
                    <path d="M1114.34,252.392L1112.54,252.392L1112.54,250.63L1112.49,250.63C1111.71,251.988 1110.55,252.667 1109.02,252.667C1107.94,252.667 1107.07,252.373 1106.41,251.786C1105.76,251.191 1105.43,250.395 1105.43,249.396C1105.43,247.296 1106.67,246.07 1109.15,245.718L1112.54,245.244C1112.54,243.335 1111.76,242.381 1110.21,242.381C1108.85,242.381 1107.63,242.84 1106.53,243.758L1106.53,241.908C1106.87,241.658 1107.43,241.419 1108.23,241.192C1109.03,240.957 1109.74,240.839 1110.37,240.839C1113.02,240.839 1114.34,242.245 1114.34,245.057L1114.34,252.392ZM1112.54,246.687L1109.81,247.073C1108.87,247.205 1108.22,247.429 1107.85,247.744C1107.47,248.053 1107.28,248.556 1107.28,249.253C1107.28,249.818 1107.49,250.273 1107.89,250.619C1108.29,250.956 1108.81,251.125 1109.44,251.125C1110.34,251.125 1111.08,250.81 1111.65,250.178C1112.24,249.547 1112.54,248.757 1112.54,247.81L1112.54,246.687Z" style="fill:white;fill-rule:nonzero;"/>
                </g>
                <g transform="matrix(1,0,0,1,-750.75,349.582)">
                    <path d="M1122.96,255.365C1122.52,255.607 1121.96,255.728 1121.26,255.728C1119.29,255.728 1118.31,254.62 1118.31,252.403L1118.31,245.729L1116.37,245.729L1116.37,244.198L1118.31,244.198L1118.31,241.445L1120.12,240.861L1120.12,244.198L1122.96,244.198L1122.96,245.729L1120.12,245.729L1120.12,252.094C1120.12,252.85 1120.24,253.39 1120.5,253.713C1120.76,254.029 1121.19,254.187 1121.79,254.187C1122.24,254.187 1122.63,254.065 1122.96,253.823L1122.96,255.365Z" style="fill:white;fill-rule:nonzero;"/>
                </g>
                <g transform="matrix(1,0,0,1,-750.75,352.666)">
                    <path d="M1133.33,252.392L1131.53,252.392L1131.53,250.63L1131.48,250.63C1130.7,251.988 1129.54,252.667 1128.01,252.667C1126.93,252.667 1126.06,252.373 1125.4,251.786C1124.75,251.191 1124.42,250.395 1124.42,249.396C1124.42,247.296 1125.66,246.07 1128.14,245.718L1131.53,245.244C1131.53,243.335 1130.75,242.381 1129.2,242.381C1127.84,242.381 1126.62,242.84 1125.52,243.758L1125.52,241.908C1125.86,241.658 1126.42,241.419 1127.22,241.192C1128.02,240.957 1128.73,240.839 1129.36,240.839C1132.01,240.839 1133.33,242.245 1133.33,245.057L1133.33,252.392ZM1131.53,246.687L1128.8,247.073C1127.86,247.205 1127.21,247.429 1126.84,247.744C1126.46,248.053 1126.27,248.556 1126.27,249.253C1126.27,249.818 1126.48,250.273 1126.88,250.619C1127.28,250.956 1127.8,251.125 1128.43,251.125C1129.33,251.125 1130.07,250.81 1130.64,250.178C1131.23,249.547 1131.53,248.757 1131.53,247.81L1131.53,246.687Z" style="fill:white;fill-rule:nonzero;"/>
                </g>
                <g transform="matrix(1,0,0,1,-750.75,348.151)">
                    <path d="M1154.41,256.907L1152.37,256.907L1150.7,252.491L1144,252.491L1142.42,256.907L1140.37,256.907L1146.41,241.115L1148.32,241.115L1154.41,256.907ZM1150.09,250.817L1147.61,244.099C1147.55,243.938 1147.46,243.581 1147.36,243.031L1147.31,243.031C1147.25,243.493 1147.16,243.849 1147.07,244.099L1144.61,250.817L1150.09,250.817Z" style="fill:white;fill-rule:nonzero;"/>
                </g>
                <g transform="matrix(1,0,0,1,-750.75,352.39)">
                    <path d="M1165.86,252.667L1164.05,252.667L1164.05,246.236C1164.05,243.85 1163.18,242.657 1161.43,242.657C1160.54,242.657 1159.8,242.994 1159.19,243.67C1158.6,244.338 1158.3,245.193 1158.3,246.235L1158.3,252.667L1156.5,252.667L1156.5,241.39L1158.3,241.39L1158.3,243.262L1158.35,243.262C1159.19,241.83 1160.42,241.115 1162.05,241.115C1163.29,241.115 1164.23,241.518 1164.88,242.326C1165.53,243.134 1165.86,244.279 1165.86,245.762L1165.86,252.667Z" style="fill:white;fill-rule:nonzero;"/>
                </g>
                <g transform="matrix(1,0,0,1,-750.75,352.666)">
                    <path d="M1177.22,252.392L1175.42,252.392L1175.42,250.63L1175.37,250.63C1174.59,251.988 1173.43,252.667 1171.9,252.667C1170.82,252.667 1169.95,252.373 1169.29,251.786C1168.64,251.191 1168.31,250.395 1168.31,249.396C1168.31,247.296 1169.55,246.07 1172.04,245.718L1175.42,245.244C1175.42,243.335 1174.64,242.381 1173.09,242.381C1171.73,242.381 1170.51,242.84 1169.41,243.758L1169.41,241.908C1169.75,241.658 1170.31,241.419 1171.11,241.192C1171.91,240.957 1172.62,240.839 1173.25,240.839C1175.9,240.839 1177.22,242.245 1177.22,245.057L1177.22,252.392ZM1175.42,246.687L1172.68,247.073C1171.75,247.205 1171.1,247.429 1170.73,247.744C1170.35,248.053 1170.16,248.556 1170.16,249.253C1170.16,249.818 1170.37,250.273 1170.77,250.619C1171.17,250.956 1171.69,251.125 1172.32,251.125C1173.22,251.125 1173.95,250.81 1174.54,250.178C1175.12,249.547 1175.42,248.757 1175.42,247.81L1175.42,246.687Z" style="fill:white;fill-rule:nonzero;"/>
                </g>
                <g transform="matrix(-1,0,0,-1,1612.27,846.172)">
                    <rect x="1180.61" y="241.115" width="1.806" height="16.695" style="fill:white;"/>
                </g>
                <g transform="matrix(1,0,0,1,-750.75,357.963)">
                    <path d="M1195.04,235.818L1189.85,248.901C1188.93,251.228 1187.63,252.392 1185.95,252.392C1185.48,252.392 1185.09,252.347 1184.78,252.26L1184.78,250.641C1185.16,250.773 1185.51,250.839 1185.83,250.839C1186.75,250.839 1187.44,250.299 1187.89,249.22L1188.79,247.073L1184.39,235.818L1186.4,235.818L1189.44,244.496L1189.67,245.355L1189.74,245.355C1189.77,245.193 1189.84,244.918 1189.96,244.529L1193.17,235.818L1195.04,235.818Z" style="fill:white;fill-rule:nonzero;"/>
                </g>
                <g transform="matrix(1,0,0,1,-750.75,349.582)">
                    <path d="M1202.19,255.365C1201.76,255.607 1201.19,255.728 1200.49,255.728C1198.52,255.728 1197.54,254.62 1197.54,252.403L1197.54,245.729L1195.6,245.729L1195.6,244.198L1197.54,244.198L1197.54,241.445L1199.35,240.861L1199.35,244.198L1202.19,244.198L1202.19,245.729L1199.35,245.729L1199.35,252.094C1199.35,252.85 1199.48,253.39 1199.73,253.713C1199.99,254.029 1200.42,254.187 1201.02,254.187C1201.47,254.187 1201.86,254.065 1202.19,253.823L1202.19,255.365Z" style="fill:white;fill-rule:nonzero;"/>
                </g>
                <g transform="matrix(1,0,0,1,-750.75,347.457)">
                    <path d="M1206.69,242.282C1206.69,242.62 1206.58,242.902 1206.34,243.13C1206.11,243.35 1205.83,243.46 1205.51,243.46C1205.17,243.46 1204.9,243.354 1204.67,243.141C1204.44,242.921 1204.33,242.634 1204.33,242.282C1204.33,241.966 1204.44,241.694 1204.66,241.467C1204.88,241.232 1205.17,241.115 1205.51,241.115C1205.84,241.115 1206.12,241.229 1206.35,241.456C1206.58,241.684 1206.69,241.959 1206.69,242.282ZM1206.39,257.601L1204.58,257.601L1204.58,246.323L1206.39,246.323L1206.39,257.601Z" style="fill:white;fill-rule:nonzero;"/>
                </g>
                <g transform="matrix(1,0,0,1,-750.75,352.666)">
                    <path d="M1217.64,251.874C1216.76,252.403 1215.73,252.667 1214.54,252.667C1213.51,252.667 1212.59,252.432 1211.77,251.962C1210.95,251.485 1210.32,250.813 1209.86,249.947C1209.41,249.08 1209.18,248.108 1209.18,247.028C1209.18,245.164 1209.71,243.666 1210.78,242.535C1211.85,241.405 1213.27,240.839 1215.05,240.839C1216.03,240.839 1216.9,241.03 1217.66,241.412L1217.66,243.262C1216.81,242.675 1215.92,242.381 1214.97,242.381C1213.8,242.381 1212.85,242.8 1212.12,243.637C1211.39,244.466 1211.03,245.542 1211.03,246.863C1211.03,248.177 1211.37,249.216 1212.06,249.98C1212.76,250.743 1213.69,251.125 1214.86,251.125C1215.85,251.125 1216.77,250.802 1217.64,250.156L1217.64,251.874Z" style="fill:white;fill-rule:nonzero;"/>
                </g>
                <g transform="matrix(1,0,0,1,-750.75,352.666)">
                    <path d="M1226.52,249.374C1226.52,250.351 1226.15,251.144 1225.39,251.753C1224.64,252.362 1223.64,252.667 1222.39,252.667C1221.33,252.667 1220.4,252.439 1219.6,251.984L1219.6,250.046C1220.49,250.765 1221.46,251.125 1222.53,251.125C1223.96,251.125 1224.67,250.6 1224.67,249.55C1224.67,249.125 1224.53,248.779 1224.26,248.515C1223.98,248.244 1223.34,247.88 1222.35,247.425C1221.35,246.999 1220.65,246.544 1220.24,246.059C1219.82,245.568 1219.62,244.918 1219.62,244.11C1219.62,243.178 1219.99,242.399 1220.74,241.775C1221.49,241.151 1222.44,240.839 1223.59,240.839C1224.48,240.839 1225.29,241.016 1226.01,241.368L1226.01,243.185C1225.27,242.649 1224.42,242.381 1223.45,242.381C1222.86,242.381 1222.38,242.528 1222.01,242.822C1221.65,243.115 1221.47,243.493 1221.47,243.956C1221.47,244.455 1221.61,244.841 1221.89,245.112C1222.17,245.377 1222.74,245.692 1223.62,246.059C1224.69,246.515 1225.44,246.992 1225.87,247.491C1226.31,247.99 1226.52,248.618 1226.52,249.374Z" style="fill:white;fill-rule:nonzero;"/>
                </g>
            </g>
            <g transform="matrix(0.806577,0,0,0.806577,-49.2545,19.7126)">
                <g transform="matrix(1,0,0,1,-750.75,261.336)">
                    <path d="M792.254,313.844L787.306,313.844L787.306,285.067C787.306,282.796 787.443,280.027 787.719,276.759L787.601,276.759C787.13,278.693 786.707,280.077 786.335,280.913L771.935,313.844L769.52,313.844L755.091,281.152C754.697,280.277 754.277,278.813 753.824,276.759L753.707,276.759C753.864,278.473 753.942,281.263 753.942,285.127L753.942,313.844L749.172,313.844L749.172,270.992L755.709,270.992L768.666,300.875C769.648,303.146 770.286,304.86 770.58,306.015L770.786,306.015C771.769,303.265 772.446,301.513 772.818,300.755L786.04,270.992L792.254,270.992L792.254,313.844Z" style="fill:white;fill-rule:nonzero;"/>
                </g>
                <g transform="matrix(1,0,0,1,-750.75,259.453)">
                    <path d="M805.999,315.727L801.17,315.727L801.17,285.127L805.999,285.127L805.999,315.727ZM806.824,274.16C806.824,275.077 806.511,275.839 805.882,276.446C805.253,277.054 804.508,277.357 803.643,277.357C802.76,277.357 802.013,277.065 801.406,276.476C800.798,275.889 800.492,275.116 800.492,274.16C800.492,273.304 800.791,272.561 801.391,271.933C801.99,271.306 802.741,270.992 803.643,270.992C804.546,270.992 805.303,271.302 805.911,271.919C806.519,272.537 806.824,273.285 806.824,274.16L806.824,274.16Z" style="fill:white;fill-rule:nonzero;"/>
                </g>
                <g transform="matrix(1,0,0,1,-750.75,273.588)">
                    <path d="M834.589,300.188C832.252,301.622 829.494,302.339 826.314,302.339C823.565,302.339 821.096,301.697 818.908,300.412C816.718,299.127 815.014,297.311 813.799,294.958C812.581,292.608 811.973,289.968 811.973,287.039C811.973,281.981 813.401,277.917 816.258,274.847C819.114,271.78 822.917,270.245 827.669,270.245C830.298,270.245 832.624,270.764 834.648,271.799L834.648,276.819C832.389,275.227 829.995,274.429 827.462,274.429C824.341,274.429 821.802,275.56 819.85,277.821C817.896,280.083 816.92,283.005 816.92,286.591C816.92,290.158 817.848,292.977 819.703,295.048C821.558,297.12 824.046,298.156 827.168,298.156C829.797,298.156 832.271,297.281 834.589,295.526L834.589,300.188Z" style="fill:white;fill-rule:nonzero;"/>
                </g>
                <g transform="matrix(1,0,0,1,-750.75,273.05)">
                    <path d="M856.109,276.491C855.244,275.833 854.018,275.504 852.428,275.504C850.287,275.504 848.549,276.527 847.215,278.567C845.88,280.61 845.213,283.265 845.213,286.531L845.213,302.13L840.384,302.13L840.384,271.53L845.213,271.53L845.213,277.835L845.331,277.835C845.998,275.724 847.028,274.055 848.423,272.83C849.815,271.605 851.416,270.992 853.223,270.992C854.479,270.992 855.44,271.133 856.109,271.41L856.109,276.491Z" style="fill:white;fill-rule:nonzero;"/>
                </g>
                <g transform="matrix(1,0,0,1,-750.75,273.588)">
                    <path d="M881.516,286.352C881.516,282.508 880.677,279.56 878.998,277.507C877.319,275.455 874.919,274.429 871.798,274.429C868.696,274.429 866.243,275.481 864.436,277.581C862.629,279.684 861.727,282.646 861.727,286.471C861.727,290.138 862.636,293.001 864.451,295.063C866.266,297.125 868.717,298.156 871.798,298.156C874.938,298.156 877.345,297.139 879.013,295.107C880.681,293.076 881.516,290.158 881.516,286.352ZM886.463,286.173C886.463,291.035 885.104,294.943 882.385,297.902C879.665,300.86 876.02,302.339 871.445,302.339C866.987,302.339 863.431,300.9 860.77,298.021C858.109,295.144 856.78,291.353 856.78,286.651C856.78,281.592 858.145,277.592 860.873,274.653C863.601,271.716 867.362,270.245 872.151,270.245C876.627,270.245 880.132,271.664 882.664,274.503C885.197,277.342 886.463,281.233 886.463,286.173Z" style="fill:white;fill-rule:nonzero;"/>
                </g>
                <g transform="matrix(1,0,0,1,-750.75,273.588)">
                    <path d="M908.896,293.404C908.896,296.055 907.89,298.207 905.877,299.859C903.864,301.513 901.191,302.339 897.853,302.339C895.007,302.339 892.512,301.722 890.373,300.487L890.373,295.227C892.748,297.18 895.36,298.156 898.206,298.156C902.035,298.156 903.949,296.732 903.949,293.882C903.949,292.728 903.576,291.786 902.829,291.058C902.083,290.333 900.385,289.351 897.735,288.115C895.066,286.96 893.181,285.72 892.081,284.395C890.981,283.071 890.432,281.312 890.432,279.12C890.432,276.591 891.433,274.48 893.436,272.785C895.438,271.092 897.981,270.245 901.063,270.245C903.437,270.245 905.587,270.723 907.512,271.679L907.512,276.61C905.549,275.157 903.271,274.429 900.68,274.429C899.09,274.429 897.809,274.828 896.837,275.624C895.865,276.422 895.379,277.447 895.379,278.702C895.379,280.057 895.752,281.099 896.498,281.825C897.245,282.552 898.785,283.415 901.122,284.41C903.988,285.645 905.999,286.941 907.158,288.294C908.317,289.65 908.896,291.353 908.896,293.404Z" style="fill:white;fill-rule:nonzero;"/>
                </g>
                <g transform="matrix(1,0,0,1,-750.75,273.588)">
                    <path d="M936.894,286.352C936.894,282.508 936.055,279.56 934.376,277.507C932.698,275.455 930.298,274.429 927.177,274.429C924.074,274.429 921.621,275.481 919.814,277.581C918.008,279.684 917.105,282.646 917.105,286.471C917.105,290.138 918.014,293.001 919.829,295.063C921.645,297.125 924.095,298.156 927.177,298.156C930.317,298.156 932.723,297.139 934.391,295.107C936.059,293.076 936.894,290.158 936.894,286.352ZM941.841,286.173C941.841,291.035 940.483,294.943 937.763,297.902C935.043,300.86 931.398,302.339 926.823,302.339C922.366,302.339 918.809,300.9 916.148,298.021C913.487,295.144 912.158,291.353 912.158,286.651C912.158,281.592 913.523,277.592 916.251,274.653C918.98,271.716 922.74,270.245 927.53,270.245C932.006,270.245 935.51,271.664 938.043,274.503C940.575,277.342 941.841,281.233 941.841,286.173Z" style="fill:white;fill-rule:nonzero;"/>
                </g>
                <g transform="matrix(1,0,0,1,-750.75,258.228)">
                    <path d="M961.626,275.953C960.684,275.415 959.613,275.146 958.416,275.146C955.038,275.146 953.351,277.308 953.351,281.63L953.351,286.352L960.419,286.352L960.419,290.506L953.351,290.506L953.351,316.952L948.522,316.952L948.522,290.506L943.398,290.506L943.398,286.352L948.522,286.352L948.522,281.391C948.522,278.283 949.424,275.773 951.231,273.861C953.036,271.948 955.333,270.992 958.122,270.992C959.594,270.992 960.761,271.171 961.626,271.53L961.626,275.953Z" style="fill:white;fill-rule:nonzero;"/>
                </g>
                <g transform="matrix(1,0,0,1,-750.75,265.221)">
                    <path d="M979.17,309.66C978.011,310.318 976.499,310.646 974.636,310.646C969.372,310.646 966.744,307.639 966.744,301.622L966.744,283.513L961.561,283.513L961.561,279.359L966.744,279.359L966.744,271.889L971.573,270.305L971.573,279.359L979.17,279.359L979.17,283.513L971.573,283.513L971.573,300.785C971.573,302.838 971.916,304.296 972.603,305.163C973.29,306.03 974.438,306.463 976.049,306.463C977.247,306.463 978.287,306.134 979.17,305.477L979.17,309.66Z" style="fill:white;fill-rule:nonzero;"/>
                </g>
                <g transform="matrix(1,0,0,1,-750.75,379.364)">
                    <path d="M819.486,225.037C819.486,219.359 816.188,216.52 809.592,216.52L803.791,216.52L803.791,234.091L808.973,234.091C812.368,234.091 814.97,233.31 816.777,231.745C818.582,230.183 819.486,227.946 819.486,225.037ZM824.669,224.768C824.669,228.913 823.26,232.253 820.443,234.794C817.625,237.333 813.929,238.603 809.356,238.603L803.791,238.603L803.791,254.83L798.843,254.83L798.843,211.978L810.446,211.978C814.96,211.978 818.46,213.098 820.944,215.34C823.426,217.581 824.669,220.725 824.669,224.768Z" style="fill:white;fill-rule:nonzero;"/>
                </g>
                <g transform="matrix(1,0,0,1,-750.75,391.616)">
                    <path d="M845.041,227.099L837.737,228.145C835.243,228.503 833.497,229.107 832.496,229.953C831.495,230.8 830.994,232.17 830.994,234.062C830.994,235.596 831.533,236.826 832.614,237.752C833.693,238.678 835.077,239.142 836.766,239.142C839.16,239.142 841.139,238.286 842.7,236.572C844.26,234.86 845.041,232.717 845.041,230.147L845.041,227.099ZM849.87,242.578L845.041,242.578L845.041,237.797L844.923,237.797C842.821,241.483 839.729,243.325 835.647,243.325C832.74,243.325 830.414,242.525 828.668,240.92C826.92,239.317 826.047,237.161 826.047,234.45C826.047,228.753 829.364,225.425 836,224.469L845.041,223.184C845.041,218.006 842.969,215.415 838.827,215.415C835.195,215.415 831.915,216.661 828.992,219.15L828.992,214.13C829.875,213.453 831.385,212.8 833.527,212.172C835.666,211.545 837.569,211.231 839.239,211.231C846.326,211.231 849.87,215.047 849.87,222.676L849.87,242.578Z" style="fill:white;fill-rule:nonzero;"/>
                </g>
                <g transform="matrix(1,0,0,1,-750.75,391.078)">
                    <path d="M873.186,217.476C872.322,216.819 871.095,216.49 869.505,216.49C867.366,216.49 865.629,217.513 864.293,219.553C862.957,221.596 862.291,224.251 862.291,227.517L862.291,243.116L857.461,243.116L857.461,212.516L862.291,212.516L862.291,218.821L862.408,218.821C863.075,216.71 864.106,215.041 865.5,213.816C866.895,212.59 868.494,211.978 870.3,211.978C871.556,211.978 872.52,212.119 873.186,212.396L873.186,217.476Z" style="fill:white;fill-rule:nonzero;"/>
                </g>
                <g transform="matrix(1,0,0,1,-750.75,383.249)">
                    <path d="M895.691,250.646C894.532,251.303 893.019,251.632 891.156,251.632C885.893,251.632 883.264,248.625 883.264,242.608L883.264,224.499L878.081,224.499L878.081,220.345L883.264,220.345L883.264,212.874L888.093,211.29L888.093,220.345L895.691,220.345L895.691,224.499L888.093,224.499L888.093,241.771C888.093,243.824 888.436,245.282 889.124,246.149C889.809,247.015 890.958,247.448 892.569,247.448C893.766,247.448 894.807,247.12 895.691,246.463L895.691,250.646Z" style="fill:white;fill-rule:nonzero;"/>
                </g>
                <g transform="matrix(1,0,0,1,-750.75,390.869)">
                    <path d="M927.471,243.325L922.642,243.325L922.642,225.874C922.642,219.4 920.305,216.162 915.633,216.162C913.258,216.162 911.271,217.073 909.67,218.896C908.069,220.719 907.27,223.045 907.27,225.874L907.27,243.325L902.44,243.325L902.44,212.725L907.27,212.725L907.27,217.805L907.388,217.805C909.645,213.92 912.943,211.978 917.282,211.978C920.599,211.978 923.127,213.075 924.865,215.265C926.602,217.457 927.471,220.565 927.471,224.589L927.471,243.325Z" style="fill:white;fill-rule:nonzero;"/>
                </g>
                <g transform="matrix(1,0,0,1,-750.75,391.616)">
                    <path d="M954.117,224.349C954.077,221.521 953.404,219.325 952.1,217.76C950.794,216.198 948.953,215.414 946.578,215.414C944.34,215.414 942.426,216.232 940.836,217.865C939.246,219.5 938.245,221.66 937.832,224.349L954.117,224.349ZM959.064,228.503L937.773,228.503C937.851,231.95 938.749,234.584 940.468,236.407C942.184,238.23 944.565,239.141 947.609,239.141C951.025,239.141 954.136,238.027 956.944,235.794L956.944,240.367C954.312,242.339 950.819,243.325 946.46,243.325C942.161,243.325 938.804,241.916 936.389,239.097C933.975,236.279 932.767,232.379 932.767,227.397C932.767,224.371 933.371,221.607 934.578,219.105C935.786,216.606 937.449,214.667 939.57,213.293C941.69,211.918 944.046,211.231 946.637,211.231C950.543,211.231 953.591,212.522 955.781,215.101C957.968,217.681 959.064,221.293 959.064,225.933L959.064,228.503Z" style="fill:white;fill-rule:nonzero;"/>
                </g>
                <g transform="matrix(1,0,0,1,-750.75,391.078)">
                    <path d="M980.348,217.476C979.485,216.819 978.257,216.49 976.667,216.49C974.526,216.49 972.788,217.513 971.455,219.553C970.119,221.596 969.452,224.251 969.452,227.517L969.452,243.116L964.623,243.116L964.623,212.516L969.452,212.516L969.452,218.821L969.57,218.821C970.238,216.71 971.267,215.041 972.663,213.816C974.055,212.59 975.655,211.978 977.462,211.978C978.718,211.978 979.681,212.119 980.348,212.396L980.348,217.476Z" style="fill:white;fill-rule:nonzero;"/>
                </g>
            </g>
            <g transform="matrix(0,1,-1,0,216.775,488.706)">
                <path d="M-59.409,59.909L60.409,59.909" style="fill:none;fill-rule:nonzero;stroke:white;stroke-width:0.56px;"/>
            </g>
        </g>
    </g>
</svg>
