<?xml version="1.0" encoding="UTF-8" standalone="no"?>
<!DOCTYPE svg PUBLIC "-//W3C//DTD SVG 1.1//EN" "http://www.w3.org/Graphics/SVG/1.1/DTD/svg11.dtd">
<svg width="100%" height="100%" viewBox="0 0 348 56" version="1.1" xmlns="http://www.w3.org/2000/svg" xmlns:xlink="http://www.w3.org/1999/xlink" xml:space="preserve" xmlns:serif="http://www.serif.com/" style="fill-rule:evenodd;clip-rule:evenodd;stroke-linejoin:round;stroke-miterlimit:2;">
    <g transform="matrix(1,0,0,1,-1.13687,-254.18)">
        <g transform="matrix(0.67968,0,0,0.749671,1140.91,49.9828)">
            <g transform="matrix(2.40768,0,0,2.18289,-3147.07,-1335.01)">
                <g transform="matrix(1,0,0,1,610.609,-157.692)">
                    <path d="M50.47,908.804C52.122,908.838 53.691,908.076 54.684,906.755L56.951,909.075C55.459,910.845 53.307,911.926 50.996,912.064C48.685,912.202 46.419,911.386 44.727,909.806C43.174,908.307 42.332,906.219 42.41,904.063C42.35,901.887 43.211,899.786 44.78,898.278C46.466,896.684 48.731,895.85 51.048,895.967C53.365,896.085 55.533,897.144 57.05,898.9L54.888,901.372C53.921,900.082 52.4,899.328 50.788,899.338C49.543,899.313 48.336,899.765 47.415,900.602C46.452,901.495 45.935,902.769 46.002,904.081C45.884,905.321 46.308,906.551 47.164,907.456C48.02,908.361 49.225,908.852 50.47,908.803L50.47,908.804Z" style="fill:white;fill-rule:nonzero;"/>
                </g>
                <g transform="matrix(1,0,0,1,610.609,-157.667)">
                    <path d="M59.697,911.838L59.697,896.188L63.172,896.188L63.172,908.726L69.883,908.726L69.883,911.838L59.697,911.838Z" style="fill:white;fill-rule:nonzero;"/>
                </g>
                <g transform="matrix(1,0,0,1,610.609,-157.828)">
                    <path d="M85.144,909.839C81.857,912.93 76.732,912.93 73.444,909.839C71.883,908.342 71.023,906.258 71.074,904.096C71.012,901.931 71.873,899.843 73.444,898.353C76.73,895.258 81.858,895.258 85.144,898.353C86.704,899.85 87.564,901.934 87.514,904.096C87.573,906.259 86.712,908.346 85.144,909.839ZM83.929,904.096C83.941,902.771 83.453,901.491 82.562,900.511C81.713,899.573 80.507,899.038 79.242,899.038C77.977,899.038 76.771,899.573 75.922,900.511C75.021,901.484 74.53,902.769 74.552,904.096C74.539,905.42 75.029,906.699 75.922,907.677C76.77,908.616 77.976,909.153 79.242,909.153C80.508,909.153 81.714,908.616 82.562,907.677C83.483,906.717 83.976,905.425 83.929,904.096Z" style="fill:white;fill-rule:nonzero;"/>
                </g>
                <g transform="matrix(1,0,0,1,610.609,-157.351)">
                    <path d="M94.628,907.517C95.192,908.249 96.075,908.662 96.998,908.625C97.907,908.671 98.778,908.256 99.315,907.52C99.914,906.657 100.206,905.617 100.145,904.567L100.145,895.925L103.624,895.925L103.624,904.67C103.751,906.599 103.062,908.492 101.724,909.887C100.436,911.121 98.707,911.785 96.924,911.731C95.128,911.785 93.384,911.121 92.078,909.887C90.74,908.492 90.051,906.599 90.178,904.67L90.178,895.925L93.653,895.925L93.653,904.564C93.657,905.625 93.994,906.658 94.617,907.517L94.628,907.517Z" style="fill:white;fill-rule:nonzero;"/>
                </g>
                <g transform="matrix(1,0,0,1,610.609,-157.642)">
                    <path d="M119.217,898.229C120.757,899.711 121.582,901.785 121.481,903.919C121.584,906.066 120.804,908.161 119.323,909.719C117.9,911.142 115.636,911.838 112.683,911.838L107.272,911.838L107.272,896.163L112.803,896.163C115.592,896.163 117.755,896.848 119.217,898.229ZM116.692,907.553C117.589,906.605 118.048,905.323 117.956,904.021C118.048,902.719 117.589,901.438 116.692,900.489C115.597,899.556 114.173,899.1 112.74,899.225L110.79,899.225L110.79,908.761L113.005,908.761C114.347,908.828 115.666,908.394 116.705,907.542L116.692,907.553Z" style="fill:white;fill-rule:nonzero;"/>
                </g>
                <g transform="matrix(1,0,0,1,610.609,-157.667)">
                    <path d="M141.359,896.188L144.839,896.188L144.839,911.838L141.359,911.838L133.878,902.038L133.878,911.838L130.399,911.838L130.399,896.188L133.666,896.188L141.359,906.25L141.359,896.188Z" style="fill:white;fill-rule:nonzero;"/>
                </g>
                <g transform="matrix(1,0,0,1,610.609,-157.667)">
                    <path d="M159.852,911.838L158.379,908.469L151.792,908.469L150.315,911.838L146.575,911.838L153.315,896.188L156.688,896.188L163.436,911.838L159.852,911.838ZM155.165,900.885L153.215,905.413L157.1,905.413L155.165,900.885Z" style="fill:white;fill-rule:nonzero;"/>
                </g>
                <g transform="matrix(1,0,0,1,610.609,-157.565)">
                    <path d="M170.912,899.139L170.912,911.785L167.433,911.785L167.433,899.139L163.012,899.139L163.012,896.139L175.395,896.139L175.395,899.139L170.912,899.139Z" style="fill:white;fill-rule:nonzero;"/>
                </g>
                <g transform="matrix(1,0,0,1,610.609,-157.667)">
                    <rect x="177.871" y="896.188" width="3.475" height="15.65" style="fill:white;"/>
                </g>
                <g transform="matrix(1,0,0,1,610.609,-157.667)">
                    <path d="M190.989,906.145L194.994,896.188L198.787,896.188L192.518,911.838L189.566,911.838L183.296,896.188L187.089,896.188L190.989,906.145Z" style="fill:white;fill-rule:nonzero;"/>
                </g>
                <g transform="matrix(1,0,0,1,610.609,-157.62)">
                    <path d="M211.905,896.141L211.905,899.267L204.11,899.267L204.11,902.481L211.121,902.481L211.121,905.481L204.114,905.481L204.114,908.73L212.174,908.73L212.174,911.838L200.631,911.838L200.631,896.191L211.905,896.191L211.905,896.141Z" style="fill:white;fill-rule:nonzero;"/>
                </g>
                <g transform="matrix(1,0,0,1,610.609,-120.712)">
                    <path d="M46.461,888.208C47.392,888.227 48.276,887.796 48.834,887.05L50.098,888.367C49.228,889.424 47.935,890.042 46.566,890.055C45.333,890.107 44.132,889.65 43.246,888.791C42.371,887.955 41.892,886.787 41.929,885.577C41.891,884.352 42.369,883.167 43.246,882.31C44.108,881.44 45.289,880.964 46.513,880.993C47.908,880.971 49.24,881.569 50.151,882.625L48.932,883.995C48.398,883.26 47.54,882.83 46.632,882.844C45.927,882.837 45.247,883.102 44.732,883.582C44.191,884.082 43.901,884.797 43.941,885.532C43.914,886.256 44.186,886.958 44.693,887.475C45.148,887.964 45.793,888.231 46.461,888.208Z" style="fill:white;fill-rule:nonzero;"/>
                </g>
                <g transform="matrix(1,0,0,1,610.609,-120.739)">
                    <path d="M58.799,888.764C57.923,889.611 56.751,890.084 55.532,890.081C54.307,890.118 53.122,889.641 52.265,888.764C50.515,886.978 50.515,884.121 52.265,882.336C53.14,881.487 54.313,881.014 55.532,881.019C56.758,880.98 57.943,881.458 58.799,882.336C60.549,884.121 60.549,886.978 58.799,888.764ZM58.167,885.55C58.181,884.814 57.917,884.1 57.429,883.55C56.959,883.023 56.291,882.717 55.585,882.706C54.872,882.682 54.189,882.995 53.741,883.55C53.231,884.087 52.964,884.81 53.003,885.55C53,886.284 53.262,886.994 53.741,887.55C54.211,888.076 54.88,888.381 55.585,888.391C56.298,888.416 56.981,888.105 57.429,887.55C57.916,886.999 58.179,886.285 58.167,885.55Z" style="fill:white;fill-rule:nonzero;"/>
                </g>
                <g transform="matrix(1,0,0,1,610.609,-120.683)">
                    <path d="M69.653,884.387L67.297,889.173L66.136,889.173L63.766,884.387L63.766,889.922L61.816,889.922L61.816,881.122L64.451,881.122L66.718,885.913L68.982,881.12L71.617,881.12L71.617,889.92L69.667,889.92L69.667,884.387L69.653,884.387Z" style="fill:white;fill-rule:nonzero;"/>
                </g>
                <g transform="matrix(1,0,0,1,610.609,-120.726)">
                    <path d="M79.821,882.007C80.495,882.625 80.845,883.519 80.768,884.43C80.856,885.328 80.503,886.212 79.821,886.803C78.959,887.354 77.942,887.613 76.921,887.541L75.774,887.541L75.774,889.964L73.824,889.964L73.824,881.164L76.932,881.164C77.961,881.121 78.976,881.417 79.821,882.007ZM78.408,885.433C78.658,885.101 78.783,884.691 78.761,884.275C78.809,883.861 78.626,883.454 78.284,883.215C77.852,882.979 77.362,882.87 76.871,882.901L75.771,882.901L75.771,885.85L77.088,885.85C77.562,885.89 78.032,885.74 78.395,885.433L78.408,885.433Z" style="fill:white;fill-rule:nonzero;"/>
                </g>
                <g transform="matrix(1,0,0,1,610.609,-120.275)">
                    <path d="M84.604,887.246C84.924,887.646 85.409,887.879 85.922,887.879C86.434,887.879 86.919,887.646 87.239,887.246C87.584,886.755 87.752,886.16 87.716,885.561L87.716,880.715L89.66,880.715L89.66,885.615C89.729,886.702 89.345,887.77 88.6,888.564C87.474,889.676 85.775,889.97 84.341,889.301C82.906,888.632 82.04,887.142 82.168,885.564L82.168,880.664L84.118,880.664L84.118,885.51C84.071,886.128 84.243,886.743 84.604,887.246Z" style="fill:white;fill-rule:nonzero;"/>
                </g>
                <g transform="matrix(1,0,0,1,610.609,-120.631)">
                    <path d="M95.414,882.808L95.414,889.87L93.468,889.87L93.468,882.808L90.996,882.808L90.996,881.12L97.95,881.12L97.95,882.808L95.414,882.808Z" style="fill:white;fill-rule:nonzero;"/>
                </g>
                <g transform="matrix(1,0,0,1,610.609,-120.581)">
                    <rect x="99.367" y="881.07" width="1.95" height="8.8" style="fill:white;"/>
                </g>
                <g transform="matrix(1,0,0,1,610.609,-120.579)">
                    <path d="M109.588,881.068L111.538,881.068L111.538,889.868L109.588,889.868L105.442,884.388L105.442,889.87L103.492,889.87L103.492,881.07L105.336,881.07L109.655,886.718L109.655,881.068L109.588,881.068Z" style="fill:white;fill-rule:nonzero;"/>
                </g>
                <g transform="matrix(1,0,0,1,610.609,-120.608)">
                    <path d="M119.443,885.421L121.393,885.421L121.393,888.529C120.451,889.524 119.124,890.061 117.755,890.002C116.542,890.026 115.369,889.572 114.488,888.738C113.611,887.903 113.133,886.734 113.174,885.524C113.147,884.309 113.614,883.135 114.467,882.27C115.32,881.405 116.487,880.922 117.702,880.932C118.921,880.906 120.101,881.365 120.983,882.207L119.983,883.68C119.675,883.359 119.289,883.123 118.863,882.995C118.522,882.871 118.165,882.801 117.803,882.787C117.099,882.78 116.418,883.044 115.903,883.525C115.369,884.05 115.082,884.776 115.112,885.525C115.087,886.262 115.352,886.98 115.85,887.525C116.304,888 116.934,888.267 117.591,888.263C118.174,888.3 118.757,888.178 119.276,887.91L119.276,885.439L119.443,885.421Z" style="fill:white;fill-rule:nonzero;"/>
                </g>
                <g transform="matrix(1,0,0,1,610.609,-120.576)">
                    <path d="M132.454,881.065L132.454,882.806L128.4,882.806L128.4,884.706L132.246,884.706L132.246,886.444L128.4,886.444L128.4,889.87L126.45,889.87L126.45,881.07L132.454,881.065Z" style="fill:white;fill-rule:nonzero;"/>
                </g>
                <g transform="matrix(1,0,0,1,610.609,-120.738)">
                    <path d="M141.517,888.764C140.641,889.611 139.469,890.084 138.25,890.081C137.025,890.118 135.84,889.641 134.983,888.764C133.233,886.978 133.233,884.121 134.983,882.336C135.858,881.487 137.031,881.014 138.25,881.019C139.476,880.979 140.661,881.458 141.517,882.336C143.267,884.121 143.267,886.978 141.517,888.764ZM140.832,885.55C140.847,884.814 140.583,884.099 140.094,883.55C139.624,883.023 138.956,882.717 138.25,882.706C137.537,882.682 136.854,882.994 136.406,883.55C135.896,884.087 135.629,884.81 135.668,885.55C135.665,886.284 135.927,886.994 136.406,887.55C136.876,888.076 137.545,888.381 138.25,888.391C138.963,888.416 139.646,888.104 140.094,887.55C140.603,887.012 140.869,886.289 140.832,885.55Z" style="fill:white;fill-rule:nonzero;"/>
                </g>
                <g transform="matrix(1,0,0,1,610.609,-120.639)">
                    <path d="M146.84,887.61C147.16,888.01 147.645,888.243 148.158,888.243C148.67,888.243 149.155,888.01 149.475,887.61C149.816,887.117 149.981,886.524 149.945,885.925L149.945,881.079L151.895,881.079L151.895,885.979C151.964,887.067 151.58,888.134 150.835,888.928C150.116,889.617 149.145,889.979 148.151,889.928C147.147,889.96 146.175,889.576 145.463,888.868C144.726,888.069 144.344,887.005 144.403,885.919L144.403,881.019L146.353,881.019L146.353,885.865C146.276,886.489 146.452,887.117 146.84,887.61Z" style="fill:white;fill-rule:nonzero;"/>
                </g>
                <g transform="matrix(1,0,0,1,610.609,-120.579)">
                    <path d="M160.063,881.068L162.013,881.068L162.013,889.868L160.063,889.868L155.899,884.388L155.899,889.87L153.949,889.87L153.949,881.07L155.796,881.07L160.116,886.718L160.116,881.068L160.063,881.068Z" style="fill:white;fill-rule:nonzero;"/>
                </g>
                <g transform="matrix(1,0,0,1,610.609,-120.58)">
                    <path d="M170.864,882.231C171.731,883.069 172.192,884.241 172.128,885.445C172.184,886.638 171.746,887.8 170.917,888.659C169.879,889.541 168.535,889.976 167.177,889.87L164.171,889.87L164.171,881.07L167.283,881.07C168.584,880.963 169.873,881.381 170.864,882.231ZM169.451,887.444C169.956,886.924 170.223,886.218 170.189,885.494C170.222,884.755 169.956,884.035 169.451,883.494C168.835,882.979 168.039,882.733 167.24,882.809L166.12,882.809L166.12,888.129L167.384,888.129C168.127,888.14 168.852,887.899 169.44,887.444L169.451,887.444Z" style="fill:white;fill-rule:nonzero;"/>
                </g>
                <g transform="matrix(1,0,0,1,610.609,-120.683)">
                    <path d="M179.821,889.921L179.03,888.021L175.342,888.021L174.551,889.921L172.432,889.921L176.225,881.121L178.125,881.121L181.925,889.921L179.821,889.921ZM177.186,883.754L176.081,886.283L178.292,886.283L177.186,883.754Z" style="fill:white;fill-rule:nonzero;"/>
                </g>
                <g transform="matrix(1,0,0,1,610.609,-120.631)">
                    <path d="M186.037,882.808L186.037,889.87L184.087,889.87L184.087,882.808L181.558,882.808L181.558,881.12L188.512,881.12L188.512,882.808L186.037,882.808Z" style="fill:white;fill-rule:nonzero;"/>
                </g>
                <g transform="matrix(1,0,0,1,610.609,-120.581)">
                    <rect x="189.936" y="881.07" width="1.95" height="8.8" style="fill:white;"/>
                </g>
                <g transform="matrix(1,0,0,1,610.609,-120.739)">
                    <path d="M201.422,888.764C200.546,889.611 199.374,890.084 198.155,890.081C196.93,890.118 195.745,889.641 194.888,888.764C193.138,886.978 193.138,884.121 194.888,882.336C195.763,881.487 196.936,881.014 198.155,881.019C199.381,880.98 200.566,881.458 201.422,882.336C203.172,884.121 203.172,886.978 201.422,888.764ZM200.804,885.55C200.818,884.814 200.554,884.1 200.066,883.55C199.596,883.023 198.928,882.717 198.222,882.706C197.509,882.682 196.826,882.995 196.378,883.55C195.868,884.087 195.601,884.81 195.64,885.55C195.637,886.284 195.899,886.994 196.378,887.55C196.848,888.076 197.517,888.381 198.222,888.391C198.935,888.416 199.618,888.105 200.066,887.55C200.553,886.999 200.816,886.286 200.804,885.551L200.804,885.55Z" style="fill:white;fill-rule:nonzero;"/>
                </g>
                <g transform="matrix(1,0,0,1,610.609,-120.58)">
                    <path d="M210.538,881.069L212.488,881.069L212.488,889.869L210.538,889.869L206.374,884.389L206.374,889.871L204.424,889.871L204.424,881.071L206.268,881.071L210.591,886.719L210.538,881.068L210.538,881.069Z" style="fill:white;fill-rule:nonzero;"/>
                </g>
                <g transform="matrix(1,0,0,1,610.609,-121.375)">
                    <path d="M4.796,880.232L0,880.232L0,891.502L11.224,891.502L11.224,886.66L4.796,886.66L4.796,880.232Z" style="fill:white;fill-rule:nonzero;"/>
                </g>
                <g transform="matrix(1,0,0,1,610.609,-121.375)">
                    <path d="M28.926,880.285L28.926,886.66L22.498,886.66L22.498,891.502L33.719,891.502L33.719,880.232L28.873,880.232L28.926,880.285Z" style="fill:white;fill-rule:nonzero;"/>
                </g>
                <g transform="matrix(1,0,0,1,610.609,-166.364)">
                    <path d="M0,914L4.849,914L4.796,913.947L4.796,907.572L11.224,907.572L11.224,902.723L0,902.723L0,914Z" style="fill:white;fill-rule:nonzero;"/>
                </g>
                <g transform="matrix(1,0,0,1,610.609,-166.364)">
                    <path d="M22.498,902.723L22.498,907.572L28.926,907.572L28.926,914L33.719,914L33.719,902.723L22.498,902.723Z" style="fill:white;fill-rule:nonzero;"/>
                </g>
                <g transform="matrix(1,0,0,1,610.609,676.359)">
                    <g opacity="0.8">
                        <g>
                            <clipPath id="_clip1">
                                <rect x="0" y="60" width="34" height="34" clip-rule="nonzero"/>
                            </clipPath>
                            <g clip-path="url(#_clip1)">
                                <g>
                                    <clipPath id="_clip2">
                                        <path d="M21.866,71.277L15.438,64.849L22.498,64.849L22.498,60L11.224,60L11.224,64.849L17.652,71.277L21.866,71.277Z" clip-rule="nonzero"/>
                                    </clipPath>
                                    <g clip-path="url(#_clip2)">
                                        <g transform="matrix(1,0,0,1,0,-842.723)">
                                            <clipPath id="_clip3">
                                                <rect x="0" y="902.723" width="34" height="34" clip-rule="nonzero"/>
                                            </clipPath>
                                            <g clip-path="url(#_clip3)">
                                                <rect x="10.224" y="901.723" width="13.274" height="13.277" style="fill:white;"/>
                                            </g>
                                        </g>
                                    </g>
                                </g>
                                <g>
                                    <clipPath id="_clip4">
                                        <path d="M16.07,82.498L11.856,82.498L17.175,87.821L18.231,88.926L11.224,88.926L11.224,93.768L22.498,93.768L22.498,88.868L19.284,85.712L16.07,82.498Z" clip-rule="nonzero"/>
                                    </clipPath>
                                    <g clip-path="url(#_clip4)">
                                        <g transform="matrix(1,0,0,1,0,-797.734)">
                                            <clipPath id="_clip5">
                                                <rect x="0" y="857.734" width="34" height="34" clip-rule="nonzero"/>
                                            </clipPath>
                                            <g clip-path="url(#_clip5)">
                                                <rect x="10.224" y="879.232" width="13.274" height="13.27" style="fill:white;"/>
                                            </g>
                                        </g>
                                    </g>
                                </g>
                                <g>
                                    <clipPath id="_clip6">
                                        <path d="M28.926,71.277L28.926,78.284L27.821,77.175L22.498,71.856L22.498,76.123L28.873,82.498L33.719,82.498L33.719,71.277L28.926,71.277Z" clip-rule="nonzero"/>
                                    </clipPath>
                                    <g clip-path="url(#_clip6)">
                                        <g transform="matrix(1,0,0,1,0,-820.225)">
                                            <clipPath id="_clip7">
                                                <rect x="0" y="880.225" width="34" height="34" clip-rule="nonzero"/>
                                            </clipPath>
                                            <g clip-path="url(#_clip7)">
                                                <rect x="21.498" y="890.502" width="13.221" height="13.221" style="fill:white;"/>
                                            </g>
                                        </g>
                                    </g>
                                </g>
                                <g>
                                    <clipPath id="_clip8">
                                        <path d="M11.224,77.652L4.849,71.277L0,71.277L0,82.498L4.8,82.498L4.8,75.491L11.224,81.917L11.224,77.652Z" clip-rule="nonzero"/>
                                    </clipPath>
                                    <g clip-path="url(#_clip8)">
                                        <g transform="matrix(1,0,0,1,0,-820.225)">
                                            <clipPath id="_clip9">
                                                <rect x="0" y="880.225" width="34" height="34" clip-rule="nonzero"/>
                                            </clipPath>
                                            <g clip-path="url(#_clip9)">
                                                <rect x="-1" y="890.502" width="13.224" height="13.221" style="fill:white;"/>
                                            </g>
                                        </g>
                                    </g>
                                </g>
                            </g>
                        </g>
                    </g>
                </g>
            </g>
        </g>
    </g>
</svg>
