<?xml version="1.0" encoding="UTF-8" standalone="no"?>
<!DOCTYPE svg PUBLIC "-//W3C//DTD SVG 1.1//EN" "http://www.w3.org/Graphics/SVG/1.1/DTD/svg11.dtd">
<svg width="100%" height="100%" viewBox="0 0 324 70" version="1.1" xmlns="http://www.w3.org/2000/svg" xmlns:xlink="http://www.w3.org/1999/xlink" xml:space="preserve" xmlns:serif="http://www.serif.com/" style="fill-rule:evenodd;clip-rule:evenodd;stroke-linejoin:round;stroke-miterlimit:2;">
    <g transform="matrix(1,0,0,1,-18.8584,-39.1474)">
        <g transform="matrix(1,0,0,1,12.1719,-46.2734)">
            <g transform="matrix(0.645903,0,0,0.645903,15.4253,56.6222)">
                <g transform="matrix(1,0,0,1,-203.083,-664.87)">
                    <path d="M262.205,734.83L265.697,734.83L275.648,724.879L276.136,720.652C257.615,704.302 229.347,706.068 212.997,724.59C208.455,729.731 205.163,735.854 203.362,742.48C204.469,742.026 205.699,741.95 206.853,742.273L226.756,738.988C226.756,738.988 227.767,737.311 228.296,737.414C237.148,727.69 252.048,726.556 262.274,734.83L262.205,734.83Z" style="fill:white;fill-rule:nonzero;"/>
                </g>
                <g transform="matrix(1,0,0,1,-203.083,-589.21)">
                    <path d="M289.827,666.819C287.538,658.393 282.844,650.819 276.315,645.033L262.35,658.998C268.246,663.816 271.607,671.08 271.463,678.695L271.463,681.176C278.329,681.176 283.895,686.743 283.895,693.608C283.895,700.474 278.329,706.041 271.463,706.041L246.598,706.041L244.117,708.556L244.117,723.47L246.598,725.951L271.463,725.951C289.318,726.088 303.909,711.725 304.046,693.87C304.128,683.025 298.788,672.881 289.827,666.819Z" style="fill:white;fill-rule:nonzero;"/>
                </g>
                <g transform="matrix(1,0,0,1,-203.083,-529.734)">
                    <path d="M221.698,666.317L246.563,666.317L246.563,646.414L221.698,646.414C219.925,646.414 218.179,646.029 216.564,645.294L213.073,646.38L203.053,656.331L202.18,659.823C207.795,664.07 214.654,666.351 221.698,666.317Z" style="fill:white;fill-rule:nonzero;"/>
                </g>
                <g transform="matrix(1,0,0,1,-203.083,-579.945)">
                    <path d="M221.698,651.967C203.836,652.07 189.452,666.633 189.554,684.495C189.617,694.467 194.269,703.855 202.18,709.931L216.599,695.512C210.345,692.687 207.561,685.32 210.386,679.066C213.21,672.812 220.578,670.028 226.832,672.853C229.588,674.097 231.794,676.31 233.045,679.066L247.464,664.647C241.333,656.62 231.794,651.926 221.698,651.967Z" style="fill:white;fill-rule:nonzero;"/>
                </g>
            </g>
            <g transform="matrix(0.747488,0,0,0.747488,3.97636,53.1351)">
                <g transform="matrix(1,0,0,1,-203.083,-624.874)">
                    <path d="M332.179,719.515C326.103,719.592 320.263,717.194 315.996,712.869C311.59,708.728 309.128,702.927 309.205,696.88C309.133,690.832 311.595,685.036 315.996,680.89C320.243,676.522 326.088,674.075 332.179,674.123C337.98,674.046 343.574,676.3 347.701,680.378L343.338,684.819C340.35,681.928 336.335,680.344 332.179,680.402C327.821,680.349 323.636,682.13 320.654,685.306C317.555,688.38 315.847,692.589 315.919,696.952C315.88,701.267 317.589,705.413 320.654,708.453C326.967,714.747 337.145,714.867 343.608,708.724C345.534,706.619 346.711,703.936 346.967,701.098L332.251,701.098L332.251,694.824L353.072,694.824C353.275,696.088 353.357,697.367 353.318,698.651C353.579,704.003 351.639,709.23 347.947,713.12C343.84,717.392 338.106,719.718 332.179,719.515ZM380.587,715.345C374.781,720.91 365.621,720.91 359.815,715.345C357.001,712.618 355.466,708.839 355.572,704.925C355.466,701.011 357.006,697.232 359.815,694.505C365.626,688.955 374.777,688.955 380.587,694.505C383.396,697.232 384.936,701.011 384.83,704.925C384.931,708.844 383.382,712.623 380.563,715.345L380.587,715.345ZM364.4,711.252C367.397,714.457 372.426,714.621 375.631,711.619C375.756,711.499 375.882,711.378 375.998,711.252C377.634,709.559 378.517,707.28 378.449,704.925C378.522,702.565 377.639,700.272 375.998,698.574C372.914,695.359 367.807,695.248 364.588,698.332C364.506,698.41 364.424,698.492 364.347,698.574C362.706,700.272 361.823,702.565 361.895,704.925C361.832,707.28 362.725,709.563 364.371,711.252L364.4,711.252ZM412.514,715.345C406.708,720.91 397.547,720.91 391.741,715.345C388.927,712.618 387.393,708.839 387.499,704.925C387.393,701.011 388.932,697.232 391.741,694.505C397.547,688.94 406.708,688.94 412.514,694.505C415.323,697.232 416.863,701.011 416.756,704.925C416.867,708.839 415.328,712.618 412.514,715.345ZM396.331,711.252C399.328,714.457 404.357,714.621 407.562,711.619C407.688,711.499 407.813,711.378 407.929,711.252C409.565,709.559 410.448,707.28 410.381,704.925C410.453,702.565 409.57,700.272 407.929,698.574C404.845,695.359 399.738,695.248 396.524,698.332C396.442,698.41 396.36,698.492 396.283,698.574C394.642,700.272 393.759,702.565 393.831,704.925C393.768,707.28 394.661,709.563 396.307,711.252L396.331,711.252ZM433.504,732.609C430.565,732.701 427.683,731.784 425.338,730.008C423.257,728.444 421.616,726.364 420.579,723.975L426.168,721.644C426.776,723.072 427.727,724.327 428.938,725.297C430.231,726.34 431.858,726.89 433.523,726.842C435.656,726.972 437.741,726.166 439.237,724.636C440.714,722.855 441.443,720.567 441.274,718.26L441.274,716.151L441.052,716.151C439.156,718.4 436.313,719.626 433.378,719.462C429.657,719.472 426.1,717.927 423.571,715.196C420.83,712.488 419.314,708.777 419.377,704.92C419.309,701.045 420.825,697.309 423.571,694.573C426.095,691.831 429.652,690.272 433.378,690.282C434.937,690.277 436.482,690.625 437.891,691.286C439.112,691.817 440.198,692.613 441.081,693.617L441.303,693.617L441.303,691.286L447.384,691.286L447.384,717.401C447.708,721.576 446.298,725.703 443.485,728.806C440.806,731.369 437.21,732.74 433.504,732.609ZM433.948,713.777C436.067,713.825 438.098,712.922 439.488,711.325C440.999,709.592 441.8,707.348 441.718,705.046C441.81,702.705 441.014,700.422 439.488,698.646C438.098,697.044 436.067,696.146 433.948,696.194C431.771,696.151 429.681,697.044 428.209,698.646C426.588,700.359 425.704,702.642 425.758,704.997C425.709,707.334 426.588,709.592 428.209,711.277C429.672,712.894 431.761,713.806 433.948,713.777ZM458.2,675.769L458.2,718.632L451.801,718.632L451.801,675.769L458.2,675.769ZM475.759,719.515C471.883,719.617 468.143,718.096 465.435,715.321C462.689,712.57 461.188,708.81 461.289,704.925C461.144,701.03 462.587,697.242 465.285,694.428C467.834,691.744 471.396,690.258 475.093,690.33C476.777,690.311 478.442,690.639 479.996,691.286C481.396,691.851 482.67,692.685 483.746,693.738C484.673,694.631 485.493,695.625 486.198,696.706C486.768,697.618 487.25,698.578 487.646,699.573L488.307,701.243L468.693,709.312C469.909,712.102 472.713,713.859 475.754,713.728C478.693,713.738 481.42,712.199 482.94,709.684L487.844,712.995C486.594,714.785 484.991,716.306 483.133,717.459C480.932,718.849 478.365,719.564 475.759,719.515ZM467.568,704.481L480.614,699.061C480.213,698.105 479.494,697.319 478.577,696.831C477.554,696.252 476.396,695.958 475.218,695.972C473.225,696.025 471.328,696.86 469.948,698.303C468.273,699.906 467.399,702.169 467.568,704.481Z" style="fill:white;fill-rule:nonzero;"/>
                </g>
                <g transform="matrix(1,0,0,1,-203.083,-633.957)">
                    <path d="M521.836,728.598C510.677,728.792 501.478,719.901 501.285,708.743C501.28,708.473 501.28,708.197 501.29,707.927C501.03,696.769 509.867,687.516 521.02,687.256C521.291,687.251 521.566,687.251 521.836,687.251C527.415,687.077 532.773,689.461 536.378,693.723L532.845,697.155C530.195,693.82 526.112,691.952 521.86,692.126C517.782,692.034 513.839,693.612 510.948,696.489C507.941,699.515 506.334,703.656 506.507,707.918C506.329,712.179 507.941,716.32 510.948,719.346C513.839,722.228 517.782,723.801 521.86,723.709C526.609,723.762 531.122,721.649 534.119,717.971L537.652,721.504C535.804,723.714 533.482,725.481 530.861,726.678C528.033,727.99 524.949,728.647 521.836,728.598Z" style="fill:white;fill-rule:nonzero;"/>
                </g>
                <g transform="matrix(1,0,0,1,-203.083,-634.001)">
                    <rect x="542.063" y="688.154" width="5.077" height="39.605" style="fill:white;"/>
                </g>
                <g transform="matrix(1,0,0,1,-203.083,-621.472)">
                    <path d="M555.432,691.392C560.968,685.895 569.907,685.895 575.442,691.392C578.068,694.167 579.482,697.874 579.366,701.692C579.482,705.509 578.068,709.216 575.442,711.991C569.907,717.488 560.968,717.488 555.432,711.991C552.807,709.216 551.393,705.509 551.509,701.692C551.393,697.874 552.802,694.167 555.432,691.392ZM559.207,708.806C562.455,712.237 567.87,712.387 571.306,709.139C571.422,709.033 571.533,708.917 571.639,708.806C573.43,706.885 574.376,704.322 574.265,701.696C574.381,699.071 573.435,696.508 571.639,694.587C568.391,691.156 562.976,691.006 559.54,694.254C559.424,694.36 559.313,694.476 559.207,694.587C557.416,696.508 556.47,699.071 556.581,701.696C556.48,704.317 557.435,706.87 559.231,708.782L559.207,708.806Z" style="fill:white;fill-rule:nonzero;"/>
                </g>
                <g transform="matrix(1,0,0,1,-203.083,-620.289)">
                    <path d="M607.494,714.047L602.586,714.047L602.586,710.297L602.441,710.297C601.568,711.721 600.332,712.889 598.86,713.68C597.335,714.563 595.597,715.032 593.831,715.027C590.925,715.225 588.092,714.086 586.133,711.938C584.275,709.587 583.343,706.639 583.507,703.651L583.507,686.976L588.585,686.976L588.585,702.719C588.585,707.773 590.814,710.297 595.279,710.297C597.292,710.36 599.208,709.447 600.429,707.845C601.746,706.18 602.446,704.109 602.417,701.986L602.417,686.976L607.494,686.976L607.494,714.047Z" style="fill:white;fill-rule:nonzero;"/>
                </g>
                <g transform="matrix(1,0,0,1,-203.083,-633.093)">
                    <path d="M624.729,727.735C621.245,727.744 617.929,726.234 615.656,723.589C613.112,720.78 611.751,717.102 611.853,713.313C611.751,709.525 613.112,705.847 615.656,703.038C617.929,700.398 621.245,698.883 624.729,698.892C626.66,698.863 628.566,699.317 630.27,700.215C631.771,700.968 633.04,702.111 633.948,703.526L634.17,703.526L633.948,699.775L633.948,687.246L639.025,687.246L639.025,726.851L634.122,726.851L634.122,723.101L633.9,723.101C632.992,724.515 631.723,725.659 630.222,726.412C628.532,727.3 626.645,727.759 624.729,727.735L624.729,727.735ZM625.564,723.101C627.886,723.135 630.111,722.17 631.67,720.452C633.393,718.487 634.276,715.924 634.122,713.313C634.276,710.707 633.393,708.14 631.67,706.175C628.591,702.787 623.349,702.541 619.961,705.625C619.768,705.799 619.585,705.987 619.411,706.175C617.683,708.125 616.8,710.683 616.959,713.284C616.8,715.886 617.683,718.444 619.411,720.394C620.974,722.15 623.219,723.135 625.564,723.101Z" style="fill:white;fill-rule:nonzero;"/>
                </g>
                <g transform="matrix(1,0,0,1,-203.083,-530.574)">
                    <path d="M329.761,651.71C329.761,652.792 329.583,653.766 329.225,654.637C328.869,655.506 328.359,656.248 327.695,656.861C327.033,657.475 326.219,657.948 325.254,658.283C324.289,658.618 323.138,658.784 321.8,658.784L319.342,658.784L319.342,666.579C319.342,666.668 319.316,666.746 319.267,666.812C319.216,666.879 319.138,666.932 319.032,666.971C318.926,667.01 318.782,667.043 318.597,667.072C318.414,667.1 318.181,667.114 317.903,667.114C317.624,667.114 317.393,667.1 317.209,667.072C317.025,667.043 316.878,667.01 316.765,666.971C316.654,666.932 316.576,666.879 316.532,666.812C316.487,666.746 316.465,666.668 316.465,666.579L316.465,646.609C316.465,646.164 316.582,645.845 316.816,645.656C317.05,645.467 317.313,645.371 317.603,645.371L322.235,645.371C322.704,645.371 323.153,645.392 323.581,645.431C324.01,645.47 324.518,645.553 325.103,645.68C325.689,645.809 326.285,646.048 326.893,646.401C327.5,646.751 328.016,647.183 328.44,647.697C328.863,648.209 329.189,648.802 329.419,649.478C329.647,650.152 329.761,650.897 329.761,651.71ZM326.734,651.945C326.734,651.063 326.569,650.328 326.24,649.736C325.911,649.146 325.504,648.706 325.019,648.416C324.534,648.126 324.033,647.942 323.515,647.863C322.995,647.785 322.492,647.746 322.001,647.746L319.342,647.746L319.342,656.427L321.934,656.427C322.803,656.427 323.525,656.316 324.1,656.092C324.674,655.87 325.156,655.559 325.546,655.164C325.937,654.768 326.232,654.293 326.432,653.742C326.634,653.191 326.734,652.592 326.734,651.945Z" style="fill:white;fill-rule:nonzero;"/>
                </g>
                <g transform="matrix(1,0,0,1,-203.083,-524.939)">
                    <path d="M344.445,660.977C344.445,661.111 344.4,661.21 344.312,661.277C344.223,661.345 344.1,661.395 343.944,661.428C343.788,661.462 343.559,661.479 343.258,661.479C342.968,661.479 342.737,661.462 342.564,661.428C342.391,661.395 342.265,661.345 342.188,661.277C342.11,661.21 342.071,661.111 342.071,660.977L342.071,659.471C341.412,660.174 340.679,660.72 339.871,661.111C339.062,661.501 338.208,661.695 337.304,661.695C336.512,661.695 335.796,661.593 335.155,661.387C334.514,661.18 333.967,660.881 333.517,660.492C333.065,660.102 332.713,659.621 332.463,659.053C332.212,658.485 332.086,657.839 332.086,657.113C332.086,656.267 332.259,655.53 332.604,654.905C332.949,654.282 333.446,653.762 334.093,653.349C334.739,652.938 335.532,652.628 336.469,652.421C337.404,652.216 338.458,652.112 339.628,652.112L341.703,652.112L341.703,650.942C341.703,650.361 341.642,649.849 341.519,649.403C341.396,648.957 341.199,648.586 340.924,648.292C340.652,647.996 340.298,647.772 339.864,647.622C339.428,647.472 338.893,647.397 338.257,647.397C337.577,647.397 336.966,647.477 336.427,647.639C335.885,647.801 335.412,647.978 335.005,648.173C334.598,648.37 334.257,648.547 333.984,648.709C333.712,648.87 333.508,648.951 333.374,648.951C333.284,648.951 333.206,648.93 333.14,648.885C333.074,648.84 333.014,648.774 332.964,648.684C332.913,648.595 332.877,648.481 332.856,648.341C332.833,648.202 332.822,648.049 332.822,647.882C332.822,647.603 332.841,647.382 332.88,647.221C332.919,647.059 333.014,646.906 333.165,646.76C333.316,646.616 333.574,646.445 333.943,646.251C334.311,646.056 334.733,645.877 335.214,645.715C335.693,645.553 336.217,645.421 336.786,645.314C337.355,645.208 337.928,645.155 338.508,645.155C339.589,645.155 340.51,645.278 341.268,645.523C342.026,645.768 342.639,646.128 343.107,646.601C343.576,647.076 343.915,647.664 344.128,648.367C344.34,649.068 344.445,649.888 344.445,650.825L344.445,660.977ZM341.703,654.103L339.345,654.103C338.586,654.103 337.928,654.166 337.371,654.295C336.814,654.423 336.352,654.612 335.984,654.864C335.616,655.115 335.344,655.415 335.172,655.767C334.999,656.118 334.912,656.522 334.912,656.98C334.912,657.761 335.161,658.381 335.657,658.845C336.152,659.307 336.847,659.538 337.739,659.538C338.463,659.538 339.136,659.354 339.754,658.986C340.373,658.618 341.023,658.055 341.703,657.297L341.703,654.103Z" style="fill:white;fill-rule:nonzero;"/>
                </g>
                <g transform="matrix(1,0,0,1,-203.083,-525.155)">
                    <path d="M358.309,647.111C358.309,647.356 358.304,647.563 358.293,647.73C358.282,647.898 358.26,648.029 358.226,648.123C358.193,648.218 358.151,648.29 358.1,648.341C358.051,648.39 357.98,648.416 357.892,648.416C357.803,648.416 357.693,648.39 357.566,648.341C357.438,648.29 357.292,648.24 357.13,648.189C356.968,648.14 356.788,648.092 356.587,648.048C356.387,648.003 356.169,647.981 355.935,647.981C355.656,647.981 355.383,648.036 355.115,648.147C354.848,648.26 354.566,648.443 354.271,648.7C353.975,648.957 353.666,649.296 353.343,649.721C353.019,650.144 352.663,650.662 352.273,651.275L352.273,661.176C352.273,661.265 352.25,661.34 352.205,661.402C352.16,661.463 352.088,661.516 351.988,661.561C351.888,661.606 351.748,661.639 351.57,661.661C351.391,661.684 351.163,661.695 350.884,661.695C350.616,661.695 350.393,661.684 350.215,661.661C350.037,661.639 349.894,661.606 349.789,661.561C349.682,661.516 349.61,661.463 349.571,661.402C349.532,661.34 349.513,661.265 349.513,661.176L349.513,646.124C349.513,646.035 349.529,645.96 349.563,645.898C349.597,645.838 349.663,645.781 349.764,645.731C349.864,645.68 349.992,645.647 350.148,645.631C350.304,645.614 350.51,645.605 350.767,645.605C351.013,645.605 351.216,645.614 351.378,645.631C351.54,645.647 351.664,645.68 351.753,645.731C351.843,645.781 351.906,645.838 351.947,645.898C351.986,645.96 352.004,646.035 352.004,646.124L352.004,648.315C352.417,647.713 352.804,647.222 353.166,646.844C353.529,646.464 353.872,646.165 354.196,645.949C354.519,645.731 354.839,645.581 355.157,645.497C355.474,645.413 355.795,645.371 356.118,645.371C356.264,645.371 356.429,645.38 356.612,645.396C356.797,645.413 356.989,645.444 357.189,645.488C357.39,645.533 357.57,645.584 357.733,645.639C357.894,645.695 358.009,645.751 358.076,645.806C358.142,645.862 358.187,645.916 358.21,645.965C358.231,646.015 358.252,646.08 358.268,646.158C358.285,646.236 358.295,646.35 358.301,646.5C358.306,646.65 358.309,646.854 358.309,647.111Z" style="fill:white;fill-rule:nonzero;"/>
                </g>
                <g transform="matrix(1,0,0,1,-203.083,-528.768)">
                    <path d="M369.281,663.686C369.281,664.009 369.259,664.265 369.215,664.455C369.17,664.644 369.104,664.784 369.014,664.872C368.924,664.962 368.79,665.046 368.613,665.124C368.434,665.202 368.23,665.266 368.002,665.316C367.773,665.366 367.53,665.408 367.275,665.441C367.018,665.474 366.761,665.492 366.505,665.492C365.724,665.492 365.056,665.388 364.497,665.183C363.94,664.976 363.484,664.663 363.126,664.246C362.77,663.827 362.511,663.298 362.35,662.657C362.188,662.016 362.107,661.261 362.107,660.391L362.107,651.594L360,651.594C359.832,651.594 359.698,651.505 359.598,651.326C359.497,651.148 359.447,650.858 359.447,650.457C359.447,650.245 359.461,650.066 359.489,649.921C359.518,649.777 359.554,649.657 359.598,649.562C359.642,649.466 359.701,649.4 359.773,649.361C359.845,649.322 359.926,649.302 360.015,649.302L362.107,649.302L362.107,645.724C362.107,645.646 362.126,645.572 362.165,645.506C362.204,645.439 362.276,645.38 362.383,645.33C362.488,645.28 362.631,645.244 362.809,645.221C362.988,645.2 363.21,645.188 363.478,645.188C363.757,645.188 363.985,645.2 364.164,645.221C364.342,645.244 364.482,645.28 364.581,645.33C364.682,645.38 364.754,645.439 364.799,645.506C364.844,645.572 364.866,645.646 364.866,645.724L364.866,649.302L368.73,649.302C368.819,649.302 368.897,649.322 368.963,649.361C369.03,649.4 369.089,649.466 369.14,649.562C369.19,649.657 369.225,649.777 369.248,649.921C369.27,650.066 369.281,650.245 369.281,650.457C369.281,650.858 369.23,651.148 369.131,651.326C369.03,651.505 368.897,651.594 368.73,651.594L364.866,651.594L364.866,659.989C364.866,661.026 365.019,661.809 365.326,662.339C365.632,662.869 366.182,663.133 366.973,663.133C367.23,663.133 367.458,663.109 367.659,663.058C367.859,663.007 368.038,662.956 368.194,662.899C368.35,662.843 368.484,662.791 368.595,662.74C368.707,662.69 368.808,662.665 368.897,662.665C368.952,662.665 369.005,662.68 369.056,662.707C369.106,662.735 369.145,662.788 369.173,662.866C369.2,662.944 369.225,663.049 369.248,663.184C369.27,663.318 369.281,663.485 369.281,663.686Z" style="fill:white;fill-rule:nonzero;"/>
                </g>
                <g transform="matrix(1,0,0,1,-203.083,-525.155)">
                    <path d="M385.888,661.176C385.888,661.265 385.866,661.34 385.822,661.402C385.777,661.463 385.705,661.516 385.604,661.561C385.504,661.606 385.364,661.639 385.186,661.661C385.007,661.684 384.785,661.695 384.517,661.695C384.238,661.695 384.01,661.684 383.831,661.661C383.654,661.639 383.513,661.606 383.414,661.561C383.313,661.516 383.241,661.463 383.196,661.402C383.151,661.34 383.13,661.265 383.13,661.176L383.13,652.362C383.13,651.505 383.062,650.813 382.927,650.288C382.795,649.765 382.6,649.314 382.343,648.934C382.086,648.554 381.754,648.266 381.348,648.064C380.941,647.863 380.469,647.763 379.935,647.763C379.242,647.763 378.552,648.009 377.861,648.499C377.17,648.99 376.445,649.709 375.687,650.656L375.687,661.176C375.687,661.265 375.664,661.34 375.619,661.402C375.575,661.463 375.502,661.516 375.403,661.561C375.302,661.606 375.162,661.639 374.984,661.661C374.805,661.684 374.577,661.695 374.298,661.695C374.03,661.695 373.808,661.684 373.629,661.661C373.451,661.639 373.308,661.606 373.203,661.561C373.096,661.516 373.024,661.463 372.985,661.402C372.946,661.34 372.927,661.265 372.927,661.176L372.927,646.123C372.927,646.035 372.943,645.96 372.978,645.898C373.011,645.838 373.077,645.781 373.178,645.731C373.278,645.68 373.406,645.647 373.562,645.631C373.718,645.614 373.925,645.605 374.182,645.605C374.427,645.605 374.631,645.614 374.792,645.631C374.954,645.647 375.078,645.68 375.167,645.731C375.257,645.781 375.32,645.838 375.361,645.898C375.4,645.96 375.419,646.035 375.419,646.123L375.419,648.114C376.266,647.167 377.11,646.473 377.952,646.033C378.795,645.592 379.645,645.371 380.502,645.371C381.507,645.371 382.352,645.542 383.037,645.881C383.723,646.222 384.277,646.676 384.701,647.245C385.124,647.814 385.429,648.479 385.612,649.243C385.797,650.008 385.888,650.924 385.888,651.994L385.888,661.176Z" style="fill:white;fill-rule:nonzero;"/>
                </g>
                <g transform="matrix(1,0,0,1,-203.083,-524.939)">
                    <path d="M403.766,652.782C403.766,653.217 403.658,653.526 403.439,653.71C403.221,653.894 402.971,653.986 402.691,653.986L392.779,653.986C392.779,654.822 392.863,655.574 393.03,656.244C393.199,656.912 393.479,657.486 393.872,657.966C394.263,658.446 394.772,658.813 395.4,659.07C396.028,659.327 396.795,659.455 397.703,659.455C398.42,659.455 399.058,659.396 399.618,659.279C400.18,659.162 400.663,659.031 401.073,658.887C401.481,658.741 401.818,658.609 402.081,658.492C402.345,658.376 402.543,658.318 402.678,658.318C402.756,658.318 402.825,658.337 402.888,658.376C402.95,658.415 402.997,658.474 403.03,658.552C403.064,658.63 403.09,658.738 403.105,658.878C403.123,659.016 403.131,659.187 403.131,659.387C403.131,659.533 403.126,659.659 403.114,659.764C403.104,659.87 403.09,659.965 403.072,660.049C403.056,660.132 403.027,660.207 402.988,660.274C402.95,660.342 402.9,660.405 402.838,660.467C402.778,660.528 402.596,660.629 402.296,660.767C401.994,660.907 401.604,661.043 401.125,661.177C400.644,661.312 400.09,661.431 399.461,661.537C398.83,661.642 398.159,661.695 397.444,661.695C396.207,661.695 395.123,661.522 394.192,661.177C393.261,660.832 392.477,660.318 391.842,659.639C391.207,658.959 390.728,658.106 390.405,657.079C390.08,656.054 389.919,654.861 389.919,653.501C389.919,652.208 390.085,651.046 390.42,650.014C390.755,648.983 391.237,648.107 391.867,647.388C392.497,646.669 393.258,646.116 394.15,645.732C395.042,645.347 396.04,645.155 397.144,645.155C398.326,645.155 399.332,645.344 400.162,645.724C400.994,646.103 401.676,646.613 402.212,647.254C402.746,647.895 403.14,648.648 403.391,649.511C403.641,650.376 403.766,651.298 403.766,652.28L403.766,652.782ZM400.991,651.962C401.024,650.513 400.701,649.376 400.022,648.55C399.344,647.726 398.338,647.313 397.003,647.313C396.318,647.313 395.718,647.441 395.203,647.697C394.686,647.954 394.254,648.294 393.906,648.717C393.559,649.142 393.288,649.634 393.098,650.197C392.907,650.761 392.801,651.349 392.779,651.962L400.991,651.962Z" style="fill:white;fill-rule:nonzero;"/>
                </g>
                <g transform="matrix(1,0,0,1,-203.083,-525.155)">
                    <path d="M416.762,647.111C416.762,647.356 416.756,647.563 416.746,647.73C416.734,647.898 416.713,648.029 416.678,648.123C416.645,648.218 416.603,648.29 416.553,648.341C416.503,648.39 416.433,648.416 416.345,648.416C416.255,648.416 416.146,648.39 416.018,648.341C415.89,648.29 415.744,648.24 415.583,648.189C415.421,648.14 415.241,648.092 415.04,648.048C414.839,648.003 414.621,647.981 414.387,647.981C414.109,647.981 413.836,648.036 413.568,648.147C413.301,648.26 413.019,648.443 412.723,648.7C412.427,648.957 412.118,649.296 411.795,649.721C411.472,650.144 411.115,650.662 410.725,651.275L410.725,661.176C410.725,661.265 410.702,661.34 410.658,661.402C410.613,661.463 410.541,661.516 410.441,661.561C410.34,661.606 410.2,661.639 410.022,661.661C409.843,661.684 409.615,661.695 409.337,661.695C409.068,661.695 408.846,661.684 408.667,661.661C408.489,661.639 408.347,661.606 408.241,661.561C408.134,661.516 408.062,661.463 408.023,661.402C407.984,661.34 407.965,661.265 407.965,661.176L407.965,646.124C407.965,646.035 407.981,645.96 408.016,645.898C408.049,645.838 408.116,645.781 408.217,645.731C408.316,645.68 408.445,645.647 408.601,645.631C408.756,645.614 408.963,645.605 409.22,645.605C409.465,645.605 409.669,645.614 409.83,645.631C409.992,645.647 410.116,645.68 410.206,645.731C410.295,645.781 410.359,645.838 410.399,645.898C410.438,645.96 410.457,646.035 410.457,646.124L410.457,648.315C410.87,647.713 411.257,647.222 411.619,646.844C411.981,646.464 412.325,646.165 412.648,645.949C412.971,645.731 413.292,645.581 413.609,645.497C413.927,645.413 414.247,645.371 414.571,645.371C414.716,645.371 414.881,645.38 415.064,645.396C415.249,645.413 415.441,645.444 415.642,645.488C415.842,645.533 416.023,645.584 416.186,645.639C416.346,645.695 416.462,645.751 416.528,645.806C416.595,645.862 416.639,645.916 416.662,645.965C416.684,646.015 416.704,646.08 416.72,646.158C416.737,646.236 416.748,646.35 416.753,646.5C416.759,646.65 416.762,646.854 416.762,647.111Z" style="fill:white;fill-rule:nonzero;"/>
                </g>
            </g>
        </g>
    </g>
</svg>
