<svg xmlns="http://www.w3.org/2000/svg" width="41.759" height="41.759" viewBox="0 0 41.759 41.759"><defs><style>.a{fill:#fff;}.b{fill:#1860d3;}</style></defs><g transform="translate(0 0)"><ellipse class="a" cx="20.879" cy="20.879" rx="20.879" ry="20.879"/></g><g transform="translate(8.202 8.056)"><path class="b" d="M42.856,49.86H31a7.012,7.012,0,0,1-7-7V31a7.012,7.012,0,0,1,7-7H42.856a7.011,7.011,0,0,1,7,7V42.856A7.011,7.011,0,0,1,42.856,49.86ZM31,26.155A4.854,4.854,0,0,0,26.155,31V42.856A4.854,4.854,0,0,0,31,47.7H42.856A4.854,4.854,0,0,0,47.7,42.856V31a4.854,4.854,0,0,0-4.849-4.849Z" transform="translate(-24 -24)"/><g transform="translate(6.465 6.465)"><path class="b" d="M50.465,56.93a6.465,6.465,0,1,1,6.465-6.465A6.472,6.472,0,0,1,50.465,56.93Zm0-10.775a4.31,4.31,0,1,0,4.31,4.31A4.315,4.315,0,0,0,50.465,46.155Z" transform="translate(-44 -44)"/></g><g transform="translate(18.317 4.579)"><ellipse class="b" cx="1.481" cy="1.481" rx="1.481" ry="1.481"/></g></g></svg>