<?xml version="1.0" encoding="UTF-8" standalone="no"?>
<!DOCTYPE svg PUBLIC "-//W3C//DTD SVG 1.1//EN" "http://www.w3.org/Graphics/SVG/1.1/DTD/svg11.dtd">
<svg width="100%" height="100%" viewBox="0 0 262 84" version="1.1" xmlns="http://www.w3.org/2000/svg" xmlns:xlink="http://www.w3.org/1999/xlink" xml:space="preserve" xmlns:serif="http://www.serif.com/" style="fill-rule:evenodd;clip-rule:evenodd;stroke-linejoin:round;stroke-miterlimit:2;">
    <g transform="matrix(1,0,0,1,343.832,-241.052)">
        <g>
            <g transform="matrix(0.526988,0,0,0.526988,-388.412,-60.831)">
                <g transform="matrix(1,0,0,1,-484.406,84.4635)">
                    <path d="M628.622,604.381C621.191,604.381 613.759,604.347 606.329,604.397C603.252,604.418 600.881,603.246 598.976,600.84C594.631,595.35 590.213,589.916 585.824,584.459C581.296,578.828 576.767,573.197 572.24,567.565C571.63,566.807 570.986,566.072 570.429,565.277C568.963,563.185 568.709,560.894 569.287,558.43C570.743,552.222 572.149,546.003 573.578,539.788C574.836,534.313 576.099,528.84 577.359,523.365C578.042,520.394 578.709,517.419 579.413,514.453C580.013,511.925 581.511,510.098 583.856,508.974C587.815,507.077 591.776,505.182 595.738,503.29C604.145,499.273 612.552,495.259 620.96,491.244C622.381,490.565 623.797,489.874 625.223,489.206C627.562,488.112 629.916,488.103 632.247,489.213C639.822,492.82 647.39,496.44 654.961,500.055C661.242,503.054 667.533,506.031 673.798,509.061C676.147,510.197 677.537,512.134 678.118,514.679C679.705,521.626 681.31,528.568 682.908,535.511C684.718,543.38 686.55,551.244 688.326,559.12C688.86,561.487 688.314,563.694 686.803,565.591C682.782,570.64 678.723,575.658 674.68,580.689C670.601,585.764 666.526,590.84 662.445,595.913C660.853,597.891 659.298,599.901 657.636,601.82C656.31,603.351 654.536,604.13 652.523,604.333C652.024,604.383 651.518,604.379 651.015,604.379C643.55,604.382 636.086,604.381 628.622,604.381ZM628.728,599.299C636.707,599.299 644.685,599.296 652.664,599.306C652.977,599.306 653.17,599.212 653.362,598.971C655.321,596.514 657.29,594.065 659.259,591.616C663.162,586.762 667.068,581.911 670.971,577.057C675.077,571.949 679.18,566.84 683.29,561.736C683.419,561.576 683.436,561.433 683.392,561.245C682.796,558.684 682.203,556.122 681.614,553.559C680.149,547.185 678.689,540.81 677.222,534.437C675.711,527.868 674.193,521.301 672.684,514.732C672.634,514.513 672.534,514.391 672.333,514.295C665.262,510.925 658.192,507.55 651.123,504.175C643.782,500.67 636.44,497.167 629.104,493.651C628.814,493.512 628.598,493.54 628.329,493.669C621.767,496.811 615.201,499.946 608.636,503.083C600.813,506.821 592.99,510.56 585.164,514.292C584.939,514.4 584.831,514.535 584.777,514.775C584.304,516.872 583.819,518.967 583.336,521.063C582.388,525.178 581.436,529.292 580.49,533.407C579.425,538.044 578.364,542.681 577.299,547.318C576.227,551.987 575.154,556.657 574.074,561.324C574.035,561.491 574.071,561.598 574.168,561.719C575.936,563.913 577.701,566.109 579.468,568.305C582.546,572.129 585.625,575.953 588.702,579.778C591.337,583.054 593.97,586.333 596.605,589.609C599.12,592.737 601.64,595.863 604.148,598.998C604.329,599.224 604.507,599.305 604.792,599.305C612.77,599.297 620.749,599.298 628.728,599.298L628.728,599.299Z" style="fill:rgb(254,254,254);fill-rule:nonzero;"/>
                </g>
                <g transform="matrix(1,0,0,1,-484.406,85.1543)">
                    <path d="M627.522,515.721C627.495,514.011 627.264,512.607 627.035,511.2C626.91,510.439 626.852,509.665 627.093,508.915C627.463,507.765 628.452,507.14 629.598,507.303C630.579,507.441 631.377,508.418 631.463,509.52C631.561,510.779 631.243,511.992 631.108,513.226C630.996,514.26 630.861,515.292 630.899,516.337C630.909,516.64 630.965,516.932 631.161,517.162C631.485,517.544 631.787,517.905 631.725,518.472C631.685,518.833 632.034,518.71 632.231,518.734C638.551,519.494 644.091,521.976 648.823,526.243C649.076,526.471 649.346,526.686 649.56,526.946C649.991,527.473 650.419,527.814 651.011,527.155C651.051,527.109 651.136,527.069 651.193,527.077C652.701,527.297 653.464,526.137 654.372,525.31C655.29,524.474 656.088,523.506 656.981,522.639C657.661,521.98 658.448,521.504 659.472,521.672C660.363,521.818 660.973,522.318 661.217,523.175C661.507,524.194 661.112,525.032 660.366,525.726C659.441,526.587 658.242,527.015 657.216,527.718C656.526,528.191 655.832,528.659 655.15,529.144C654.657,529.493 654.264,529.915 654.214,530.567C654.201,530.741 654.177,530.946 654,531.046C653.3,531.442 653.597,531.849 653.91,532.35C656.204,536.027 657.615,540.016 658.127,544.329C658.398,546.61 658.443,548.881 658.123,551.157C658.074,551.504 658.08,551.785 658.532,551.832C658.682,551.848 658.891,551.901 658.959,552.009C659.788,553.336 661.198,553.218 662.462,553.403C663.778,553.597 665.115,553.65 666.432,553.842C667.4,553.983 668.176,554.499 668.553,555.445C669.173,556.998 667.749,558.621 666.02,558.389C664.697,558.211 663.548,557.54 662.302,557.146C661.57,556.915 660.846,556.659 660.107,556.453C659.43,556.264 658.737,556.089 658.097,556.598C658.018,556.661 657.87,556.704 657.78,556.675C656.96,556.405 656.832,556.981 656.626,557.549C654.333,563.852 650.349,568.805 644.691,572.404C644.258,572.679 643.967,572.908 644.321,573.436C644.387,573.535 644.412,573.721 644.366,573.826C643.991,574.669 644.392,575.367 644.766,576.067C645.364,577.186 646.035,578.261 646.785,579.285C647.254,579.927 647.674,580.6 647.899,581.368C648.241,582.533 647.729,583.729 646.723,584.173C645.691,584.629 644.431,584.188 643.8,583.139C643.365,582.417 643.101,581.627 642.874,580.818C642.49,579.446 642.009,578.109 641.379,576.826C641.159,576.378 640.855,576.03 640.365,575.893C640.153,575.834 639.973,575.748 639.905,575.541C639.706,574.927 639.327,575.024 638.846,575.196C635.177,576.509 631.383,576.998 627.504,576.771C624.786,576.611 622.133,576.058 619.569,575.126C619.12,574.963 618.807,574.903 618.623,575.446C618.561,575.628 618.454,575.807 618.213,575.858C617.572,575.996 617.24,576.479 616.98,577.025C616.367,578.313 615.942,579.671 615.531,581.032C615.302,581.793 615.06,582.544 614.631,583.218C613.944,584.298 612.675,584.69 611.632,584.158C610.634,583.65 610.197,582.389 610.62,581.221C610.908,580.426 611.374,579.734 611.858,579.047C612.707,577.845 613.485,576.599 614.099,575.255C614.271,574.878 614.309,574.522 614.17,574.146C614.054,573.836 614.01,573.53 614.202,573.244C614.525,572.765 614.2,572.577 613.852,572.36C609.762,569.802 606.495,566.442 604.059,562.277C603.12,560.673 602.326,559 601.752,557.231C601.596,556.75 601.363,556.548 600.872,556.715C600.74,556.76 600.602,556.804 600.48,556.718C599.454,555.993 598.446,556.497 597.437,556.762C595.84,557.181 594.389,558.023 592.77,558.38C591.325,558.7 590.031,557.92 589.773,556.569C589.583,555.576 590.248,554.506 591.35,554.091C592.029,553.834 592.742,553.707 593.471,553.689C594.989,553.651 596.487,553.448 597.971,553.136C598.376,553.05 598.766,552.926 599.022,552.574C599.296,552.199 599.605,551.887 600.095,551.824C600.425,551.781 600.361,551.581 600.333,551.332C599.673,545.503 600.534,539.926 603.174,534.661C603.639,533.732 604.185,532.842 604.719,531.95C604.884,531.674 604.94,531.477 604.638,531.28C604.358,531.096 604.23,530.826 604.184,530.492C604.112,529.971 603.808,529.591 603.396,529.272C602.175,528.328 600.876,527.505 599.517,526.776C598.954,526.474 598.437,526.11 597.969,525.682C597.025,524.817 596.856,523.395 597.571,522.489C598.292,521.577 599.689,521.426 600.768,522.136C601.827,522.832 602.535,523.886 603.435,524.743C604.009,525.289 604.575,525.845 605.167,526.37C605.714,526.855 606.288,527.31 607.106,527.144C607.207,527.124 607.365,527.144 607.426,527.211C607.987,527.831 608.31,527.385 608.717,526.986C613.231,522.55 618.633,519.876 624.875,518.882C625.031,518.857 625.192,518.867 625.349,518.848C626.077,518.76 626.668,518.77 626.947,517.719C627.146,516.973 627.592,516.279 627.522,515.721ZM637.148,555.593C637.115,555.836 637.186,556.098 637.29,556.35C638.728,559.834 640.172,563.316 641.601,566.804C641.747,567.16 641.878,567.188 642.186,566.978C646.216,564.239 649.1,560.593 650.894,556.069C651.061,555.647 650.92,555.524 650.53,555.46C646.813,554.853 643.099,554.234 639.382,553.628C638.163,553.43 637.142,554.324 637.148,555.593ZM626.368,525.089C626.441,524.704 626.212,524.683 625.929,524.736C625.264,524.863 624.594,524.967 623.936,525.122C619.936,526.065 616.415,527.908 613.392,530.705C613.004,531.064 613.06,531.227 613.463,531.49C614.182,531.96 614.871,532.476 615.573,532.973C617.863,534.594 620.147,536.224 622.447,537.83C623.374,538.476 624.199,538.467 624.952,537.861C625.548,537.382 625.698,536.703 625.739,535.985C625.802,534.879 625.857,533.773 625.922,532.667C626.069,530.141 626.219,527.615 626.368,525.088L626.368,525.089ZM606.021,547.731C605.963,548.227 606.13,548.898 606.13,549.575C606.129,549.993 606.263,550.063 606.654,549.948C610.139,548.925 613.634,547.935 617.116,546.899C619.073,546.317 619.462,544.534 617.946,543.171C615.27,540.764 612.571,538.383 609.903,535.969C609.511,535.614 609.37,535.611 609.099,536.089C607.083,539.646 606.081,543.466 606.021,547.731ZM648.952,535.598C648.818,535.705 648.709,535.784 648.609,535.873C645.925,538.272 643.25,540.68 640.553,543.064C639.857,543.68 639.411,544.372 639.624,545.317C639.833,546.242 640.551,546.648 641.402,546.893C644.806,547.872 648.213,548.845 651.608,549.856C652.236,550.043 652.371,549.875 652.393,549.274C652.48,546.841 652.309,544.436 651.697,542.076C651.104,539.79 650.238,537.617 648.952,535.598ZM616.705,567.181C617.485,565.306 618.254,563.478 619.006,561.643C619.741,559.847 620.525,558.068 621.163,556.238C621.66,554.808 620.712,553.64 619.2,553.681C618,553.713 616.836,554.034 615.657,554.226C613.141,554.635 610.631,555.074 608.115,555.479C607.547,555.571 607.466,555.748 607.697,556.291C608.54,558.28 609.566,560.156 610.892,561.862C612.516,563.95 614.427,565.725 616.705,567.181ZM629.228,570.849C631.556,570.918 633.817,570.525 636.044,569.876C636.489,569.746 636.737,569.632 636.372,569.142C636.131,568.818 635.973,568.433 635.775,568.077C634.231,565.288 632.69,562.496 631.138,559.711C630.724,558.968 630.177,558.401 629.23,558.406C628.293,558.412 627.754,558.943 627.333,559.709C625.603,562.861 623.867,566.01 622.105,569.144C621.842,569.613 621.97,569.739 622.415,569.868C624.642,570.517 626.901,570.917 629.228,570.849ZM632.119,525.598C632.315,529.23 632.496,532.659 632.693,536.087C632.723,536.604 632.811,537.115 633.179,537.537C633.926,538.393 634.987,538.489 636.1,537.709C639.061,535.631 641.999,533.519 644.965,531.447C645.407,531.139 645.275,530.981 644.979,530.711C641.607,527.633 637.681,525.671 633.189,524.857C632.108,524.662 632.102,524.693 632.119,525.598ZM629.236,544.091C627.862,543.64 627.089,544.379 626.267,545.391C625.473,546.37 625.235,547.212 625.536,548.469C625.841,549.739 626.341,550.501 627.567,551.068C628.734,551.608 629.618,551.681 630.803,551.102C631.987,550.524 632.596,549.852 632.878,548.535C633.15,547.269 633.011,546.386 632.159,545.387C631.34,544.427 630.612,543.646 629.236,544.091Z" style="fill:rgb(254,254,254);fill-rule:nonzero;"/>
                </g>
            </g>
            <g transform="matrix(0.754765,0,0,0.754765,-430.051,-189.187)">
                <g transform="matrix(1,0,0,1,-484.406,13.9678)">
                    <path d="M753.941,581.288C753.941,575.877 753.959,570.465 753.922,565.054C753.916,564.221 754.101,563.83 754.99,563.714C756.686,563.493 758.37,563.169 760.051,562.848C760.994,562.669 760.875,563.281 760.875,563.84C760.874,567.147 760.908,570.455 760.855,573.761C760.837,574.823 761.024,575.063 762.125,574.703C766.941,573.127 771.645,574.447 774.104,578.09C776.369,581.447 776.815,585.236 776.391,589.174C776.003,592.778 774.661,595.883 771.612,598.05C769.711,599.401 767.564,600.07 765.242,600.183C761.879,600.348 758.582,599.921 755.296,599.206C754.152,598.957 753.907,598.467 753.917,597.393C753.968,592.025 753.941,586.656 753.941,581.288L753.941,581.288ZM760.874,587.406L760.874,591.266C760.874,593.134 761.799,594.066 763.647,594.062C766.556,594.057 768.183,592.86 769.02,590.075C769.562,588.273 769.552,586.412 769.254,584.596C768.51,580.069 765.275,579.497 761.785,580.678C761.069,580.92 760.831,581.368 760.856,582.13C760.914,583.887 760.874,585.647 760.874,587.406Z" style="fill:rgb(254,254,254);fill-rule:nonzero;"/>
                </g>
                <g transform="matrix(1,0,0,1,-484.406,13.3719)">
                    <path d="M723.538,575.223C720.508,578.826 717.661,582.196 714.527,585.305C713.845,585.982 713.853,586.332 714.522,587.027C718.023,590.66 720.904,594.751 723.332,599.174C723.872,600.157 723.592,600.287 722.641,600.262C720.838,600.214 719.031,600.189 717.232,600.272C716.253,600.317 715.7,600.013 715.195,599.153C713.413,596.117 711.495,593.168 709.056,590.597C708.706,590.228 708.435,589.785 708.111,589.355C707.576,589.898 707.745,590.3 707.742,590.653C707.725,593.401 707.686,596.15 707.757,598.897C707.784,599.929 707.564,600.35 706.443,600.273C704.99,600.172 703.521,600.188 702.066,600.269C701.062,600.325 700.76,600.032 700.765,598.993C700.81,590.92 700.79,582.847 700.79,574.774C700.79,571.725 700.824,568.676 700.768,565.628C700.752,564.773 700.986,564.423 701.849,564.307C703.544,564.08 705.228,563.763 706.908,563.441C707.841,563.262 707.735,563.852 707.735,564.421C707.732,570.39 707.733,576.359 707.733,582.328L707.733,584.089C709.19,582.432 710.464,580.987 711.733,579.537C712.072,579.149 712.47,578.787 712.707,578.342C714.195,575.553 716.541,574.772 719.536,575.194C720.753,575.366 722.014,575.223 723.538,575.223Z" style="fill:rgb(254,254,254);fill-rule:nonzero;"/>
                </g>
                <g transform="matrix(1,0,0,1,-484.406,24.0486)">
                    <path d="M795.44,579.471C793.249,579.471 791.056,579.52 788.867,579.451C787.726,579.416 787.632,579.889 788.014,580.743C788.935,582.806 790.666,583.722 792.795,583.918C795.248,584.144 797.691,583.992 800.028,583.133C800.8,582.849 801.043,582.963 801.132,583.811C801.275,585.17 801.568,586.513 801.802,587.862C801.892,588.384 801.799,588.765 801.21,588.948C796.736,590.332 792.208,590.886 787.719,589.218C783.487,587.645 781.357,584.276 780.734,579.944C780.17,576.028 780.601,572.239 782.846,568.841C787.099,562.406 797.009,562.049 801.174,568.229C803.286,571.364 803.524,574.958 803.25,578.617C803.195,579.345 802.808,579.495 802.142,579.485C799.908,579.449 797.674,579.471 795.44,579.471L795.44,579.471ZM792.191,574.443C793.348,574.443 794.507,574.42 795.664,574.452C796.349,574.471 796.651,574.39 796.481,573.535C796.031,571.278 794.567,569.854 792.42,569.777C790.177,569.698 788.397,571.128 787.909,573.371C787.755,574.078 787.79,574.514 788.718,574.459C789.872,574.391 791.033,574.442 792.191,574.443Z" style="fill:rgb(254,254,254);fill-rule:nonzero;"/>
                </g>
                <g transform="matrix(1,0,0,1,-484.406,25.0035)">
                    <path d="M868.611,578.516C866.336,578.516 864.061,578.54 861.787,578.503C861.007,578.491 860.835,578.688 861.086,579.454C861.715,581.373 863.614,582.788 866.01,582.975C868.512,583.171 870.987,583.004 873.361,582.139C874.072,581.88 874.22,582.02 874.306,582.729C874.471,584.085 874.753,585.427 874.988,586.774C875.081,587.31 875.107,587.777 874.423,587.988C869.953,589.362 865.433,589.931 860.944,588.271C856.882,586.768 854.686,583.591 854.005,579.409C853.287,574.995 853.795,570.781 856.627,567.096C859.372,563.523 864.221,562.05 868.898,563.36C873.018,564.514 875.824,568.008 876.313,572.58C876.478,574.115 876.638,575.645 876.517,577.195C876.443,578.143 876.142,578.598 875.046,578.546C872.906,578.444 870.757,578.516 868.611,578.516ZM865.209,573.488C866.326,573.488 867.449,573.411 868.556,573.51C869.738,573.615 869.808,573.046 869.604,572.151C869.117,570.016 867.252,568.647 865.048,568.825C862.93,568.996 861.087,570.911 860.968,572.977C860.933,573.583 861.292,573.478 861.604,573.482C862.805,573.496 864.007,573.488 865.209,573.488Z" style="fill:rgb(254,254,254);fill-rule:nonzero;"/>
                </g>
                <g transform="matrix(1,0,0,1,-484.406,25.545)">
                    <path d="M914.93,577.974C912.698,577.975 910.464,578.005 908.232,577.96C907.295,577.942 907.108,578.215 907.463,579.078C908.35,581.234 910.077,582.201 912.251,582.415C914.699,582.656 917.142,582.51 919.479,581.647C920.314,581.338 920.591,581.507 920.678,582.407C920.808,583.767 921.073,585.115 921.317,586.461C921.396,586.893 921.404,587.167 920.911,587.362C916.939,588.925 908.267,589.812 903.991,585.82C901.659,583.642 900.502,580.97 900.174,577.908C899.663,573.145 900.457,568.701 904.153,565.29C907.476,562.224 911.456,561.627 915.666,562.969C919.655,564.241 921.692,567.266 922.479,571.263C922.857,573.179 922.73,575.105 922.741,577.033C922.745,577.773 922.47,577.996 921.758,577.986C919.482,577.954 917.206,577.974 914.93,577.974ZM911.627,572.947C912.742,572.947 913.861,572.885 914.97,572.964C916.1,573.045 916.152,572.512 915.925,571.648C915.343,569.427 913.606,568.118 911.409,568.283C909.312,568.44 907.607,570.119 907.302,572.252C907.207,572.923 907.545,572.952 908.026,572.949C909.226,572.941 910.427,572.946 911.627,572.947Z" style="fill:rgb(254,254,254);fill-rule:nonzero;"/>
                </g>
                <g transform="matrix(1,0,0,1,-484.406,24.2952)">
                    <path d="M827.861,577.157C827.861,573.464 827.866,569.771 827.855,566.078C827.853,565.534 827.863,565.083 828.542,564.922C832.824,563.904 837.157,563.278 841.525,564.067C845.556,564.795 847.812,567.364 848.491,571.454C848.937,574.142 848.741,576.847 848.771,579.546C848.805,582.465 848.757,585.386 848.794,588.305C848.803,589.067 848.61,589.371 847.793,589.342C846.12,589.284 844.443,589.283 842.77,589.342C841.93,589.372 841.781,589.021 841.786,588.282C841.812,583.945 841.802,579.608 841.795,575.271C841.794,574.588 841.766,573.91 841.656,573.224C841.234,570.598 839.999,569.616 836.874,569.832C834.798,569.975 834.804,570.065 834.804,572.223C834.804,577.505 834.775,582.787 834.829,588.067C834.839,589.102 834.54,589.401 833.531,589.346C832.032,589.264 830.522,589.256 829.025,589.349C828.007,589.411 827.827,589.028 827.84,588.106C827.891,584.457 827.861,580.806 827.861,577.157Z" style="fill:rgb(254,254,254);fill-rule:nonzero;"/>
                </g>
                <g transform="matrix(1,0,0,1,-484.406,26.1156)">
                    <path d="M747.672,574.576C747.672,578.268 747.673,581.961 747.672,585.653C747.672,586.163 747.749,586.626 747.003,586.804C742.854,587.794 738.682,588.472 734.414,587.792C730.341,587.143 727.855,584.658 727.083,580.583C726.883,579.529 726.768,578.467 726.769,577.391C726.775,572.798 726.795,568.204 726.752,563.61C726.743,562.708 726.994,562.418 727.902,562.459C729.445,562.531 730.996,562.545 732.537,562.456C733.563,562.397 733.73,562.808 733.724,563.717C733.697,568.224 733.726,572.732 733.761,577.239C733.766,577.831 733.875,578.432 734.012,579.011C734.499,581.071 735.423,581.819 737.506,581.898C739.655,581.979 740.73,580.967 740.73,578.862C740.73,573.796 740.757,568.73 740.706,563.664C740.696,562.692 740.961,562.408 741.924,562.457C743.509,562.538 745.102,562.52 746.688,562.462C747.504,562.432 747.696,562.73 747.689,563.5C747.653,567.192 747.672,570.884 747.672,574.576Z" style="fill:rgb(254,254,254);fill-rule:nonzero;"/>
                </g>
                <g transform="matrix(1,0,0,1,-484.406,24.9449)">
                    <path d="M934.462,589.234C932.25,589.375 929.95,588.98 927.689,588.215C926.883,587.943 926.449,587.721 926.77,586.714C927.132,585.582 927.297,584.378 927.457,583.193C927.59,582.214 927.87,581.99 928.896,582.351C931.45,583.249 934.077,583.825 936.828,583.327C937.637,583.181 938.191,582.84 938.344,582.006C938.49,581.21 938.032,580.694 937.439,580.305C935.96,579.332 934.261,578.829 932.655,578.127C930.438,577.158 928.469,575.923 927.64,573.467C925.982,568.559 928.78,564.019 933.916,563.181C937.076,562.664 940.134,563.075 943.187,563.891C944.083,564.131 944.234,564.534 944.002,565.365C943.705,566.433 943.496,567.53 943.314,568.625C943.161,569.544 942.857,569.903 941.846,569.514C940.192,568.877 938.442,568.703 936.667,568.809C935.562,568.875 934.4,568.973 934.113,570.275C933.812,571.639 934.948,572.127 935.917,572.581C937.545,573.342 939.243,573.957 940.842,574.771C945.307,577.044 945.614,579.634 945.045,583.59C944.574,586.862 941.941,588.211 938.985,588.933C937.555,589.282 936.095,589.27 934.462,589.234Z" style="fill:rgb(254,254,254);fill-rule:nonzero;"/>
                </g>
                <g transform="matrix(1,0,0,1,-484.406,18.5324)">
                    <path d="M881.48,576.508C881.48,572.121 881.504,568.515 881.463,564.911C881.453,564.051 881.692,563.721 882.589,563.628C884.244,563.457 885.896,563.182 887.522,562.827C888.386,562.639 888.443,562.976 888.432,563.654C888.405,565.456 888.458,567.26 888.407,569.061C888.385,569.852 888.637,570.097 889.428,570.079C891.53,570.03 893.634,570.088 895.736,570.048C896.466,570.035 896.712,570.27 896.686,571.002C896.637,572.374 896.632,573.75 896.688,575.121C896.719,575.889 896.412,576.054 895.714,576.042C893.612,576.005 891.507,576.067 889.406,576.01C888.591,575.988 888.393,576.26 888.407,577.034C888.451,579.522 888.42,582.012 888.424,584.501C888.431,588.928 889.991,590.208 894.37,589.388C895.847,589.111 896.728,589.696 897.012,591.142C897.086,591.52 897.157,591.898 897.215,592.279C897.556,594.532 897.549,594.511 895.278,595.123C892.829,595.783 890.362,595.813 887.896,595.335C884.532,594.682 882.228,592.061 881.742,588.45C881.173,584.219 881.66,579.966 881.48,576.508Z" style="fill:rgb(254,254,254);fill-rule:nonzero;"/>
                </g>
                <g transform="matrix(1,0,0,1,-484.406,24.318)">
                    <path d="M808.527,577.331C808.527,573.809 808.554,570.286 808.508,566.764C808.496,565.913 808.694,565.489 809.572,565.205C814.023,563.769 818.512,563.274 823.12,564.31C823.948,564.497 824.424,564.697 824.103,565.746C823.717,567.008 823.51,568.333 823.323,569.644C823.206,570.463 822.854,570.64 822.126,570.405C820.42,569.854 818.665,569.91 816.901,569.955C815.83,569.982 815.43,570.327 815.443,571.475C815.503,576.973 815.441,582.472 815.495,587.969C815.505,589.039 815.226,589.393 814.142,589.325C812.644,589.232 811.134,589.245 809.634,589.323C808.698,589.371 808.497,589.03 808.508,588.155C808.554,584.548 808.527,580.939 808.527,577.331Z" style="fill:rgb(254,254,254);fill-rule:nonzero;"/>
                </g>
                <g transform="matrix(1,0,0,1,-484.406,169.129)">
                    <path d="M922.247,511.515C920.959,511.515 919.934,511.481 918.913,511.529C918.336,511.555 918.072,511.241 917.801,510.83C917.047,509.684 916.217,508.582 915.526,507.4C914.841,506.231 913.803,506.701 912.884,506.723C912.455,506.733 912.557,507.253 912.552,507.578C912.54,508.522 912.487,509.471 912.564,510.409C912.642,511.348 912.259,511.547 911.392,511.536C909.073,511.505 909.072,511.544 909.072,509.262C909.072,505.314 909.095,501.365 909.055,497.417C909.046,496.574 909.291,496.303 910.141,496.326C912.243,496.381 914.348,496.3 916.45,496.355C920.067,496.448 921.964,498.589 921.684,502.174C921.572,503.6 920.943,504.808 919.711,505.454C918.544,506.066 918.815,506.572 919.409,507.376C920.348,508.645 921.2,509.978 922.247,511.515ZM914.718,503.592C915.273,503.592 915.834,503.643 916.383,503.582C917.489,503.46 918.214,502.862 918.302,501.708C918.389,500.564 917.804,499.864 916.713,499.545C915.998,499.337 915.271,499.407 914.547,499.403C912.548,499.393 912.548,499.4 912.548,501.451C912.548,502.897 913.271,503.611 914.718,503.593L914.718,503.592Z" style="fill:rgb(254,254,254);fill-rule:nonzero;"/>
                </g>
                <g transform="matrix(1,0,0,1,-484.406,169.099)">
                    <path d="M851.586,504.043C851.549,508.466 848.079,511.809 843.536,511.801C838.885,511.793 835.527,508.396 835.566,503.739C835.602,499.392 839.159,496.076 843.743,496.115C848.264,496.154 851.624,499.55 851.586,504.043ZM848.035,504.003C848.041,501.314 846.062,499.212 843.541,499.228C841.047,499.244 839.096,501.297 839.088,503.913C839.08,506.582 841.047,508.65 843.612,508.67C846.111,508.69 848.03,506.666 848.035,504.003Z" style="fill:rgb(254,254,254);fill-rule:nonzero;"/>
                </g>
                <g transform="matrix(1,0,0,1,-484.406,169.484)">
                    <path d="M743.577,510.952C740.849,511.76 739.009,510.971 737.95,508.489C737.735,507.986 737.341,507.56 737.023,507.102C736.546,506.415 735.025,506.002 734.301,506.33C733.926,506.5 734.007,506.813 734.004,507.093C733.992,508.165 733.96,509.239 734.012,510.309C734.045,511.003 733.781,511.158 733.126,511.177C730.609,511.249 730.61,511.273 730.61,508.726C730.61,504.865 730.633,501.004 730.592,497.144C730.583,496.275 730.789,495.919 731.723,495.973C734.202,496.116 736.703,495.74 739.167,496.182C741.465,496.594 742.735,497.86 743.158,499.98C743.596,502.173 742.814,504.147 740.922,505.293C740.239,505.707 740.129,505.958 740.621,506.623C741.655,508.022 742.59,509.493 743.577,510.952ZM736.244,503.245C736.757,503.245 737.273,503.284 737.781,503.237C739.038,503.123 739.705,502.45 739.762,501.313C739.823,500.076 739.173,499.366 738.029,499.149C737.324,499.016 736.584,499.053 735.859,499.048C733.999,499.037 733.999,499.045 733.999,500.951C733.999,502.494 734.747,503.258 736.244,503.245Z" style="fill:rgb(254,254,254);fill-rule:nonzero;"/>
                </g>
                <g transform="matrix(1,0,0,1,-484.406,169.288)">
                    <path d="M833.773,511.353C832.449,511.353 831.35,511.334 830.252,511.361C829.693,511.376 829.547,510.945 829.315,510.608C828.514,509.442 827.736,508.259 826.93,507.097C826.568,506.575 824.717,506.235 824.239,506.576C823.946,506.785 824.009,507.11 824.007,507.402C823.999,508.475 823.982,509.549 824.01,510.621C824.024,511.178 823.809,511.331 823.262,511.37C820.651,511.559 820.652,511.577 820.652,509.005C820.652,505.141 820.679,501.278 820.632,497.415C820.62,496.493 820.806,496.119 821.822,496.16C823.836,496.242 825.857,496.148 827.874,496.193C831.497,496.273 833.535,498.459 833.239,501.914C833.097,503.577 832.273,504.838 830.796,505.603C830.204,505.91 830.194,506.12 830.561,506.635C831.622,508.123 832.623,509.654 833.773,511.353ZM826.223,503.552C826.82,503.52 827.427,503.545 828.012,503.444C829.166,503.246 829.847,502.565 829.852,501.345C829.856,500.156 829.131,499.542 828.067,499.338C827.403,499.212 826.705,499.247 826.022,499.244C824.003,499.234 824.003,499.24 824.003,501.269C824.003,502.773 824.743,503.534 826.223,503.552Z" style="fill:rgb(254,254,254);fill-rule:nonzero;"/>
                </g>
                <g transform="matrix(1,0,0,1,-484.406,169.016)">
                    <path d="M877.843,504.04C877.843,501.85 877.872,499.659 877.827,497.469C877.811,496.698 878.019,496.401 878.831,496.442C880.972,496.551 883.135,496.239 885.259,496.598C889.458,497.308 891.925,500.292 891.794,504.367C891.67,508.228 888.825,511.208 884.733,511.555C882.685,511.729 880.612,511.59 878.552,511.639C877.828,511.657 877.836,511.25 877.839,510.74C877.849,508.507 877.843,506.274 877.843,504.04ZM881.231,504.023L881.231,505.953C881.231,507.708 882.108,508.568 883.862,508.535C886.39,508.486 888.145,506.815 888.304,504.304C888.459,501.856 886.832,499.861 884.374,499.565C883.569,499.468 882.746,499.547 881.933,499.507C881.335,499.477 881.218,499.781 881.226,500.293C881.246,501.536 881.232,502.78 881.231,504.023Z" style="fill:rgb(254,254,254);fill-rule:nonzero;"/>
                </g>
                <g transform="matrix(1,0,0,1,-484.406,169.106)">
                    <path d="M785.394,504.039C785.394,501.892 785.435,499.744 785.375,497.599C785.349,496.681 785.548,496.318 786.566,496.342C789.613,496.412 792.663,496.397 795.711,496.348C796.594,496.334 797.001,496.564 796.867,497.489C796.825,497.784 796.824,498.095 796.867,498.389C796.997,499.28 796.57,499.459 795.765,499.439C793.791,499.389 791.813,499.483 789.841,499.399C788.783,499.354 788.708,499.906 788.821,500.655C788.922,501.332 788.312,502.412 789.795,502.366C791.468,502.314 793.146,502.398 794.818,502.337C795.683,502.305 795.985,502.609 795.874,503.44C795.829,503.778 795.832,504.13 795.874,504.469C795.966,505.219 795.638,505.422 794.923,505.403C793.25,505.359 791.573,505.426 789.9,505.374C789.071,505.348 788.689,505.594 788.804,506.461C788.848,506.799 788.845,507.152 788.804,507.49C788.707,508.301 789.073,508.515 789.839,508.497C791.77,508.453 793.706,508.553 795.633,508.456C796.757,508.4 797.095,508.806 796.942,509.839C796.899,510.133 796.91,510.441 796.94,510.739C797.001,511.357 796.739,511.553 796.129,511.548C792.823,511.526 789.516,511.519 786.211,511.553C785.462,511.56 785.381,511.207 785.386,510.608C785.406,508.419 785.394,506.229 785.394,504.039Z" style="fill:rgb(254,254,254);fill-rule:nonzero;"/>
                </g>
                <g transform="matrix(1,0,0,1,-484.406,169.124)">
                    <path d="M894.636,503.84C894.636,501.695 894.675,499.548 894.618,497.404C894.594,496.536 894.896,496.32 895.723,496.332C898.854,496.374 901.987,496.379 905.119,496.329C906.002,496.316 906.268,496.635 906.168,497.448C906.127,497.786 906.128,498.138 906.168,498.476C906.255,499.217 905.942,499.434 905.22,499.419C903.204,499.378 901.183,499.478 899.172,499.377C897.986,499.318 898.075,499.991 898.114,500.737C898.154,501.479 897.779,502.434 899.194,502.357C900.82,502.268 902.455,502.37 904.084,502.322C904.889,502.298 905.32,502.492 905.174,503.385C905.133,503.636 905.136,503.904 905.174,504.156C905.311,505.079 905.016,505.453 904.004,505.395C902.421,505.304 900.828,505.42 899.243,505.353C898.323,505.313 897.993,505.649 898.107,506.529C898.14,506.782 898.146,507.048 898.106,507.299C897.941,508.321 898.446,508.511 899.352,508.483C901.238,508.423 903.13,508.521 905.014,508.441C905.996,508.4 906.354,508.71 906.206,509.666C906.161,509.959 906.161,510.271 906.206,510.565C906.337,511.416 905.908,511.542 905.173,511.535C901.998,511.501 898.822,511.499 895.648,511.536C894.876,511.545 894.6,511.342 894.619,510.533C894.67,508.303 894.636,506.071 894.636,503.84Z" style="fill:rgb(254,254,254);fill-rule:nonzero;"/>
                </g>
                <g transform="matrix(1,0,0,1,-484.406,169.121)">
                    <path d="M716.174,503.943C716.174,501.753 716.201,499.562 716.159,497.373C716.145,496.606 716.355,496.324 717.165,496.335C720.3,496.377 723.435,496.374 726.57,496.336C727.342,496.327 727.711,496.538 727.592,497.343C727.586,497.385 727.592,497.429 727.591,497.472C727.557,499.835 727.837,499.366 725.731,499.402C724.014,499.431 722.294,499.441 720.578,499.392C719.821,499.37 719.515,499.539 719.544,500.375C719.626,502.764 719.342,502.296 721.408,502.334C722.825,502.361 724.243,502.374 725.659,502.326C726.445,502.299 726.772,502.573 726.691,503.362C726.652,503.745 726.655,504.137 726.69,504.52C726.752,505.217 726.422,505.397 725.777,505.385C724.059,505.353 722.34,505.416 720.624,505.356C719.776,505.327 719.435,505.594 719.556,506.442C719.598,506.737 719.599,507.048 719.556,507.342C719.421,508.249 719.785,508.518 720.689,508.488C722.662,508.422 724.64,508.504 726.614,508.45C727.435,508.428 727.828,508.636 727.724,509.514C727.674,509.937 727.695,510.373 727.719,510.801C727.751,511.368 727.486,511.533 726.949,511.53C723.599,511.515 720.249,511.508 716.9,511.534C716.196,511.54 716.166,511.166 716.169,510.643C716.181,508.41 716.174,506.176 716.174,503.943Z" style="fill:rgb(254,254,254);fill-rule:nonzero;"/>
                </g>
                <g transform="matrix(1,0,0,1,-484.406,169.363)">
                    <path d="M806.216,503.676C806.216,501.488 806.247,499.299 806.2,497.112C806.182,496.317 806.441,496.073 807.226,496.093C809.112,496.143 811.003,496.057 812.888,496.122C816.76,496.254 819.084,499.364 818.059,502.971C817.48,505.011 815.727,506.411 813.416,506.64C812.521,506.729 811.62,506.806 810.723,506.786C809.956,506.769 809.63,507.004 809.679,507.808C809.734,508.705 809.675,509.609 809.696,510.51C809.709,511.031 809.549,511.245 808.976,511.296C806.214,511.543 806.216,511.564 806.216,508.824L806.216,503.676ZM809.627,501.449C809.655,503.968 809.362,503.755 811.13,503.765C813.688,503.779 814.844,503.048 814.84,501.444C814.836,499.852 813.757,499.166 811.257,499.165C810.171,499.165 809.627,499.926 809.627,501.449Z" style="fill:rgb(254,254,254);fill-rule:nonzero;"/>
                </g>
                <g transform="matrix(1,0,0,1,-484.406,168.959)">
                    <path d="M707.814,511.924C705.744,511.816 703.874,511.314 702.2,510.141C701.55,509.686 701.289,509.268 701.978,508.651C702.105,508.538 702.211,508.397 702.306,508.256C702.921,507.341 703.483,506.92 704.574,507.843C705.637,508.743 707.042,509.017 708.463,508.828C709.176,508.732 709.841,508.447 709.97,507.647C710.106,506.806 709.497,506.4 708.817,506.173C707.722,505.806 706.6,505.52 705.499,505.171C702.815,504.323 701.819,502.942 702.014,500.381C702.175,498.271 703.74,496.753 706.218,496.401C708.329,496.102 710.294,496.56 712.132,497.655C712.808,498.058 712.972,498.44 712.406,499.038C712.29,499.161 712.191,499.309 712.115,499.46C711.588,500.509 710.968,500.898 709.848,500.083C709.015,499.476 707.977,499.218 706.914,499.327C706.201,499.4 705.534,499.641 705.385,500.456C705.227,501.316 705.82,501.71 706.507,501.94C707.805,502.375 709.153,502.678 710.419,503.187C713.403,504.387 714.342,507.371 712.543,509.884C711.379,511.51 709.6,511.822 707.814,511.924Z" style="fill:rgb(254,254,254);fill-rule:nonzero;"/>
                </g>
                <g transform="matrix(1,0,0,1,-484.406,168.476)">
                    <path d="M776.648,512.424C771.982,512.43 768.474,508.614 768.847,503.937C769.217,499.292 773.386,496.079 778.081,496.81C779.505,497.031 780.815,497.496 781.96,498.402C782.512,498.839 782.794,499.247 782.144,499.817C782.016,499.929 781.906,500.068 781.812,500.21C781.098,501.282 780.465,501.594 779.205,500.656C777.317,499.251 774.838,499.749 773.434,501.475C772.011,503.223 772.055,506.067 773.53,507.793C774.965,509.471 777.375,509.755 779.378,508.52C779.841,508.234 780.288,507.461 780.723,507.697C781.447,508.091 782.02,508.804 782.579,509.45C782.969,509.9 782.411,510.132 782.171,510.358C780.623,511.812 778.747,512.425 776.648,512.424Z" style="fill:rgb(254,254,254);fill-rule:nonzero;"/>
                </g>
                <g transform="matrix(1,0,0,1,-484.406,169.493)">
                    <path d="M744.969,496.083C745.108,496.04 745.188,495.998 745.27,495.994C747.455,495.877 748.922,496.836 749.673,498.872C750.572,501.311 751.472,503.75 752.483,506.491C753.299,504.297 754.01,502.383 754.723,500.47C755.112,499.427 755.596,498.408 755.871,497.336C756.161,496.203 756.764,495.812 757.887,495.964C758.518,496.05 759.17,495.98 759.775,495.98C760.083,496.331 759.825,496.604 759.73,496.844C757.937,501.341 756.103,505.823 754.341,510.332C754.036,511.112 753.568,511.299 752.878,511.18C752.083,511.042 751.08,511.679 750.584,510.41C748.79,505.822 746.934,501.259 745.108,496.683C745.032,496.494 745.014,496.281 744.969,496.083Z" style="fill:rgb(254,254,254);fill-rule:nonzero;"/>
                </g>
                <g transform="matrix(1,0,0,1,-484.406,169.354)">
                    <path d="M860.83,506.57C861.431,504.99 861.901,503.777 862.355,502.558C862.998,500.834 863.678,499.121 864.246,497.372C864.556,496.419 865.001,496.042 866.065,496.087C868.416,496.185 868.416,496.113 867.54,498.29C865.928,502.301 864.256,506.288 862.747,510.337C862.28,511.588 861.438,511.262 860.6,511.333C859.77,511.403 859.194,511.279 858.829,510.332C857.15,505.979 855.399,501.654 853.63,497.337C853.25,496.409 853.297,496.073 854.434,496.094C856.895,496.141 856.893,496.087 857.779,498.454C858.747,501.037 859.72,503.618 860.83,506.57L860.83,506.57Z" style="fill:rgb(254,254,254);fill-rule:nonzero;"/>
                </g>
                <g transform="matrix(1,0,0,1,-484.406,169.103)">
                    <path d="M762.392,503.938C762.392,501.746 762.425,499.555 762.375,497.365C762.357,496.555 762.642,496.359 763.412,496.351C765.868,496.328 765.868,496.297 765.868,498.767C765.868,502.633 765.846,506.5 765.884,510.366C765.893,511.209 765.747,511.58 764.779,511.567C762.393,511.532 762.392,511.584 762.392,509.222L762.392,503.937L762.392,503.938Z" style="fill:rgb(254,254,254);fill-rule:nonzero;"/>
                </g>
                <g transform="matrix(1,0,0,1,-484.406,169.107)">
                    <path d="M874.196,503.977C874.196,506.119 874.154,508.262 874.216,510.402C874.242,511.296 873.99,511.574 873.078,511.56C870.846,511.524 870.845,511.571 870.845,509.34C870.845,505.442 870.875,501.543 870.824,497.645C870.811,496.665 871.036,496.303 872.088,496.339C874.194,496.41 874.196,496.348 874.196,498.451L874.196,503.977Z" style="fill:rgb(254,254,254);fill-rule:nonzero;"/>
                </g>
                <g transform="matrix(1,0,0,1,-484.406,105.393)">
                    <path d="M781.037,549.709C778.586,549.709 776.453,549.708 774.319,549.71C773.723,549.711 773.566,549.202 773.313,548.828C771.752,546.518 770.178,544.216 768.668,541.872C768.218,541.174 767.724,540.84 766.891,540.943C765.757,541.083 764.298,540.448 763.558,541.223C762.881,541.931 763.379,543.353 763.354,544.46C763.321,545.919 763.319,547.38 763.357,548.839C763.375,549.518 763.122,549.741 762.461,549.725C761.002,549.692 759.542,549.692 758.083,549.725C757.385,549.74 757.209,549.425 757.21,548.791C757.222,540.205 757.22,531.618 757.215,523.032C757.214,522.543 757.285,522.205 757.904,522.224C762.834,522.369 767.785,521.851 772.692,522.515C776.67,523.052 779.502,525.842 780.039,529.412C780.737,534.05 779.142,537.534 775.347,539.458C774.57,539.852 774.457,540.112 774.966,540.839C776.958,543.679 778.891,546.562 781.037,549.709ZM763.348,531.361C763.348,532.658 763.349,533.731 763.347,534.803C763.346,535.22 763.395,535.601 763.944,535.585C766.339,535.519 768.759,535.867 771.126,535.32C773.098,534.864 774.088,533.38 773.964,531.308C773.852,529.446 772.679,528.143 770.724,527.909C769.538,527.767 768.325,527.782 767.128,527.818C765.905,527.855 764.334,527.273 763.557,528.099C762.844,528.856 763.432,530.395 763.348,531.361Z" style="fill:white;fill-rule:nonzero;"/>
                </g>
                <g transform="matrix(1,0,0,1,-484.406,105.65)">
                    <path d="M894.875,535.633C894.875,531.513 894.916,527.392 894.848,523.273C894.829,522.167 895.182,521.909 896.222,521.952C900.291,522.124 904.378,521.661 908.433,522.224C915.451,523.2 920.455,529.02 920.257,535.898C920.049,543.075 914.901,548.64 907.805,549.3C903.781,549.674 899.743,549.362 895.714,549.466C894.738,549.491 894.876,548.842 894.876,548.251C894.874,544.045 894.875,539.839 894.875,535.633ZM900.966,535.659C900.966,538.102 900.99,540.545 900.951,542.987C900.939,543.714 901.16,543.961 901.893,543.935C903.349,543.883 904.809,543.959 906.264,543.901C910.756,543.723 913.878,540.328 913.855,535.693C913.831,531.075 910.651,527.692 906.171,527.555C904.758,527.512 903.341,527.595 901.93,527.53C901.084,527.491 900.94,527.85 900.952,528.588C900.989,530.944 900.966,533.302 900.966,535.659Z" style="fill:white;fill-rule:nonzero;"/>
                </g>
                <g transform="matrix(1,0,0,1,-484.406,105.733)">
                    <path d="M867.711,535.525C867.711,531.36 867.735,527.195 867.692,523.031C867.683,522.159 867.875,521.86 868.81,521.867C874.992,521.91 881.175,521.906 887.357,521.87C888.249,521.864 888.6,522.1 888.506,523.013C888.362,524.41 889.1,526.244 888.2,527.089C887.48,527.764 885.668,527.294 884.341,527.299C881.164,527.31 877.987,527.325 874.81,527.286C874.026,527.277 873.747,527.509 873.788,528.302C873.846,529.415 873.871,530.539 873.783,531.649C873.7,532.692 874.175,532.839 875.066,532.829C878.543,532.788 882.022,532.854 885.499,532.787C886.545,532.766 886.849,533.096 886.767,534.094C886.687,535.075 886.671,536.076 886.771,537.053C886.882,538.142 886.414,538.324 885.453,538.31C881.976,538.261 878.497,538.323 875.021,538.271C874.066,538.256 873.713,538.525 873.785,539.5C873.863,540.567 873.868,541.65 873.783,542.717C873.703,543.734 874.136,543.924 875.049,543.915C879.171,543.873 883.293,543.924 887.414,543.876C888.356,543.866 888.727,544.091 888.65,545.088C888.561,546.241 888.605,547.406 888.638,548.564C888.656,549.186 888.41,549.384 887.808,549.383C881.368,549.37 874.928,549.363 868.488,549.388C867.572,549.392 867.712,548.823 867.712,548.276C867.711,544.026 867.711,539.775 867.711,535.525Z" style="fill:white;fill-rule:nonzero;"/>
                </g>
                <g transform="matrix(1,0,0,1,-484.406,105.738)">
                    <path d="M730.054,535.591C730.054,531.381 730.073,527.171 730.037,522.962C730.031,522.153 730.209,521.858 731.088,521.863C737.317,521.901 743.546,521.901 749.775,521.863C750.643,521.858 750.897,522.124 750.853,522.955C750.794,524.068 750.794,525.19 750.853,526.304C750.896,527.106 750.604,527.319 749.825,527.313C745.701,527.278 741.577,527.338 737.454,527.269C736.35,527.25 736.033,527.584 736.125,528.64C736.215,529.663 736.192,530.703 736.131,531.73C736.079,532.588 736.409,532.83 737.239,532.822C740.718,532.785 744.199,532.845 747.677,532.783C748.736,532.764 749.157,533.051 749.052,534.144C748.965,535.038 748.966,535.953 749.051,536.847C749.157,537.95 748.832,538.343 747.649,538.315C744.257,538.231 740.861,538.33 737.469,538.26C736.368,538.237 736.041,538.596 736.127,539.648C736.21,540.672 736.197,541.712 736.13,542.738C736.071,543.64 736.385,543.919 737.291,543.909C741.414,543.867 745.539,543.931 749.662,543.864C750.771,543.846 751.076,544.2 750.991,545.247C750.905,546.314 750.943,547.395 750.983,548.467C751.006,549.12 750.802,549.382 750.113,549.38C743.712,549.362 737.311,549.357 730.91,549.385C730.081,549.389 730.043,548.982 730.046,548.35C730.062,544.097 730.054,539.844 730.054,535.591Z" style="fill:white;fill-rule:nonzero;"/>
                </g>
                <g transform="matrix(1,0,0,1,-484.406,106.803)">
                    <path d="M712.976,520.333C717.146,520.371 720.52,521.357 723.377,523.864C723.997,524.408 724.131,524.828 723.496,525.4C723.306,525.571 723.148,525.779 722.979,525.973C722.132,526.942 721.449,528.384 720.394,528.746C719.365,529.1 718.454,527.546 717.37,526.997C714.339,525.465 710.807,525.631 708.422,527.708C705.512,530.244 704.706,533.504 705.716,537.16C707.322,542.973 713.703,544.997 718.707,541.345C719.923,540.458 721.07,540.553 722.148,541.63C722.482,541.964 722.815,542.298 723.149,542.632C724.396,543.879 724.425,543.912 723.144,545.039C718.494,549.133 713.146,549.849 707.546,547.658C702.002,545.488 699.205,541.038 698.999,535.167C698.787,529.152 701.382,524.571 706.826,521.78C708.885,520.725 711.124,520.361 712.976,520.333Z" style="fill:white;fill-rule:nonzero;"/>
                </g>
                <g transform="matrix(1,0,0,1,-484.406,105.767)">
                    <path d="M826.981,535.516C826.981,531.393 827.006,527.269 826.962,523.145C826.952,522.207 827.099,521.815 828.19,521.826C834.375,521.885 840.561,521.871 846.746,521.836C847.611,521.831 847.99,522.004 847.919,522.954C847.836,524.065 847.842,525.19 847.917,526.302C847.979,527.226 847.63,527.456 846.749,527.448C842.625,527.407 838.501,527.456 834.378,527.41C833.406,527.399 832.965,527.614 833.052,528.681C833.142,529.79 833.143,530.919 833.051,532.028C832.967,533.047 833.382,533.23 834.299,533.217C837.778,533.168 841.259,533.257 844.736,533.164C845.93,533.132 846.21,533.519 846.114,534.607C846.024,535.63 846.04,536.671 846.112,537.697C846.173,538.563 845.853,538.797 845.02,538.788C841.498,538.751 837.974,538.825 834.454,538.743C833.273,538.715 833.016,539.106 833.047,540.205C833.123,542.866 833.039,545.531 833.09,548.193C833.108,549.103 832.81,549.402 831.913,549.358C830.628,549.294 829.335,549.298 828.049,549.357C827.212,549.395 826.952,549.135 826.961,548.274C827.006,544.022 826.981,539.769 826.981,535.516Z" style="fill:white;fill-rule:nonzero;"/>
                </g>
                <g transform="matrix(1,0,0,1,-484.406,105.834)">
                    <path d="M795.991,521.788C799.425,521.788 802.858,521.815 806.291,521.769C807.146,521.757 807.417,522.015 807.368,522.855C807.303,523.968 807.293,525.09 807.37,526.201C807.436,527.143 807.17,527.485 806.171,527.445C804.2,527.365 802.221,527.471 800.25,527.4C799.286,527.365 799.016,527.656 799.023,528.622C799.065,535.06 799.02,541.498 799.068,547.936C799.076,549.017 798.758,549.373 797.691,549.294C796.539,549.208 795.368,549.197 794.218,549.297C793.093,549.394 792.887,548.94 792.894,547.912C792.938,541.561 792.88,535.208 792.948,528.857C792.961,527.628 792.578,527.346 791.437,527.397C789.51,527.485 787.575,527.385 785.645,527.439C784.827,527.461 784.478,527.257 784.526,526.377C784.592,525.179 784.589,523.972 784.527,522.774C784.485,521.96 784.788,521.763 785.562,521.771C789.038,521.809 792.515,521.788 795.991,521.788Z" style="fill:white;fill-rule:nonzero;"/>
                </g>
                <g transform="matrix(1,0,0,1,-484.406,105.761)">
                    <path d="M819.21,535.523C819.21,539.733 819.178,543.944 819.234,548.154C819.247,549.141 818.95,549.423 817.997,549.366C816.713,549.29 815.42,549.313 814.132,549.36C813.378,549.388 813.079,549.189 813.082,548.363C813.109,539.856 813.109,531.349 813.081,522.843C813.079,522.027 813.351,521.816 814.117,521.846C815.49,521.898 816.869,521.91 818.24,521.842C819.084,521.8 819.23,522.145 819.224,522.892C819.195,527.102 819.21,531.313 819.21,535.523Z" style="fill:white;fill-rule:nonzero;"/>
                </g>
                <g transform="matrix(1,0,0,1,-484.406,105.71)">
                    <path d="M853.887,535.442C853.887,531.407 853.942,527.37 853.854,523.336C853.827,522.096 854.239,521.802 855.37,521.891C856.522,521.982 857.691,521.968 858.845,521.893C859.736,521.835 860.015,522.097 860,523.02C859.945,526.539 859.978,530.06 859.978,533.581C859.978,538.475 859.956,543.369 859.998,548.263C860.005,549.161 859.758,549.469 858.85,549.416C857.609,549.344 856.357,549.343 855.117,549.416C854.165,549.472 853.854,549.173 853.866,548.193C853.916,543.943 853.887,539.692 853.887,535.442Z" style="fill:white;fill-rule:nonzero;"/>
                </g>
            </g>
        </g>
    </g>
</svg>
